<svg width="1920" height="1080" viewBox="0 0 1920 1080" fill="none" xmlns="http://www.w3.org/2000/svg">
<path d="M-151 820C-151 820 -134.881 820 -115.443 820C-96.0056 820 -68.0344 848.5 -47.6485 848.5C-27.2627 848.5 -4.03233 784 10.6644 784.5C25.3612 785 36.2653 871 48.5916 871C60.9179 871 61.392 660 70.3997 660C79.4074 660 79.4074 820 79.4074 820C79.4074 820 78.4592 960 91.2596 960C104.06 960 97.4227 838.5 109.749 825.5C122.075 812.5 124.92 871 135.35 871C145.78 871 164.743 802.5 171.381 795.5C178.018 788.5 194.137 816 205.041 820C215.945 824 242.494 819.5 265.25 822.5C288.007 825.5 309.341 852 330.675 848.5C352.009 845 370.972 792.954 388.039 786.5C405.107 780.046 408.899 863.727 425.967 873C443.034 882.273 439.715 660.5 448.723 660.5C457.731 660.5 456.216 757.713 461.049 820C465.292 874.675 456.782 960 471.953 960C487.124 960 480.012 835.5 489.021 826C498.029 816.499 505.614 873.501 515.095 873C524.577 872.499 533.584 813.5 545.437 801C557.29 788.499 569.616 822.001 593.32 824C617.025 826 773 824 773 824" stroke="#788B5B" stroke-opacity="0.2" stroke-width="10" stroke-linecap="round"/>
<path d="M1901.54 896.48C1901.54 907.773 1899.71 917.893 1896.04 926.84C1892.37 935.787 1886.95 942.973 1879.76 948.4C1872.57 953.68 1863.92 956.467 1853.8 956.76V916.72C1859.52 916.133 1863.92 914.153 1867 910.78C1869.93 907.407 1871.4 903.007 1871.4 897.58C1871.4 892.007 1870.15 887.607 1867.66 884.38C1865.02 881.153 1861.43 879.54 1856.88 879.54C1853.07 879.54 1849.91 880.86 1847.42 883.5C1844.93 885.993 1842.87 889.147 1841.26 892.96C1839.65 896.627 1837.81 901.907 1835.76 908.8C1832.68 918.773 1829.6 926.913 1826.52 933.22C1823.44 939.527 1818.89 944.953 1812.88 949.5C1806.87 954.047 1799.02 956.32 1789.34 956.32C1774.97 956.32 1763.75 951.113 1755.68 940.7C1747.47 930.287 1743.36 916.72 1743.36 900C1743.36 882.987 1747.47 869.273 1755.68 858.86C1763.75 848.447 1775.04 842.873 1789.56 842.14V882.84C1784.57 883.133 1780.69 884.967 1777.9 888.34C1774.97 891.713 1773.5 896.04 1773.5 901.32C1773.5 905.867 1774.75 909.533 1777.24 912.32C1779.59 915.107 1783.03 916.5 1787.58 916.5C1792.57 916.5 1796.45 914.153 1799.24 909.46C1802.03 904.767 1805.03 897.433 1808.26 887.46C1811.63 877.487 1814.86 869.42 1817.94 863.26C1821.02 856.953 1825.49 851.527 1831.36 846.98C1837.23 842.433 1844.78 840.16 1854.02 840.16C1862.82 840.16 1870.81 842.433 1878 846.98C1885.19 851.38 1890.91 857.833 1895.16 866.34C1899.41 874.847 1901.54 884.893 1901.54 896.48ZM1777.24 695.788H1900V733.408H1883.28C1888.71 737.222 1893.11 742.428 1896.48 749.028C1899.71 755.482 1901.32 762.668 1901.32 770.588C1901.32 779.975 1899.27 788.262 1895.16 795.448C1890.91 802.635 1884.82 808.208 1876.9 812.168C1868.98 816.128 1859.67 818.108 1848.96 818.108H1777.24V780.708H1843.9C1852.11 780.708 1858.49 778.582 1863.04 774.328C1867.59 770.075 1869.86 764.355 1869.86 757.168C1869.86 749.835 1867.59 744.042 1863.04 739.788C1858.49 735.535 1852.11 733.408 1843.9 733.408H1777.24V695.788ZM1794.62 631.146C1788.9 627.48 1784.28 622.42 1780.76 615.966C1777.24 609.513 1775.48 601.96 1775.48 593.306C1775.48 583.186 1778.05 574.02 1783.18 565.806C1788.31 557.593 1795.65 551.14 1805.18 546.446C1814.71 541.606 1825.79 539.186 1838.4 539.186C1851.01 539.186 1862.16 541.606 1871.84 546.446C1881.37 551.14 1888.78 557.593 1894.06 565.806C1899.19 574.02 1901.76 583.186 1901.76 593.306C1901.76 601.813 1900 609.366 1896.48 615.966C1892.96 622.42 1888.41 627.48 1882.84 631.146H1958.52V668.766H1777.24V631.146H1794.62ZM1838.4 577.466C1829.01 577.466 1821.68 580.106 1816.4 585.386C1810.97 590.52 1808.26 596.9 1808.26 604.526C1808.26 612.006 1810.97 618.386 1816.4 623.666C1821.83 628.8 1829.23 631.366 1838.62 631.366C1848.01 631.366 1855.41 628.8 1860.84 623.666C1866.27 618.386 1868.98 612.006 1868.98 604.526C1868.98 597.046 1866.27 590.666 1860.84 585.386C1855.27 580.106 1847.79 577.466 1838.4 577.466ZM1737.2 481.83H1900V519.45H1737.2V481.83ZM1836.64 338.847C1840.16 338.847 1843.83 339.067 1847.64 339.507V424.647C1855.27 424.06 1861.13 421.64 1865.24 417.387C1869.2 412.987 1871.18 407.634 1871.18 401.327C1871.18 391.94 1867.22 385.414 1859.3 381.747V341.707C1867.37 343.76 1874.63 347.5 1881.08 352.927C1887.53 358.207 1892.59 364.88 1896.26 372.947C1899.93 381.014 1901.76 390.034 1901.76 400.007C1901.76 412.034 1899.19 422.74 1894.06 432.127C1888.93 441.514 1881.59 448.847 1872.06 454.127C1862.53 459.407 1851.38 462.047 1838.62 462.047C1825.86 462.047 1814.71 459.48 1805.18 454.347C1795.65 449.067 1788.31 441.734 1783.18 432.347C1778.05 422.96 1775.48 412.18 1775.48 400.007C1775.48 388.127 1777.97 377.567 1782.96 368.327C1787.95 359.087 1795.06 351.9 1804.3 346.767C1813.54 341.487 1824.32 338.847 1836.64 338.847ZM1826.74 377.347C1820.29 377.347 1815.15 379.547 1811.34 383.947C1807.53 388.347 1805.62 393.847 1805.62 400.447C1805.62 406.754 1807.45 412.107 1811.12 416.507C1814.79 420.76 1819.99 423.4 1826.74 424.427V377.347ZM1836.64 203.281C1840.16 203.281 1843.83 203.501 1847.64 203.941V289.081C1855.27 288.494 1861.13 286.074 1865.24 281.821C1869.2 277.421 1871.18 272.067 1871.18 265.761C1871.18 256.374 1867.22 249.847 1859.3 246.181V206.141C1867.37 208.194 1874.63 211.934 1881.08 217.361C1887.53 222.641 1892.59 229.314 1896.26 237.381C1899.93 245.447 1901.76 254.467 1901.76 264.441C1901.76 276.467 1899.19 287.174 1894.06 296.561C1888.93 305.947 1881.59 313.281 1872.06 318.561C1862.53 323.841 1851.38 326.481 1838.62 326.481C1825.86 326.481 1814.71 323.914 1805.18 318.781C1795.65 313.501 1788.31 306.167 1783.18 296.781C1778.05 287.394 1775.48 276.614 1775.48 264.441C1775.48 252.561 1777.97 242.001 1782.96 232.761C1787.95 223.521 1795.06 216.334 1804.3 211.201C1813.54 205.921 1824.32 203.281 1836.64 203.281ZM1826.74 241.781C1820.29 241.781 1815.15 243.981 1811.34 248.381C1807.53 252.781 1805.62 258.281 1805.62 264.881C1805.62 271.187 1807.45 276.541 1811.12 280.941C1814.79 285.194 1819.99 287.834 1826.74 288.861V241.781Z" fill="#788B5B" fill-opacity="0.12"/>
</svg>
