<svg width="427" height="138" viewBox="0 0 427 138" fill="none" xmlns="http://www.w3.org/2000/svg">
<path d="M0.209146 72.6568C0.209146 72.6568 7.59433 72.6821 16.5 72.7127C25.4056 72.7432 38.1785 85.1948 47.5186 85.2269C56.8587 85.259 67.5984 57.2151 74.3312 57.4559C81.064 57.6967 85.9314 95.1543 91.5789 95.1737C97.2264 95.1931 97.7589 3.33402 101.886 3.34818C106.013 3.36235 105.774 73.0191 105.774 73.0191C105.774 73.0191 105.13 133.967 110.995 133.987C116.86 134.007 114 81.1015 119.667 75.4613C125.334 69.821 126.55 95.2938 131.329 95.3102C136.107 95.3266 144.898 65.5346 147.949 62.4976C151.001 59.4605 158.345 71.4581 163.335 73.2167C168.325 74.9752 180.495 73.0579 190.917 74.3997C201.339 75.7416 211.073 87.3121 220.853 85.8219C230.633 84.3317 239.399 61.7031 247.228 58.9201C255.058 56.1371 256.67 92.5741 264.476 96.6379C272.282 100.702 271.093 4.14645 275.22 4.16062C279.347 4.17478 278.507 46.4947 280.629 73.6193C282.491 97.4288 278.465 134.562 285.415 134.586C292.366 134.61 289.294 80.3971 293.435 76.2752C297.577 72.1532 300.967 96.9811 305.312 96.7781C309.657 96.575 313.872 70.9036 319.321 65.48C324.77 60.0565 330.367 74.661 341.225 75.5687C352.082 76.4765 423.548 75.8513 423.548 75.8513" stroke="#637427" stroke-opacity="0.5" stroke-width="5" stroke-linecap="round"/>
</svg>
