<svg width="48" height="48" viewBox="0 0 48 48" fill="none" xmlns="http://www.w3.org/2000/svg">
<path fill-rule="evenodd" clip-rule="evenodd" d="M31.8623 11.1876C29.2864 12.0997 28.6013 15.4222 30.6079 17.2718C30.8415 17.4871 31.2721 17.7755 31.5647 17.9128C32.0296 18.1306 32.2149 18.1621 33.0342 18.1621C33.8649 18.1621 34.0369 18.1321 34.544 17.8977C35.268 17.5631 35.99 16.8379 36.3344 16.0996C36.5667 15.6016 36.5967 15.4298 36.5967 14.5996C36.5967 13.7649 36.5672 13.5982 36.3273 13.0788C36.0429 12.4632 35.3366 11.7059 34.777 11.4165C33.8949 10.9604 32.7567 10.8709 31.8623 11.1876ZM39.2611 15.3481C39.1281 15.4203 37.6551 16.6998 35.9879 18.1912L32.9564 20.9029L32.544 20.5881C31.9933 20.1677 31.2543 19.9611 30.462 20.0058C29.306 20.0712 28.9917 20.2931 25.4303 23.5585C23.6827 25.1608 22.2026 26.4936 22.1411 26.5202C22.0796 26.5469 19.3374 24.1573 16.0474 21.2099C12.7573 18.2626 9.91584 15.7734 9.73293 15.6785C8.85009 15.2202 7.94372 15.3967 7.16109 16.1792C6.41934 16.921 6.27562 17.7712 6.75778 18.5649C6.91012 18.8158 21.1251 31.6472 22.2931 32.5882C23.0031 33.1602 23.8109 33.285 24.5855 32.9424C24.8656 32.8185 26.2424 31.6206 28.8212 29.2574C30.9226 27.3315 32.7555 25.6715 32.8943 25.5684C33.0333 25.4653 35.048 23.6804 37.3716 21.6018C42.1092 17.3641 42.0533 17.4286 41.7957 16.501C41.6708 16.0515 41.3075 15.6237 40.8543 15.3924C40.4291 15.1756 39.6199 15.153 39.2611 15.3481ZM0.392062 16.4046L0 16.7559L9.79078 25.9903C15.1757 31.0692 19.8241 35.4032 20.1204 35.6216C22.1323 37.1038 24.8634 36.9883 27.0404 35.3289C27.2948 35.1349 32.1121 30.9458 37.7455 26.0197L47.988 17.0632L47.5893 16.7069C47.2029 16.3617 47.1845 16.3558 47.0029 16.5167C44.0747 19.1124 26.5162 34.3911 26.1741 34.6411C25.9078 34.8359 25.4017 35.13 25.0495 35.2946C24.4477 35.576 24.3443 35.5942 23.3311 35.5968C22.1435 35.5999 21.7096 35.4708 20.8611 34.8618C20.6363 34.7004 16.0545 30.4129 10.6792 25.334C5.30409 20.2551 0.878718 16.0892 0.84525 16.0765C0.811687 16.0637 0.607781 16.2114 0.392062 16.4046Z" fill="#6D7466"/>
</svg>
