<svg width="48" height="48" viewBox="0 0 48 48" fill="none" xmlns="http://www.w3.org/2000/svg">
<path fill-rule="evenodd" clip-rule="evenodd" d="M15.3388 3.46911C15.2117 3.52166 13.8626 4.95243 13.2528 5.68138C12.5811 6.48437 11.2165 8.33558 11.2626 8.38117C11.3501 8.46768 12.2171 8.79326 13.0076 9.03656C14.606 9.52838 16.3012 9.88865 18.7221 10.2509C19.4071 10.3533 20.2878 10.49 20.6792 10.5545C25.8152 11.4008 28.286 11.7304 31.1379 11.9497C32.0036 12.0162 32.7582 12.1897 33.2133 12.4266C34.3276 13.0069 35.0356 14.2368 35.8123 16.9416C35.8801 17.1778 35.9174 17.5166 35.9188 17.9102C35.9208 18.4461 35.904 18.5465 35.7727 18.7852C35.5774 19.1404 35.2071 19.4202 34.7176 19.5826C34.3675 19.6987 34.1952 19.7139 33.2819 19.7096C31.8505 19.7027 31.0085 19.6218 30.6277 19.4546C30.3073 19.3139 29.9088 18.9288 29.6492 18.5091C29.4454 18.1796 28.705 17.4321 28.176 17.0218C26.8874 16.0224 25.1607 15.3171 22.6364 14.7592C21.1782 14.4369 19.9218 14.2225 16.6168 13.7321C15.8176 13.6135 14.67 13.4349 14.0666 13.3351C13.4631 13.2353 12.7159 13.1131 12.406 13.0635C12.0961 13.0139 11.6825 12.9468 11.4867 12.9144C10.0295 12.6731 9.60074 12.6111 9.57452 12.6379C9.52233 12.6912 9.20807 14.0013 9.02867 14.9135C8.65866 16.7955 8.39012 18.8098 8.16523 21.3912C8.11446 21.9739 8.05651 22.5558 8.03647 22.6845L8 22.9183L8.23106 22.8817C9.32473 22.7085 12.4366 22.3869 15.0155 22.1806C18.2968 21.9182 23.1501 21.7256 25.4933 21.7647C26.665 21.7843 26.6927 21.7877 26.8425 21.9314C26.9689 22.0528 26.9954 22.1329 26.9954 22.3943C26.9954 22.668 26.9309 22.8433 26.5146 23.7005C25.1625 26.4851 24.4406 28.8138 24.0213 31.7433C23.9081 32.5343 23.8869 32.9384 23.8861 34.3162C23.8851 35.8611 23.8956 36.0206 24.0775 37.2221C24.1833 37.9213 24.4765 39.5967 24.729 40.9452L25.1881 43.397L28.1166 43.4128L31.0452 43.4285L31.0055 43.0496C30.7896 40.9901 30.5778 38.5238 30.1674 33.2871C29.68 27.0673 29.6203 26.4547 29.4568 25.9921C29.3803 25.7757 29.2347 25.3671 29.1333 25.0841C28.9579 24.5943 28.9501 24.5345 28.9719 23.843C28.9894 23.2905 29.0275 23.0182 29.1313 22.706C29.2063 22.4803 29.2969 22.3043 29.3325 22.315C29.4261 22.3431 29.7099 22.9552 29.7559 23.2284C29.8177 23.5952 30.1158 24.1112 30.5139 24.5404C31.2614 25.3463 31.2217 25.2688 31.2733 26.0188C31.2987 26.387 31.3619 27.6282 31.4137 28.7769C31.4656 29.9257 31.5719 31.6283 31.6499 32.5606C31.7279 33.4929 31.8082 34.5009 31.8284 34.8005C31.8485 35.1002 31.89 35.6587 31.9205 36.0416C31.9711 36.6761 32.0498 37.8478 32.3028 41.7358C32.3514 42.483 32.3914 43.1692 32.3917 43.2608C32.3922 43.4146 32.4104 43.4273 32.6295 43.4273C32.8577 43.4273 32.8667 43.4199 32.8662 43.2306C32.8656 43.0379 32.7451 39.5624 32.6306 36.4351C32.5989 35.5694 32.5723 34.1311 32.5715 33.2389C32.5701 31.4797 32.432 28.0729 32.3306 27.2937C32.1802 26.1373 31.835 25.3176 31.151 24.4922C30.0996 23.2237 29.7828 22.6437 29.7362 21.9025C29.6642 20.7577 30.1035 20.2605 31.3219 20.1073C32.1371 20.0049 35.0728 20.2465 35.9463 20.488C36.8213 20.7298 37.4778 21.1817 37.8137 21.7732C38.1931 22.4414 38.178 23.7744 37.7677 25.8408C37.6222 26.5733 37.4687 27.4451 37.4266 27.778C37.3406 28.4575 37.3291 30.608 37.3702 38.3118C37.3843 40.9755 37.3759 43.2162 37.3514 43.2911L37.3067 43.4273H38.3692H39.4316L39.4681 40.9906C39.5021 38.7184 39.5498 37.5134 39.7746 33.2568C40.0761 27.5463 40.0752 23.6733 39.7717 20.5134C39.3371 15.9879 38.6735 14.0316 37.1839 12.8848C36.6992 12.5117 34.8924 11.6306 30.1676 9.46324C28.178 8.55062 25.876 7.59816 23.2257 6.59122C19.8357 5.30313 18.5714 4.78183 16.8179 3.94924C15.6881 3.41275 15.5687 3.37401 15.3388 3.46911Z" fill="#98602F"/>
</svg>
