<svg width="43" height="43" viewBox="0 0 43 43" fill="none" xmlns="http://www.w3.org/2000/svg">
<path d="M37.0698 8.66835C36.176 7.77411 35.1147 7.06473 33.9467 6.58075C32.7786 6.09676 31.5267 5.84766 30.2623 5.84766C28.998 5.84766 27.746 6.09676 26.5779 6.58075C25.4099 7.06473 24.3486 7.77411 23.4548 8.66835L21.5998 10.5234L19.7448 8.66835C17.9394 6.86289 15.4906 5.84859 12.9373 5.84859C10.384 5.84859 7.93528 6.86289 6.12982 8.66835C4.32436 10.4738 3.31006 12.9225 3.31006 15.4759C3.31006 18.0292 4.32436 20.4779 6.12982 22.2834L7.98482 24.1384L21.5998 37.7533L35.2148 24.1384L37.0698 22.2834C37.9641 21.3895 38.6734 20.3283 39.1574 19.1602C39.6414 17.9922 39.8905 16.7402 39.8905 15.4759C39.8905 14.2115 39.6414 12.9595 39.1574 11.7915C38.6734 10.6234 37.9641 9.56217 37.0698 8.66835V8.66835Z" stroke="#01AA08" stroke-width="3" stroke-linecap="round" stroke-linejoin="round"/>
</svg>
