<svg width="48" height="48" viewBox="0 0 48 48" fill="none" xmlns="http://www.w3.org/2000/svg">
<path d="M18.7878 45.0001C17.7589 41.6447 16.2067 39.1433 14.1312 37.4958C11.0178 35.0246 6.07108 36.5605 4.24382 34.0116C2.41655 31.4626 5.52402 26.7752 6.61447 24.0094C7.70492 21.2437 2.43488 20.2657 3.05015 19.4805C3.46035 18.9571 6.12346 17.4465 11.0396 14.949C12.4364 6.983 17.5959 3 26.5182 3C39.9014 3 45.0001 14.3463 45.0001 21.5629C45.0001 28.7795 38.8262 36.5541 30.0314 38.2304C29.2449 39.3757 30.3792 41.6323 33.4341 45.0001" stroke="#2B3E0F" stroke-width="2" stroke-linecap="round" stroke-linejoin="round"/>
<path fill-rule="evenodd" clip-rule="evenodd" d="M19.2774 14.0249C18.5914 16.6858 18.7955 18.5544 19.8897 19.6303C20.9839 20.7064 22.8488 21.41 25.4844 21.7413C24.8865 25.1734 25.6156 26.7836 27.6716 26.5717C29.7277 26.3598 30.963 25.5054 31.3778 24.0086C34.5911 24.9118 36.3327 24.156 36.6024 21.7413C37.0072 18.1192 35.054 15.2298 34.2532 15.2298C33.4524 15.2298 31.3778 15.1323 31.3778 14.0249C31.3778 12.9174 28.9544 12.2917 26.7672 12.2917C24.5801 12.2917 25.8964 10.8174 22.893 11.3999C20.8908 11.7882 19.6856 12.6632 19.2774 14.0249Z" stroke="#2B3E0F" stroke-width="2" stroke-linejoin="round"/>
</svg>
