<svg width="48" height="48" viewBox="0 0 48 48" fill="none" xmlns="http://www.w3.org/2000/svg">
<g clip-path="url(#clip0_367_3421)">
<path d="M46.4997 29C46.4997 29 40.9997 23 36.9997 22.5C32.9997 22 31.4997 23.5 29.4997 24M26.9997 26.5C26.9997 26.5 28.1329 24.5467 29.4997 24M29.4997 24C26.5708 22.5941 25.7059 21.7706 22.9997 21.5C20.4442 21.2445 16.4997 22.5 16.4997 22.5M16.4997 22.5C16.4997 22.5 17.9997 16.5 17.9997 14C17.9997 11.5 21.9997 8.99999 21.9997 8.99999L22.9997 8.49999M16.4997 22.5L15.4997 25M22.9997 8.49999L22.4997 6.49999M22.9997 8.49999C22.9997 8.49999 23.9728 10.2867 24.9997 11C26.014 11.7045 26.88 11.479 27.9997 12C29.032 12.4804 29.3962 13.2195 30.4997 13.5C31.4459 13.7406 32.4781 13.8253 32.9997 13C33.4252 12.3267 32.9997 11.5 32.9997 11.5M30.9997 6.49999C30.9997 6.49999 29.4997 6.49999 29.4997 8.49999C29.4997 10.5 32.4997 11 32.4997 11L32.9997 11.5M32.9997 11.5C32.9997 11.5 34.1045 10.3928 34.4997 9.5C35.211 7.89302 35.0375 6.67305 34.4997 4.99999C34.2325 4.16865 33.9997 3.49999 33.4997 2.99999C32.9997 2.49999 27.1704 1.17169 22.9997 0.999994C21.8291 0.951805 20.9997 0.999993 19.9997 0.999994C18.9997 0.999995 17.3233 4.10909 15.4997 5.99999C12.7185 8.88383 10.4997 10.5 7.99968 13C5.49968 15.5 4.69561 18.0423 2.99968 21.5C2.15281 23.2266 0.522274 23.6572 1.00006 27C1.47785 30.3428 7.74403 32.5724 12.4997 35.5C19.0541 39.5349 30.1769 38.6682 30.9997 39C31.8225 39.3317 34.9885 47.1576 36.5 47M37.4997 37C37.4997 37 39.2512 39.8814 40.9997 41C42.717 42.0986 45.9997 42.5 45.9997 42.5M29.9997 32C29.9997 32 24.5215 34.0412 20.9997 33.5C17.5473 32.9694 12.9997 29.5 12.9997 29.5" stroke="#637427" stroke-width="2" stroke-linecap="round"/>
</g>
<defs>
<clipPath id="clip0_367_3421">
<rect width="48" height="48" fill="white"/>
</clipPath>
</defs>
</svg>
