<svg width="48" height="48" viewBox="0 0 48 48" fill="none" xmlns="http://www.w3.org/2000/svg">
<path d="M19.036 44.0001C18.0561 40.8045 16.5778 38.4222 14.6011 36.8532C11.636 34.4997 6.92483 35.9624 5.18458 33.5349C3.44433 31.1073 6.40382 26.6431 7.44234 24.009C8.48086 21.375 3.46179 20.4436 4.04776 19.6958C4.43842 19.1973 6.97471 17.7587 11.6567 15.3801C12.987 7.79344 17.9008 4.00012 26.3982 4.00012C39.1441 4.00012 44 14.8061 44 21.679C44 28.552 38.1201 35.9563 29.7441 37.5528C28.9951 38.6436 30.0754 40.7927 32.9848 44.0001" stroke="#2B3E0F" stroke-width="2" stroke-linecap="round" stroke-linejoin="round"/>
<path fill-rule="evenodd" clip-rule="evenodd" d="M19.5007 14.5C18.8474 17.0342 19.0418 18.8138 20.0839 19.8385C21.126 20.8633 22.9021 21.5334 25.4122 21.8489C24.8427 25.1176 25.5371 26.6511 27.4952 26.4493C29.4534 26.2475 30.6299 25.4338 31.0249 24.0083C34.0852 24.8684 35.7438 24.1486 36.0007 21.8489C36.3862 18.3993 34.526 15.6475 33.7634 15.6475C33.0007 15.6475 31.0249 15.5547 31.0249 14.5C31.0249 13.4452 28.7169 12.8493 26.6339 12.8493C24.5509 12.8493 25.8045 11.4452 22.9442 12C21.0373 12.3698 19.8895 13.2031 19.5007 14.5Z" fill="#788B5B" stroke="#2B3E0F" stroke-width="2" stroke-linejoin="round"/>
</svg>
