<svg width="56" height="56" viewBox="0 0 56 56" fill="none" xmlns="http://www.w3.org/2000/svg">
<path d="M16.1875 14C15.9469 14 15.75 14.1969 15.75 14.4375V17.0625C15.75 17.3031 15.9469 17.5 16.1875 17.5H37.1875C37.4281 17.5 37.625 17.3031 37.625 17.0625V14.4375C37.625 14.1969 37.4281 14 37.1875 14H16.1875ZM26.6875 24.9375V22.3125C26.6875 22.0719 26.4906 21.875 26.25 21.875H16.1875C15.9469 21.875 15.75 22.0719 15.75 22.3125V24.9375C15.75 25.1781 15.9469 25.375 16.1875 25.375H26.25C26.4906 25.375 26.6875 25.1781 26.6875 24.9375ZM24.0625 46.5938H11.375V8.09375H42V26.9062C42 27.1469 42.1969 27.3438 42.4375 27.3438H45.5C45.7406 27.3438 45.9375 27.1469 45.9375 26.9062V5.90625C45.9375 4.93828 45.1555 4.15625 44.1875 4.15625H9.1875C8.21953 4.15625 7.4375 4.93828 7.4375 5.90625V48.7812C7.4375 49.7492 8.21953 50.5312 9.1875 50.5312H24.0625C24.3031 50.5312 24.5 50.3344 24.5 50.0938V47.0312C24.5 46.7906 24.3031 46.5938 24.0625 46.5938ZM29.7555 40.2719C29.8539 38.3852 30.6414 36.6188 31.9867 35.2734C33.4195 33.8406 35.3773 33.0312 37.4062 33.0312C39.4516 33.0312 41.3766 33.8297 42.8258 35.2734C43.0008 35.4484 43.1703 35.6344 43.3289 35.8258L42.0656 36.8047C42.0005 36.8551 41.9509 36.9228 41.9225 37.0002C41.8942 37.0775 41.8882 37.1612 41.9054 37.2418C41.9225 37.3223 41.9621 37.3964 42.0194 37.4555C42.0768 37.5146 42.1497 37.5563 42.2297 37.5758L47.332 38.8062C47.6055 38.8719 47.868 38.6641 47.8734 38.3852L47.9062 33.168C47.907 33.0858 47.8846 33.005 47.8417 32.935C47.7987 32.8649 47.7368 32.8084 47.6632 32.7719C47.5896 32.7353 47.5071 32.7203 47.4254 32.7284C47.3436 32.7366 47.2657 32.7676 47.2008 32.818L46.0906 33.682C44.0453 31.15 40.9117 29.5312 37.4062 29.5312C31.3961 29.5312 26.4906 34.2836 26.25 40.2336C26.2391 40.4797 26.4414 40.6875 26.6875 40.6875H29.318C29.5531 40.6875 29.7445 40.507 29.7555 40.2719ZM48.125 40.6875H45.4945C45.2594 40.6875 45.068 40.868 45.057 41.1031C44.9586 42.9898 44.1711 44.7562 42.8258 46.1016C41.393 47.5344 39.4352 48.3438 37.4062 48.3438C35.3609 48.3438 33.4359 47.5453 31.9867 46.1016C31.8117 45.9266 31.6422 45.7406 31.4836 45.5492L32.7469 44.5703C32.812 44.5199 32.8616 44.4522 32.8899 44.3748C32.9183 44.2975 32.9242 44.2138 32.9071 44.1332C32.89 44.0527 32.8504 43.9786 32.7931 43.9195C32.7357 43.8604 32.6628 43.8187 32.5828 43.7992L27.4805 42.5688C27.207 42.5031 26.9445 42.7109 26.9391 42.9898L26.9062 48.207C26.9055 48.2892 26.9278 48.37 26.9708 48.44C27.0138 48.5101 27.0757 48.5666 27.1493 48.6031C27.2229 48.6397 27.3053 48.6547 27.3871 48.6466C27.4689 48.6384 27.5467 48.6074 27.6117 48.557L28.7219 47.693C30.7672 50.225 33.9008 51.8438 37.4062 51.8438C43.4164 51.8438 48.3219 47.0914 48.5625 41.1414C48.5734 40.8953 48.3711 40.6875 48.125 40.6875Z" fill="#3E5915"/>
</svg>
