<svg width="48" height="48" viewBox="0 0 48 48" fill="none" xmlns="http://www.w3.org/2000/svg">
<mask id="path-1-outside-1_138_244" maskUnits="userSpaceOnUse" x="4" y="0" width="40" height="47" fill="black">
<rect fill="white" x="4" width="40" height="47"/>
<path fill-rule="evenodd" clip-rule="evenodd" d="M24.6317 1.16308C24.0522 1.43473 23.6131 1.81771 22.9175 2.65783C22.571 3.07629 21.3872 4.3324 20.2868 5.4492C17.3785 8.40072 15.1237 11.0192 13.8629 12.9092C11.7182 16.1243 9.69786 20.0215 8.58817 23.0843C7.60459 25.7987 7.2602 27.4842 6.54784 33.0707C6.30676 34.9619 6.19612 35.585 6.0701 35.7634C5.49842 36.5728 5 38.0407 5 38.9152C5 39.9318 5.52873 40.9784 6.35245 41.5921C7.19737 42.2217 7.81103 42.455 9.63953 42.8422C10.3678 42.9964 12.0219 43.4836 13.6605 44.0264C16.0173 44.8071 16.6542 44.9827 17.814 45.1719C21.121 45.7114 23.3978 45.9261 26.4744 45.9886C31.4766 46.0902 34.6181 45.5174 36.7217 44.1203C37.6198 43.5239 37.7845 43.1033 37.3186 42.5948C37.0283 42.278 36.6816 42.3393 35.9337 42.8396C34.8694 43.5515 33.5457 43.992 31.5116 44.3114C30.6782 44.4422 29.9547 44.4709 27.4907 44.4709C24.3863 44.4709 23.4966 44.4147 20.4114 44.0239C17.4199 43.645 16.9073 43.528 14.0581 42.5733C12.428 42.027 10.8794 41.5701 10.0372 41.3868C8.44642 41.0407 7.85106 40.8308 7.29034 40.4184C6.73793 40.0121 6.54554 39.5966 6.55049 38.8207C6.55491 38.1217 6.7723 37.5036 7.36537 36.5039L7.7193 35.9073L8.03938 33.3471C8.77658 27.449 9.14439 25.7597 10.3647 22.6646C11.5676 19.6136 13.9247 15.3172 15.7644 12.8217C16.9405 11.2266 19.1234 8.7671 21.5243 6.33204C22.6254 5.21525 23.8138 3.95384 24.1653 3.52902C24.9314 2.60256 25.1795 2.45195 25.8281 2.51878C26.732 2.61201 29.973 3.79272 32.4125 4.91764C35.1693 6.18885 35.4884 6.43145 35.4884 7.25603C35.4884 8.40055 34.7248 9.80912 33.0331 11.7851C31.4841 13.5945 30.213 14.2631 29.4851 13.6512C28.9753 13.2226 28.3351 11.5736 28.3316 10.68C28.3309 10.498 28.3655 10.349 28.4085 10.349C28.4516 10.349 28.7251 10.5079 29.0162 10.7021C29.6247 11.1081 29.9004 11.1404 30.243 10.846C30.4291 10.6861 30.4865 10.5578 30.4865 10.3023C30.4865 10.0221 30.428 9.91595 30.126 9.64827C29.5709 9.15608 28.8699 8.84815 28.3047 8.84815C27.6587 8.84815 27.2861 9.10064 27.0457 9.70124L26.866 10.1505L26.0388 9.76419C24.9374 9.24975 24.4932 9.25726 24.2799 9.79385C24.0412 10.3943 22.6877 16.1383 22.464 17.5C22.3106 18.4339 22.1657 19.7575 21.8309 23.2826C21.7064 24.5937 21.5478 26.0746 21.4785 26.5737C21.3545 27.4663 21.3448 27.4908 20.8805 28.0745C20.6209 28.4009 20.1758 29.0222 19.8913 29.455C19.2334 30.4561 18.3935 31.3463 17.6852 31.7932C17.1007 32.1619 17.0186 32.2732 17.0186 32.6964C17.0186 33.0206 17.3916 33.3916 17.7164 33.3904C18.446 33.3878 20.1189 31.852 21.2257 30.1688C22.6961 27.9328 24.2968 26.6817 26.2037 26.2778C26.964 26.1167 28.471 26.1189 29.4088 26.2822C30.8067 26.5258 32.9377 27.3877 34.3191 28.2683L34.8731 28.6215L34.5746 29.2186C34.1585 30.0509 33.7801 31.2326 33.846 31.4946C33.9715 31.9942 34.5974 32.23 35.0175 31.9361C35.1329 31.8553 35.2942 31.5274 35.4385 31.0804C35.9566 29.4761 36.6767 28.2383 37.7355 27.1324C38.9164 25.8989 40.3632 24.9846 41.8756 24.516C42.7238 24.2531 43 24.0222 43 23.5757C43 23.2129 42.6488 22.8854 42.2599 22.8854C41.8999 22.8854 40.6177 23.3222 39.8628 23.7021C38.543 24.3662 36.9339 25.6808 35.9236 26.9206L35.6209 27.2919L34.9581 26.8895C33.3091 25.8884 31.165 25.053 29.5393 24.7784C28.4297 24.5908 26.4482 24.6363 25.5639 24.8695C25.2332 24.9567 24.5473 25.2323 24.0395 25.4821C23.2548 25.868 23.1163 25.9121 23.1163 25.7756C23.1163 25.3179 23.766 18.9785 23.9102 18.0287C24.0615 17.0325 24.752 13.9131 25.2619 11.9221L25.4581 11.1557L26.2189 11.51L26.9797 11.8644L27.1268 12.3929C27.4888 13.6938 28.2346 14.7505 29.0837 15.1654C29.5043 15.371 29.6488 15.3962 30.2523 15.3686C30.8084 15.3431 31.0513 15.2827 31.5136 15.0549C32.2982 14.6682 33.1196 13.968 34.093 12.8562C37.002 9.53315 37.7293 7.02252 36.2645 5.36012C35.9497 5.00275 35.6347 4.81523 34.0362 4.03338C31.9686 3.02226 29.7002 2.09378 27.7837 1.47437C26.2147 0.96718 25.2521 0.872186 24.6317 1.16308ZM31.5039 16.3772C31.1816 16.6245 31.1581 16.8278 31.1581 19.3769C31.1581 21.8636 31.1597 21.8849 31.357 22.0653C31.6352 22.3196 31.8935 22.3791 32.1709 22.2529C32.6319 22.043 32.6605 21.869 32.6605 19.2643C32.6605 16.8316 32.6355 16.6234 32.3147 16.3772C32.1342 16.2388 31.6844 16.2388 31.5039 16.3772ZM26.4099 17.2155C26.1512 17.2568 25.8558 17.6398 25.8558 17.9337C25.8558 18.062 25.9237 18.2653 26.0066 18.3852C26.4497 19.0268 29.326 22.5387 29.4724 22.617C29.7619 22.7717 30.0112 22.7205 30.2812 22.4507C30.7585 21.9739 30.7185 21.8935 28.8179 19.5052C27.0754 17.3158 26.8894 17.1388 26.4099 17.2155ZM35.6209 19.8426C34.5516 20.6939 33.5873 21.4906 33.4779 21.6131C33.0618 22.0791 33.3769 22.8048 34.003 22.8225C34.2926 22.8307 34.5194 22.675 36.2966 21.2473C37.3814 20.376 38.3393 19.5935 38.4252 19.5085C38.5204 19.4143 38.5814 19.2221 38.5814 19.0162C38.5814 18.5826 38.2968 18.2945 37.8688 18.2948C37.6084 18.2948 37.288 18.5155 35.6209 19.8426ZM19.2433 35.9792C19.1149 36.1157 19.0512 36.296 19.0512 36.5226C19.0512 36.9192 19.3393 37.231 20.4999 38.0908C23.8164 40.5473 28.2303 40.7159 32.7047 38.5572C33.9321 37.9649 34.1304 37.8123 34.2138 37.3963C34.2858 37.0363 33.9062 36.5694 33.5412 36.5694C33.4024 36.5694 32.879 36.7833 32.3781 37.0446C31.2908 37.6119 30.5218 37.9071 29.3728 38.1982C26.0205 39.0478 23.0751 38.3992 20.6425 36.2757C19.978 35.6957 19.5877 35.613 19.2433 35.9792Z"/>
</mask>
<path fill-rule="evenodd" clip-rule="evenodd" d="M24.6317 1.16308C24.0522 1.43473 23.6131 1.81771 22.9175 2.65783C22.571 3.07629 21.3872 4.3324 20.2868 5.4492C17.3785 8.40072 15.1237 11.0192 13.8629 12.9092C11.7182 16.1243 9.69786 20.0215 8.58817 23.0843C7.60459 25.7987 7.2602 27.4842 6.54784 33.0707C6.30676 34.9619 6.19612 35.585 6.0701 35.7634C5.49842 36.5728 5 38.0407 5 38.9152C5 39.9318 5.52873 40.9784 6.35245 41.5921C7.19737 42.2217 7.81103 42.455 9.63953 42.8422C10.3678 42.9964 12.0219 43.4836 13.6605 44.0264C16.0173 44.8071 16.6542 44.9827 17.814 45.1719C21.121 45.7114 23.3978 45.9261 26.4744 45.9886C31.4766 46.0902 34.6181 45.5174 36.7217 44.1203C37.6198 43.5239 37.7845 43.1033 37.3186 42.5948C37.0283 42.278 36.6816 42.3393 35.9337 42.8396C34.8694 43.5515 33.5457 43.992 31.5116 44.3114C30.6782 44.4422 29.9547 44.4709 27.4907 44.4709C24.3863 44.4709 23.4966 44.4147 20.4114 44.0239C17.4199 43.645 16.9073 43.528 14.0581 42.5733C12.428 42.027 10.8794 41.5701 10.0372 41.3868C8.44642 41.0407 7.85106 40.8308 7.29034 40.4184C6.73793 40.0121 6.54554 39.5966 6.55049 38.8207C6.55491 38.1217 6.7723 37.5036 7.36537 36.5039L7.7193 35.9073L8.03938 33.3471C8.77658 27.449 9.14439 25.7597 10.3647 22.6646C11.5676 19.6136 13.9247 15.3172 15.7644 12.8217C16.9405 11.2266 19.1234 8.7671 21.5243 6.33204C22.6254 5.21525 23.8138 3.95384 24.1653 3.52902C24.9314 2.60256 25.1795 2.45195 25.8281 2.51878C26.732 2.61201 29.973 3.79272 32.4125 4.91764C35.1693 6.18885 35.4884 6.43145 35.4884 7.25603C35.4884 8.40055 34.7248 9.80912 33.0331 11.7851C31.4841 13.5945 30.213 14.2631 29.4851 13.6512C28.9753 13.2226 28.3351 11.5736 28.3316 10.68C28.3309 10.498 28.3655 10.349 28.4085 10.349C28.4516 10.349 28.7251 10.5079 29.0162 10.7021C29.6247 11.1081 29.9004 11.1404 30.243 10.846C30.4291 10.6861 30.4865 10.5578 30.4865 10.3023C30.4865 10.0221 30.428 9.91595 30.126 9.64827C29.5709 9.15608 28.8699 8.84815 28.3047 8.84815C27.6587 8.84815 27.2861 9.10064 27.0457 9.70124L26.866 10.1505L26.0388 9.76419C24.9374 9.24975 24.4932 9.25726 24.2799 9.79385C24.0412 10.3943 22.6877 16.1383 22.464 17.5C22.3106 18.4339 22.1657 19.7575 21.8309 23.2826C21.7064 24.5937 21.5478 26.0746 21.4785 26.5737C21.3545 27.4663 21.3448 27.4908 20.8805 28.0745C20.6209 28.4009 20.1758 29.0222 19.8913 29.455C19.2334 30.4561 18.3935 31.3463 17.6852 31.7932C17.1007 32.1619 17.0186 32.2732 17.0186 32.6964C17.0186 33.0206 17.3916 33.3916 17.7164 33.3904C18.446 33.3878 20.1189 31.852 21.2257 30.1688C22.6961 27.9328 24.2968 26.6817 26.2037 26.2778C26.964 26.1167 28.471 26.1189 29.4088 26.2822C30.8067 26.5258 32.9377 27.3877 34.3191 28.2683L34.8731 28.6215L34.5746 29.2186C34.1585 30.0509 33.7801 31.2326 33.846 31.4946C33.9715 31.9942 34.5974 32.23 35.0175 31.9361C35.1329 31.8553 35.2942 31.5274 35.4385 31.0804C35.9566 29.4761 36.6767 28.2383 37.7355 27.1324C38.9164 25.8989 40.3632 24.9846 41.8756 24.516C42.7238 24.2531 43 24.0222 43 23.5757C43 23.2129 42.6488 22.8854 42.2599 22.8854C41.8999 22.8854 40.6177 23.3222 39.8628 23.7021C38.543 24.3662 36.9339 25.6808 35.9236 26.9206L35.6209 27.2919L34.9581 26.8895C33.3091 25.8884 31.165 25.053 29.5393 24.7784C28.4297 24.5908 26.4482 24.6363 25.5639 24.8695C25.2332 24.9567 24.5473 25.2323 24.0395 25.4821C23.2548 25.868 23.1163 25.9121 23.1163 25.7756C23.1163 25.3179 23.766 18.9785 23.9102 18.0287C24.0615 17.0325 24.752 13.9131 25.2619 11.9221L25.4581 11.1557L26.2189 11.51L26.9797 11.8644L27.1268 12.3929C27.4888 13.6938 28.2346 14.7505 29.0837 15.1654C29.5043 15.371 29.6488 15.3962 30.2523 15.3686C30.8084 15.3431 31.0513 15.2827 31.5136 15.0549C32.2982 14.6682 33.1196 13.968 34.093 12.8562C37.002 9.53315 37.7293 7.02252 36.2645 5.36012C35.9497 5.00275 35.6347 4.81523 34.0362 4.03338C31.9686 3.02226 29.7002 2.09378 27.7837 1.47437C26.2147 0.96718 25.2521 0.872186 24.6317 1.16308ZM31.5039 16.3772C31.1816 16.6245 31.1581 16.8278 31.1581 19.3769C31.1581 21.8636 31.1597 21.8849 31.357 22.0653C31.6352 22.3196 31.8935 22.3791 32.1709 22.2529C32.6319 22.043 32.6605 21.869 32.6605 19.2643C32.6605 16.8316 32.6355 16.6234 32.3147 16.3772C32.1342 16.2388 31.6844 16.2388 31.5039 16.3772ZM26.4099 17.2155C26.1512 17.2568 25.8558 17.6398 25.8558 17.9337C25.8558 18.062 25.9237 18.2653 26.0066 18.3852C26.4497 19.0268 29.326 22.5387 29.4724 22.617C29.7619 22.7717 30.0112 22.7205 30.2812 22.4507C30.7585 21.9739 30.7185 21.8935 28.8179 19.5052C27.0754 17.3158 26.8894 17.1388 26.4099 17.2155ZM35.6209 19.8426C34.5516 20.6939 33.5873 21.4906 33.4779 21.6131C33.0618 22.0791 33.3769 22.8048 34.003 22.8225C34.2926 22.8307 34.5194 22.675 36.2966 21.2473C37.3814 20.376 38.3393 19.5935 38.4252 19.5085C38.5204 19.4143 38.5814 19.2221 38.5814 19.0162C38.5814 18.5826 38.2968 18.2945 37.8688 18.2948C37.6084 18.2948 37.288 18.5155 35.6209 19.8426ZM19.2433 35.9792C19.1149 36.1157 19.0512 36.296 19.0512 36.5226C19.0512 36.9192 19.3393 37.231 20.4999 38.0908C23.8164 40.5473 28.2303 40.7159 32.7047 38.5572C33.9321 37.9649 34.1304 37.8123 34.2138 37.3963C34.2858 37.0363 33.9062 36.5694 33.5412 36.5694C33.4024 36.5694 32.879 36.7833 32.3781 37.0446C31.2908 37.6119 30.5218 37.9071 29.3728 38.1982C26.0205 39.0478 23.0751 38.3992 20.6425 36.2757C19.978 35.6957 19.5877 35.613 19.2433 35.9792Z" fill="#637427" />
<path fill-rule="evenodd" clip-rule="evenodd" d="M24.6317 1.16308C24.0522 1.43473 23.6131 1.81771 22.9175 2.65783C22.571 3.07629 21.3872 4.3324 20.2868 5.4492C17.3785 8.40072 15.1237 11.0192 13.8629 12.9092C11.7182 16.1243 9.69786 20.0215 8.58817 23.0843C7.60459 25.7987 7.2602 27.4842 6.54784 33.0707C6.30676 34.9619 6.19612 35.585 6.0701 35.7634C5.49842 36.5728 5 38.0407 5 38.9152C5 39.9318 5.52873 40.9784 6.35245 41.5921C7.19737 42.2217 7.81103 42.455 9.63953 42.8422C10.3678 42.9964 12.0219 43.4836 13.6605 44.0264C16.0173 44.8071 16.6542 44.9827 17.814 45.1719C21.121 45.7114 23.3978 45.9261 26.4744 45.9886C31.4766 46.0902 34.6181 45.5174 36.7217 44.1203C37.6198 43.5239 37.7845 43.1033 37.3186 42.5948C37.0283 42.278 36.6816 42.3393 35.9337 42.8396C34.8694 43.5515 33.5457 43.992 31.5116 44.3114C30.6782 44.4422 29.9547 44.4709 27.4907 44.4709C24.3863 44.4709 23.4966 44.4147 20.4114 44.0239C17.4199 43.645 16.9073 43.528 14.0581 42.5733C12.428 42.027 10.8794 41.5701 10.0372 41.3868C8.44642 41.0407 7.85106 40.8308 7.29034 40.4184C6.73793 40.0121 6.54554 39.5966 6.55049 38.8207C6.55491 38.1217 6.7723 37.5036 7.36537 36.5039L7.7193 35.9073L8.03938 33.3471C8.77658 27.449 9.14439 25.7597 10.3647 22.6646C11.5676 19.6136 13.9247 15.3172 15.7644 12.8217C16.9405 11.2266 19.1234 8.7671 21.5243 6.33204C22.6254 5.21525 23.8138 3.95384 24.1653 3.52902C24.9314 2.60256 25.1795 2.45195 25.8281 2.51878C26.732 2.61201 29.973 3.79272 32.4125 4.91764C35.1693 6.18885 35.4884 6.43145 35.4884 7.25603C35.4884 8.40055 34.7248 9.80912 33.0331 11.7851C31.4841 13.5945 30.213 14.2631 29.4851 13.6512C28.9753 13.2226 28.3351 11.5736 28.3316 10.68C28.3309 10.498 28.3655 10.349 28.4085 10.349C28.4516 10.349 28.7251 10.5079 29.0162 10.7021C29.6247 11.1081 29.9004 11.1404 30.243 10.846C30.4291 10.6861 30.4865 10.5578 30.4865 10.3023C30.4865 10.0221 30.428 9.91595 30.126 9.64827C29.5709 9.15608 28.8699 8.84815 28.3047 8.84815C27.6587 8.84815 27.2861 9.10064 27.0457 9.70124L26.866 10.1505L26.0388 9.76419C24.9374 9.24975 24.4932 9.25726 24.2799 9.79385C24.0412 10.3943 22.6877 16.1383 22.464 17.5C22.3106 18.4339 22.1657 19.7575 21.8309 23.2826C21.7064 24.5937 21.5478 26.0746 21.4785 26.5737C21.3545 27.4663 21.3448 27.4908 20.8805 28.0745C20.6209 28.4009 20.1758 29.0222 19.8913 29.455C19.2334 30.4561 18.3935 31.3463 17.6852 31.7932C17.1007 32.1619 17.0186 32.2732 17.0186 32.6964C17.0186 33.0206 17.3916 33.3916 17.7164 33.3904C18.446 33.3878 20.1189 31.852 21.2257 30.1688C22.6961 27.9328 24.2968 26.6817 26.2037 26.2778C26.964 26.1167 28.471 26.1189 29.4088 26.2822C30.8067 26.5258 32.9377 27.3877 34.3191 28.2683L34.8731 28.6215L34.5746 29.2186C34.1585 30.0509 33.7801 31.2326 33.846 31.4946C33.9715 31.9942 34.5974 32.23 35.0175 31.9361C35.1329 31.8553 35.2942 31.5274 35.4385 31.0804C35.9566 29.4761 36.6767 28.2383 37.7355 27.1324C38.9164 25.8989 40.3632 24.9846 41.8756 24.516C42.7238 24.2531 43 24.0222 43 23.5757C43 23.2129 42.6488 22.8854 42.2599 22.8854C41.8999 22.8854 40.6177 23.3222 39.8628 23.7021C38.543 24.3662 36.9339 25.6808 35.9236 26.9206L35.6209 27.2919L34.9581 26.8895C33.3091 25.8884 31.165 25.053 29.5393 24.7784C28.4297 24.5908 26.4482 24.6363 25.5639 24.8695C25.2332 24.9567 24.5473 25.2323 24.0395 25.4821C23.2548 25.868 23.1163 25.9121 23.1163 25.7756C23.1163 25.3179 23.766 18.9785 23.9102 18.0287C24.0615 17.0325 24.752 13.9131 25.2619 11.9221L25.4581 11.1557L26.2189 11.51L26.9797 11.8644L27.1268 12.3929C27.4888 13.6938 28.2346 14.7505 29.0837 15.1654C29.5043 15.371 29.6488 15.3962 30.2523 15.3686C30.8084 15.3431 31.0513 15.2827 31.5136 15.0549C32.2982 14.6682 33.1196 13.968 34.093 12.8562C37.002 9.53315 37.7293 7.02252 36.2645 5.36012C35.9497 5.00275 35.6347 4.81523 34.0362 4.03338C31.9686 3.02226 29.7002 2.09378 27.7837 1.47437C26.2147 0.96718 25.2521 0.872186 24.6317 1.16308ZM31.5039 16.3772C31.1816 16.6245 31.1581 16.8278 31.1581 19.3769C31.1581 21.8636 31.1597 21.8849 31.357 22.0653C31.6352 22.3196 31.8935 22.3791 32.1709 22.2529C32.6319 22.043 32.6605 21.869 32.6605 19.2643C32.6605 16.8316 32.6355 16.6234 32.3147 16.3772C32.1342 16.2388 31.6844 16.2388 31.5039 16.3772ZM26.4099 17.2155C26.1512 17.2568 25.8558 17.6398 25.8558 17.9337C25.8558 18.062 25.9237 18.2653 26.0066 18.3852C26.4497 19.0268 29.326 22.5387 29.4724 22.617C29.7619 22.7717 30.0112 22.7205 30.2812 22.4507C30.7585 21.9739 30.7185 21.8935 28.8179 19.5052C27.0754 17.3158 26.8894 17.1388 26.4099 17.2155ZM35.6209 19.8426C34.5516 20.6939 33.5873 21.4906 33.4779 21.6131C33.0618 22.0791 33.3769 22.8048 34.003 22.8225C34.2926 22.8307 34.5194 22.675 36.2966 21.2473C37.3814 20.376 38.3393 19.5935 38.4252 19.5085C38.5204 19.4143 38.5814 19.2221 38.5814 19.0162C38.5814 18.5826 38.2968 18.2945 37.8688 18.2948C37.6084 18.2948 37.288 18.5155 35.6209 19.8426ZM19.2433 35.9792C19.1149 36.1157 19.0512 36.296 19.0512 36.5226C19.0512 36.9192 19.3393 37.231 20.4999 38.0908C23.8164 40.5473 28.2303 40.7159 32.7047 38.5572C33.9321 37.9649 34.1304 37.8123 34.2138 37.3963C34.2858 37.0363 33.9062 36.5694 33.5412 36.5694C33.4024 36.5694 32.879 36.7833 32.3781 37.0446C31.2908 37.6119 30.5218 37.9071 29.3728 38.1982C26.0205 39.0478 23.0751 38.3992 20.6425 36.2757C19.978 35.6957 19.5877 35.613 19.2433 35.9792Z" stroke="#8EA637" stroke-width="0.6" mask="url(#path-1-outside-1_138_244)"/>
</svg>
