<svg width="48" height="48" viewBox="0 0 48 48" fill="none" xmlns="http://www.w3.org/2000/svg">
<path d="M42.0741 5.8381L24.5947 0.595804L42.0741 5.8381ZM42.0741 5.8381L42.074 5.83833C43.0437 6.12945 43.6915 7.00162 43.6915 8.01402L43.6908 20.46C43.6908 32.2148 36.6425 42.6278 25.7282 46.9926L25.6949 47.0059L25.6639 47.0238C24.5644 47.6587 23.3217 47.6588 22.22 47.0237L22.1891 47.0059L22.156 46.9926C11.2438 42.6276 4.19336 32.2148 4.19336 20.46V8.01405C4.19336 7.0017 4.84119 6.12945 5.81084 5.83832L23.2887 0.59591C23.2887 0.595901 23.2888 0.595892 23.2888 0.595883C23.7173 0.468023 24.1677 0.468112 24.5944 0.595712L42.0741 5.8381ZM23.4853 1.22119L23.4852 1.22115L23.4791 1.22298L6.00072 6.46745C6.00063 6.46748 6.00055 6.4675 6.00046 6.46753C5.31268 6.67362 4.8504 7.29782 4.8504 8.01358V20.4605C4.8504 31.9281 11.7232 42.0932 22.3602 46.3659C23.3451 46.962 24.5405 46.962 25.5254 46.3659C36.1621 42.0935 43.0352 31.929 43.0352 20.4605L43.0352 8.01358C43.0352 7.29829 42.573 6.67361 41.8851 6.46753C41.885 6.4675 41.8849 6.46747 41.8848 6.46744L24.4066 1.22302C24.2526 1.17678 24.0963 1.15565 23.9428 1.15565C23.7848 1.15565 23.6308 1.17951 23.4853 1.22119Z" stroke="#017706"/>
<path d="M28.2482 15.9068V16.4068H28.7482H33.8851C34.0663 16.4068 34.2137 16.554 34.2137 16.7353V24.6892C34.2137 24.8702 34.0662 25.0177 33.8851 25.0177H28.7482H28.2482V25.5177V30.6546C28.2482 30.8356 28.1007 30.9831 27.9197 30.9831H19.9658C19.7848 30.9831 19.6373 30.8356 19.6373 30.6546V25.5177V25.0177H19.1373H14.0004C13.8194 25.0177 13.6719 24.8702 13.6719 24.6892V16.7353C13.6719 16.5543 13.8194 16.4068 14.0004 16.4068H19.1373H19.6373V15.9068V10.7699C19.6373 10.5888 19.7848 10.4413 19.9658 10.4413H27.9197C28.1007 10.4413 28.2482 10.5888 28.2482 10.7699V15.9068ZM33.0566 24.3607H33.5566V23.8607V17.5638V17.0638H33.0566H27.9197C27.7387 17.0638 27.5912 16.9163 27.5912 16.7353V11.5984V11.0984H27.0912H20.7944H20.2944V11.5984V16.7353C20.2944 16.9163 20.1468 17.0638 19.9658 17.0638H14.8289H14.3289V17.5638V23.8607V24.3607H14.8289H19.9658C20.1468 24.3607 20.2944 24.5082 20.2944 24.6892V29.8261V30.3261H20.7944H27.0912H27.5912V29.8261V24.6892C27.5912 24.5082 27.7387 24.3607 27.9197 24.3607H33.0566Z" stroke="#017706"/>
</svg>
