<svg width="48" height="48" viewBox="0 0 48 48" fill="none" xmlns="http://www.w3.org/2000/svg">
<path fill-rule="evenodd" clip-rule="evenodd" d="M13.8232 36.991C16.2712 39.202 18.9532 41.028 21.9812 42.468C23.6032 43.238 25.5272 43.168 27.0822 42.281C29.7052 40.785 31.9882 38.984 34.1952 36.991C38.8732 32.765 41.6012 26.95 41.7802 20.817L41.9892 13.666C42.0132 12.834 41.9902 11 41.9902 11C40.9396 10.8342 39.8853 10.6922 38.8282 10.574C35.5582 10.182 32.3022 9.79296 29.4452 8.04596L27.4082 6.80096C26.5431 6.27701 25.5511 6 24.5397 6C23.5283 6 22.5363 6.27701 21.6712 6.80096L19.7202 7.99396C16.4532 9.98996 12.4722 10.368 8.61922 10.734C7.74622 10.817 6.87922 10.9 6.02922 11C6.02922 11 6.00522 12.845 6.02922 13.689L6.23822 20.817C6.41722 26.95 9.14422 32.765 13.8232 36.991ZM8.01922 12.801C8.01922 13.121 8.02222 13.416 8.02922 13.631L8.23722 20.759C8.40022 26.329 10.8772 31.635 15.1632 35.507C17.4752 37.594 19.9962 39.309 22.8402 40.661C23.3522 40.9025 23.9147 41.018 24.4804 40.9976C25.0462 40.9773 25.5989 40.8217 26.0922 40.544C28.5472 39.144 30.7112 37.443 32.8552 35.507C37.1412 31.635 39.6182 26.33 39.7812 20.759L39.9902 13.607C39.9962 13.384 40.0002 13.069 40.0002 12.733C39.5322 12.673 39.0562 12.616 38.5702 12.557L38.5162 12.551C37.4053 12.4264 36.2977 12.2747 35.1942 12.096C32.9502 11.716 30.6022 11.097 28.4022 9.75296L26.3652 8.50696C25.8142 8.17493 25.1831 7.99947 24.5397 7.99947C23.8964 7.99947 23.2652 8.17493 22.7142 8.50696L20.7632 9.69996C18.4432 11.117 15.8832 11.789 13.4162 12.186C11.8862 12.432 10.2382 12.589 8.69522 12.737L8.01922 12.802V12.801Z" fill="#017706"/>
<path fill-rule="evenodd" clip-rule="evenodd" d="M21.999 33V15H25.999V33H21.999Z" fill="#017706"/>
<path fill-rule="evenodd" clip-rule="evenodd" d="M33 26H15V22H33V26Z" fill="#017706"/>
</svg>
