<svg width="48" height="48" viewBox="0 0 48 48" fill="none" xmlns="http://www.w3.org/2000/svg">
<g clip-path="url(#clip0_360_3376)">
<path d="M39.974 45.415L40.2425 45.4272L39.8371 45.5039C39.8666 45.7034 39.7501 45.8949 39.5603 45.9606L39.2237 46.077V46.1071L35.719 47.6462L35.6762 47.6598H35.6527L35.5925 47.675C35.5297 47.6908 35.4647 47.6917 35.4017 47.6775C35.3722 47.6679 35.3441 47.6549 35.3178 47.6391C35.2945 47.6223 35.2733 47.6035 35.2547 47.5833C35.2355 47.559 35.2191 47.5328 35.2061 47.5057C32.014 40.2873 29.56 35.5213 29.3439 35.1018L29.3403 35.0949L29.3365 35.0881C29.1019 34.6654 28.8126 34.2753 28.4755 33.9283L28.4689 33.9215L28.4621 33.915C27.6812 33.1696 26.6954 32.6746 25.6317 32.4935C24.7187 32.2697 23.9196 32.0596 23.3985 31.2799C23.0037 30.6242 22.8566 29.849 22.9843 29.0945L22.9843 29.0945C23.1112 28.3451 23.501 27.6657 24.0831 27.1776C24.9587 26.604 26.0698 26.5246 27.0186 26.9698L27.6951 27.2873L27.7305 26.5409C27.7827 25.4402 28.1611 24.3799 28.8169 23.4942C29.9451 22.204 31.5891 21.4827 33.3028 21.5269L33.319 21.5273L33.3353 21.5267C34.6031 21.477 35.8242 22.007 36.6532 22.966C37.0468 23.5184 37.2888 24.1643 37.3556 24.8398C37.4226 25.5159 37.3109 26.1975 37.0326 26.8172C36.7372 27.3518 36.3059 27.7987 35.7818 28.1118L35.7812 28.1121C35.2975 28.402 34.8971 28.8123 34.6199 29.304L34.6059 29.3287L34.5948 29.3549C34.2762 30.1086 34.2107 30.9455 34.4082 31.7397L34.4141 31.7633L34.4222 31.7862C35.8529 35.8202 37.6412 40.3904 39.8323 45.3636C39.833 45.379 39.833 45.3941 39.8323 45.4085L39.8525 45.4094C39.8598 45.4259 39.8671 45.4424 39.8744 45.4589L39.974 45.415ZM24.5122 27.909C24.1303 28.275 23.8802 28.757 23.8005 29.2798L23.8005 29.2799C23.7207 29.8024 23.8159 30.3373 24.0711 30.8005L24.1889 30.7702L24.0918 30.8343C24.2788 31.1174 24.5398 31.2846 24.83 31.4032C25.1061 31.5159 25.4498 31.6002 25.8353 31.6919L25.8507 31.6956L25.8663 31.6983C27.0725 31.9056 28.1907 32.4657 29.0786 33.3078C29.4561 33.6938 29.7822 34.1264 30.0485 34.5954L30.081 34.6611L30.0843 34.6676L30.0877 34.6741C30.1847 34.8563 32.5015 39.3724 35.6148 46.2837L35.8181 46.7352L36.2715 46.5362L38.4375 45.5859L38.8901 45.3873L38.6968 44.9325C36.6831 40.1936 34.9801 35.827 33.6397 31.9601L33.6395 31.9594C33.6315 31.9366 33.626 31.9143 33.6227 31.8927L33.6201 31.8761L33.6165 31.8597C33.399 30.886 33.4987 29.8681 33.9009 28.9555C34.2221 28.3614 34.6887 27.8586 35.2571 27.4944C35.6706 27.2542 36.0147 26.9114 36.2565 26.4983L36.2726 26.4708L36.285 26.4414C36.6953 25.4767 36.5875 24.3696 35.9993 23.5016L35.9763 23.4676L35.948 23.4378C35.2586 22.7118 34.2864 22.3239 33.2868 22.3762C31.8372 22.3171 30.4375 22.9166 29.4806 24.0087L29.3566 24.1502V24.1698C28.8341 24.8932 28.6309 25.7698 28.5641 26.5012C28.4926 27.2826 28.5706 27.9684 28.6382 28.2637C28.6791 28.4497 28.5893 28.6399 28.4199 28.7262L28.4197 28.7263C28.2498 28.813 28.0426 28.7737 27.9164 28.6312C27.4243 28.0718 26.8144 27.731 26.2208 27.5993C25.6382 27.47 25.0203 27.5343 24.5643 27.8655L24.5368 27.8855L24.5122 27.909Z" stroke="#98602f"/>
<path d="M25.6013 23.7186C24.6295 25.1372 23.0732 26.046 21.3598 26.1943L21.3598 26.1942L21.3477 26.1955C21.1498 26.2175 20.9509 26.2292 20.7509 26.2313L20.7355 26.2314L20.7201 26.2325C19.4975 26.3209 18.3133 25.7843 17.5734 24.807C16.8345 23.8311 16.6391 22.5482 17.0536 21.3967C17.2715 20.8353 17.6328 20.3402 18.1016 19.9609C18.5435 19.6285 18.8937 19.1888 19.1181 18.6828L19.1319 18.6515L19.1414 18.6186C19.3675 17.8342 19.3338 16.9974 19.0447 16.2337L19.0369 16.213L19.0273 16.1931C17.152 12.3126 14.8275 7.97918 12.1061 3.27605V3.23114L12.0856 3.1617C12.0318 2.98001 12.1074 2.78419 12.2702 2.68553L15.8698 0.559069L15.8698 0.559074L15.8718 0.557866C15.9774 0.494785 16.1062 0.482638 16.2224 0.524568L16.2884 0.56576L16.3672 0.614967L16.3709 0.623028L16.3817 0.646302L16.3947 0.668354C18.4935 4.20509 20.3203 7.10881 21.6225 9.13428C22.2736 10.1471 22.7936 10.9402 23.1506 11.4827C23.2191 11.5867 23.2813 11.6812 23.3373 11.7661C23.4277 11.9033 23.5017 12.0156 23.5589 12.103C23.5819 12.1382 23.6018 12.1687 23.6187 12.1947V12.2121L23.7111 12.3421C24.6339 13.6406 26.1259 14.4145 27.718 14.4212C28.6421 14.5257 29.4616 14.6473 30.0611 15.3552C30.5332 15.9604 30.7723 16.7147 30.7342 17.4814L30.7342 17.4816C30.6968 18.2424 30.3891 18.9643 29.867 19.518C29.0632 20.1844 27.9717 20.3883 26.9805 20.0556L26.27 19.8171L26.3226 20.5647C26.4 21.6645 26.1488 22.7623 25.6013 23.7186ZM25.9122 18.4781L25.9194 18.4845C26.4755 18.9804 27.1224 19.2449 27.7273 19.3048C28.3205 19.3636 28.9257 19.2275 29.3387 18.848L29.3649 18.8239L29.3875 18.7964C29.7223 18.3869 29.9126 17.8788 29.9291 17.3502L29.9291 17.3497C29.9451 16.8215 29.7869 16.302 29.4772 15.8726L29.465 15.8557L29.4515 15.8399C29.2308 15.5821 28.954 15.4462 28.6507 15.3616C28.3634 15.2814 28.0123 15.2373 27.618 15.19L27.5996 15.1878L27.5811 15.187C26.3614 15.1316 25.1849 14.7169 24.2004 13.9946C23.7673 13.6567 23.3806 13.2634 23.0497 12.8247L23.0498 12.8247L23.0457 12.8195L23.0091 12.7723C22.9967 12.7541 22.9538 12.6909 22.8781 12.5782C22.7889 12.4455 22.6587 12.2507 22.4908 11.9972C22.1549 11.4902 21.6683 10.7485 21.0586 9.79997C19.839 7.90289 18.1269 5.17894 16.1419 1.85092L15.8845 1.41936L15.4542 1.6789L13.4172 2.90761L12.9973 3.16091L13.2424 3.58566C15.8052 8.02661 18.0171 12.1605 19.802 15.8399L19.8021 15.8402C19.814 15.8647 19.8236 15.8894 19.8312 15.9146L19.8348 15.9265L19.839 15.9382C20.1769 16.8877 20.1993 17.9208 19.9024 18.8837C19.6541 19.513 19.2496 20.0691 18.7273 20.4986C18.3441 20.7879 18.0433 21.1716 17.8529 21.6117L17.8405 21.6404L17.8318 21.6703C17.5384 22.6775 17.7769 23.7642 18.4641 24.5563L18.4896 24.5857L18.5194 24.6109C19.2872 25.2586 20.3005 25.5367 21.2906 25.3716C22.6428 25.256 23.8816 24.5824 24.713 23.5195H24.7394L24.8861 23.2835C25.4623 22.3568 25.5257 21.2608 25.4669 20.4468C25.4369 20.0326 25.3739 19.6729 25.3184 19.4162C25.3106 19.3802 25.3029 19.3462 25.2955 19.3142L25.3614 19.2572L25.2506 18.937C25.1886 18.7579 25.2551 18.5594 25.4129 18.4535L25.4131 18.4534C25.5666 18.3503 25.7697 18.3607 25.9122 18.4781Z" stroke="#98602f"/>
<path d="M15.3187 30.5091L15.32 30.5104C16.2126 31.3424 17.3748 31.8201 18.5893 31.8584L18.5974 31.8685L18.8467 31.86C18.9628 31.856 19.0755 31.8989 19.1595 31.9789C19.2427 32.0582 19.291 32.168 19.2931 32.284C19.2938 32.5119 19.1115 32.6985 18.8836 32.7033L18.836 32.7033L18.8346 32.7033C17.3267 32.7074 15.8734 32.1406 14.7664 31.1168C13.6596 30.0932 12.9817 28.6884 12.8683 27.1849C12.8518 26.9562 13.0223 26.7571 13.2502 26.7379C13.4807 26.7264 13.6794 26.8981 13.7013 27.1277C13.7991 28.4171 14.376 29.6238 15.3187 30.5091Z" stroke="#98602f"/>
<path d="M17.482 36.3501L17.6282 36.2963C17.8016 36.2918 17.9668 36.3962 18.0313 36.5678C18.1115 36.7812 18.0062 37.019 17.7951 37.1036C16.9959 37.3627 16.1602 37.4928 15.3199 37.489L15.3199 37.4889L15.3087 37.4891C13.7877 37.5163 12.3027 37.0225 11.1012 36.0896C10.0482 35.2437 9.26365 34.1088 8.84407 32.8243L8.84407 32.8243C8.42608 31.5449 8.38823 30.1718 8.73438 28.8709C8.80949 28.6709 9.02435 28.5586 9.23271 28.613C9.4397 28.6677 9.57115 28.8694 9.53966 29.0791C9.22838 30.2251 9.25658 31.4364 9.62036 32.5668L9.62037 32.5668C9.98674 33.7051 10.6782 34.7114 11.6093 35.4618L11.6093 35.4618L11.6137 35.4653C12.9188 36.4931 14.3614 36.722 15.4726 36.6942C16.5804 36.6665 17.3902 36.3838 17.482 36.3501Z" stroke="#98602f"/>
</g>
<defs>
<clipPath id="clip0_360_3376">
<rect width="48" height="48" fill="white"/>
</clipPath>
</defs>
</svg>
