<svg width="48" height="48" viewBox="0 0 48 48" fill="none" xmlns="http://www.w3.org/2000/svg">
<mask id="path-1-inside-1_507_3402" fill="white">
<path d="M42.2186 5.35944L24.738 0.116787C24.2176 -0.0389291 23.6676 -0.0389291 23.1457 0.116787L5.66706 5.35944C4.48562 5.71416 3.69336 6.7813 3.69336 8.01405V20.46C3.69336 32.4192 10.8682 43.0159 21.9703 47.4568C23.2264 48.1811 24.6596 48.1811 25.9139 47.4568C37.0181 43.0161 44.1908 32.4192 44.1908 20.46L44.1915 8.01405C44.1915 6.7812 43.4 5.71415 42.2186 5.35944ZM42.5352 20.4605C42.5352 31.7389 35.7694 41.7305 25.2999 45.9177C24.4566 46.4447 23.429 46.4447 22.5857 45.9177C12.1159 41.7302 5.3504 31.738 5.3504 20.4605V8.01358C5.3504 7.51794 5.6685 7.08888 6.14416 6.94643L23.6228 1.70188C23.7275 1.67192 23.8351 1.65565 23.9428 1.65565C24.0504 1.65565 24.158 1.67044 24.2627 1.70188L41.7414 6.94643C42.2171 7.08884 42.5352 7.51827 42.5352 8.01358L42.5352 20.4605Z"/>
</mask>
<path d="M42.2186 5.35944L42.7937 3.44392L42.7931 3.44374L42.2186 5.35944ZM24.738 0.116787L25.3126 -1.79891L25.3113 -1.79928L24.738 0.116787ZM23.1457 0.116787L22.5738 -1.79971L22.5711 -1.79889L23.1457 0.116787ZM5.66706 5.35944L5.09246 3.44376L5.09194 3.44392L5.66706 5.35944ZM21.9703 47.4568L22.9692 45.7242L22.8456 45.6529L22.7131 45.5999L21.9703 47.4568ZM25.9139 47.4568L25.1712 45.5998L25.038 45.6531L24.9138 45.7248L25.9139 47.4568ZM44.1908 20.46L42.1908 20.4599V20.46H44.1908ZM44.1915 8.01405L46.1915 8.01417V8.01405H44.1915ZM42.5352 20.4605H44.5352V20.4605L42.5352 20.4605ZM25.2999 45.9177L24.5572 44.0607L24.3914 44.127L24.2399 44.2217L25.2999 45.9177ZM22.5857 45.9177L23.6457 44.2217L23.4943 44.127L23.3284 44.0607L22.5857 45.9177ZM6.14416 6.94643L6.71794 8.86236L6.71895 8.86206L6.14416 6.94643ZM23.6228 1.70188L23.0725 -0.220909L23.0603 -0.217402L23.048 -0.21374L23.6228 1.70188ZM24.2627 1.70188L23.6874 3.61736L23.6879 3.61751L24.2627 1.70188ZM41.7414 6.94643L41.1666 8.86206L41.1678 8.86241L41.7414 6.94643ZM42.5352 8.01358H40.5352V8.01359L42.5352 8.01358ZM42.7931 3.44374L25.3126 -1.79891L24.1635 2.03249L41.6441 7.27514L42.7931 3.44374ZM25.3113 -1.79928C24.4164 -2.06706 23.4683 -2.06661 22.5738 -1.79971L23.7176 2.03328C23.8668 1.98876 24.0188 1.9892 24.1647 2.03285L25.3113 -1.79928ZM22.5711 -1.79889L5.09246 3.44376L6.24166 7.27512L23.7203 2.03247L22.5711 -1.79889ZM5.09194 3.44392C3.06338 4.05297 1.69336 5.89967 1.69336 8.01405H5.69336C5.69336 7.66292 5.90787 7.37534 6.24218 7.27497L5.09194 3.44392ZM1.69336 8.01405V20.46H5.69336V8.01405H1.69336ZM1.69336 20.46C1.69336 33.237 9.36614 44.5691 21.2275 49.3138L22.7131 45.5999C12.3704 41.4627 5.69336 31.6014 5.69336 20.46H1.69336ZM20.9713 49.1895C22.8453 50.2699 25.0404 50.2707 26.914 49.1888L24.9138 45.7248C24.2789 46.0915 23.6076 46.0922 22.9692 45.7242L20.9713 49.1895ZM26.6565 49.3138C38.5204 44.5693 46.1908 33.2368 46.1908 20.46H42.1908C42.1908 31.6017 35.5158 41.4629 25.1712 45.5998L26.6565 49.3138ZM46.1908 20.4601L46.1915 8.01417L42.1915 8.01394L42.1908 20.4599L46.1908 20.4601ZM46.1915 8.01405C46.1915 5.90043 44.8231 4.05321 42.7937 3.44392L41.6435 7.27497C41.977 7.37509 42.1915 7.66197 42.1915 8.01405H46.1915ZM40.5352 20.4605C40.5352 30.9211 34.2673 40.1772 24.5572 44.0607L26.0426 47.7747C37.2715 43.2838 44.5352 32.5567 44.5352 20.4605H40.5352ZM24.2399 44.2217C24.0451 44.3434 23.8405 44.3434 23.6457 44.2217L21.5257 47.6136C23.0176 48.5461 24.868 48.5461 26.3599 47.6137L24.2399 44.2217ZM23.3284 44.0607C13.618 40.177 7.3504 30.9202 7.3504 20.4605H3.3504C3.3504 32.5558 10.6138 43.2835 21.843 47.7746L23.3284 44.0607ZM7.3504 20.4605V8.01358H3.3504V20.4605H7.3504ZM7.3504 8.01358C7.3504 8.39877 7.09133 8.75054 6.71794 8.86236L5.57038 5.03051C4.24567 5.42723 3.3504 6.63711 3.3504 8.01358H7.3504ZM6.71895 8.86206L24.1976 3.61751L23.048 -0.21374L5.56937 5.03081L6.71895 8.86206ZM24.1732 3.62468C24.1142 3.64156 24.0365 3.65565 23.9428 3.65565V-0.344351C23.6338 -0.344351 23.3409 -0.297716 23.0725 -0.220909L24.1732 3.62468ZM23.9428 3.65565C23.8668 3.65565 23.7798 3.64511 23.6874 3.61736L24.838 -0.213587C24.5363 -0.30422 24.234 -0.344351 23.9428 -0.344351V3.65565ZM23.6879 3.61751L41.1666 8.86206L42.3162 5.03081L24.8375 -0.21374L23.6879 3.61751ZM41.1678 8.86241C40.7938 8.75044 40.5352 8.39861 40.5352 8.01358H44.5352C44.5352 6.63793 43.6403 5.42723 42.315 5.03045L41.1678 8.86241ZM40.5352 8.01359L40.5352 20.4605L44.5352 20.4605L44.5352 8.01357L40.5352 8.01359Z" fill="#7A401C" mask="url(#path-1-inside-1_507_3402)"/>
<g filter="url(#filter0_d_507_3402)">
<path d="M15 27.7952L18.4114 15.0002C25.7374 14.9887 31.5697 15.4924 29.6203 22.3819C27.671 29.2715 22.4205 27.9582 15 27.7952Z" stroke="#7A401C" stroke-width="3" shape-rendering="crispEdges"/>
</g>
<path d="M25.932 6.8575C25.9011 6.86313 25.8701 6.87156 25.842 6.88C25.5073 6.95594 25.2711 7.25688 25.2795 7.6V11.92C25.2767 12.1788 25.4117 12.4206 25.6367 12.5528C25.8617 12.6822 26.1373 12.6822 26.3623 12.5528C26.5873 12.4206 26.7223 12.1788 26.7195 11.92V7.6C26.728 7.39188 26.6436 7.19219 26.4945 7.05156C26.3426 6.90813 26.1373 6.83781 25.932 6.8575ZM34.102 11.0875C33.9389 11.11 33.787 11.1916 33.6745 11.3125L30.6145 14.3725C30.4008 14.5469 30.3023 14.8253 30.3642 15.0953C30.4261 15.3625 30.637 15.5734 30.9042 15.6353C31.1742 15.6972 31.4526 15.5988 31.627 15.385L34.687 12.325C34.912 12.1113 34.9767 11.7766 34.8445 11.4953C34.7095 11.2113 34.4114 11.0481 34.102 11.0875ZM32.877 20.28C32.4805 20.3363 32.202 20.7047 32.2583 21.1013C32.3145 21.4978 32.683 21.7762 33.0795 21.72H37.3995C37.6583 21.7228 37.9001 21.5878 38.0323 21.3628C38.1617 21.1378 38.1617 20.8622 38.0323 20.6372C37.9001 20.4122 37.6583 20.2772 37.3995 20.28H33.0795C33.057 20.28 33.0345 20.28 33.012 20.28C32.9895 20.28 32.967 20.28 32.9445 20.28C32.922 20.28 32.8995 20.28 32.877 20.28ZM30.9745 25.39C30.7045 25.4378 30.488 25.6347 30.412 25.8963C30.3361 26.1606 30.4148 26.4419 30.6145 26.6275L33.6745 29.6875C33.8489 29.9013 34.1273 29.9997 34.3973 29.9378C34.6645 29.8759 34.8755 29.665 34.9373 29.3978C34.9992 29.1278 34.9008 28.8494 34.687 28.675L31.627 25.615C31.492 25.4716 31.3064 25.3928 31.1095 25.39C31.087 25.39 31.0645 25.39 31.042 25.39C31.0195 25.39 30.997 25.39 30.9745 25.39Z" fill="#7A401C"/>
<defs>
<filter id="filter0_d_507_3402" x="5.05859" y="9.5" width="34.4414" height="32.0001" filterUnits="userSpaceOnUse" color-interpolation-filters="sRGB">
<feFlood flood-opacity="0" result="BackgroundImageFix"/>
<feColorMatrix in="SourceAlpha" type="matrix" values="0 0 0 0 0 0 0 0 0 0 0 0 0 0 0 0 0 0 127 0" result="hardAlpha"/>
<feOffset dy="4"/>
<feGaussianBlur stdDeviation="4"/>
<feComposite in2="hardAlpha" operator="out"/>
<feColorMatrix type="matrix" values="0 0 0 0 0.478431 0 0 0 0 0.25098 0 0 0 0 0.109804 0 0 0 0.25 0"/>
<feBlend mode="normal" in2="BackgroundImageFix" result="effect1_dropShadow_507_3402"/>
<feBlend mode="normal" in="SourceGraphic" in2="effect1_dropShadow_507_3402" result="shape"/>
</filter>
</defs>
</svg>
