<svg width="41" height="40" viewBox="0 0 41 40" fill="none" xmlns="http://www.w3.org/2000/svg">
<path d="M14.9731 35.5557C16.3539 35.5557 17.4731 34.4364 17.4731 33.0557C17.4731 31.675 16.3539 30.5557 14.9731 30.5557C13.5924 30.5557 12.4731 31.675 12.4731 33.0557C12.4731 34.4364 13.5924 35.5557 14.9731 35.5557Z" fill="currentcolor"/>
<path d="M30.1621 35.5557C31.5428 35.5557 32.6621 34.4364 32.6621 33.0557C32.6621 31.675 31.5428 30.5557 30.1621 30.5557C28.7814 30.5557 27.6621 31.675 27.6621 33.0557C27.6621 34.4364 28.7814 35.5557 30.1621 35.5557Z" fill="currentcolor"/>
<path d="M36.9179 5.9666C36.8145 5.83914 36.6841 5.73617 36.5362 5.66508C36.3883 5.594 36.2264 5.55657 36.0623 5.55549H12.929L13.6512 7.77771H34.6068L31.6401 21.111H14.9734L9.89565 5.03326C9.84072 4.86266 9.74535 4.70788 9.61765 4.58212C9.48996 4.45636 9.33374 4.36336 9.16232 4.31104L4.60676 2.91104C4.46668 2.868 4.3195 2.85297 4.17361 2.8668C4.02773 2.88064 3.88599 2.92308 3.75651 2.99169C3.495 3.13026 3.29925 3.36703 3.21231 3.64993C3.12538 3.93283 3.15439 4.23867 3.29296 4.50018C3.43153 4.76169 3.66831 4.95744 3.9512 5.04438L7.94009 6.2666L13.0401 22.3777L11.2179 23.8666L11.0734 24.011C10.6227 24.5305 10.3672 25.1908 10.351 25.8784C10.3348 26.5659 10.5588 27.2376 10.9845 27.7777C11.2874 28.146 11.6722 28.4383 12.1082 28.6312C12.5443 28.8242 13.0194 28.9124 13.4956 28.8888H32.0401C32.3348 28.8888 32.6174 28.7718 32.8258 28.5634C33.0341 28.355 33.1512 28.0724 33.1512 27.7777C33.1512 27.483 33.0341 27.2004 32.8258 26.992C32.6174 26.7837 32.3348 26.6666 32.0401 26.6666H13.3179C13.1899 26.6622 13.0653 26.6249 12.9559 26.5583C12.8466 26.4917 12.7563 26.398 12.6938 26.2863C12.6312 26.1746 12.5985 26.0487 12.5988 25.9207C12.5992 25.7926 12.6325 25.6669 12.6956 25.5555L15.3734 23.3333H32.529C32.7858 23.3395 33.0369 23.2566 33.2395 23.0986C33.4421 22.9406 33.5836 22.7172 33.6401 22.4666L37.1623 6.91104C37.1961 6.7454 37.1917 6.57422 37.1493 6.41056C37.1069 6.24689 37.0278 6.09505 36.9179 5.9666V5.9666Z" fill="currentcolor"/>
</svg>
