<svg width="380" height="380" viewBox="0 0 380 380" fill="none" xmlns="http://www.w3.org/2000/svg">
<path d="M327.355 141.74C325.345 135.203 322.719 128.871 319.512 122.831C302.974 92.0965 273.972 68.9089 242.25 55.1909C217.064 44.3153 185.919 38.6305 159.197 48.4269C145.684 53.3821 132.962 62.8669 125.719 75.5209C116.28 92.0433 117.169 112.48 109.676 129.846C103.596 143.898 88.4868 152.342 76.646 161.006C58.1704 174.473 39.9684 190.395 33.5616 213.172C25.0192 243.534 27.55 279.68 44.84 306.682C57.76 326.83 79.876 332.88 102.699 333.283C124.237 333.67 150.579 328.229 170.681 338.055C204.926 354.775 250.116 373.547 288.435 360.316C327.955 346.674 347.312 320.104 353.035 285.638C358.758 251.172 342.988 222.459 337.957 195.198C334.826 177.954 332.751 158.916 327.355 141.74Z" fill="#4DC452"/>
<path opacity="0.8" d="M327.355 141.74C325.345 135.203 322.719 128.871 319.512 122.831C302.974 92.0965 273.972 68.9089 242.25 55.1909C217.064 44.3153 185.919 38.6305 159.197 48.4269C145.684 53.3821 132.962 62.8669 125.719 75.5209C116.28 92.0433 117.169 112.48 109.676 129.846C103.596 143.898 88.4868 152.342 76.646 161.006C58.1704 174.473 39.9684 190.395 33.5616 213.172C25.0192 243.534 27.55 279.68 44.84 306.682C57.76 326.83 79.876 332.88 102.699 333.283C124.237 333.67 150.579 328.229 170.681 338.055C204.926 354.775 250.116 373.547 288.435 360.316C327.955 346.674 347.312 320.104 353.035 285.638C358.758 251.172 342.988 222.459 337.957 195.198C334.826 177.954 332.751 158.916 327.355 141.74Z" fill="white"/>
<path d="M39.2237 245.222C39.0261 243.026 38.9805 241.004 38.9577 239.21C38.9577 238.192 38.9577 237.272 38.9577 236.414C39.7177 235.768 42.8869 233.146 43.7609 231.375C44.6349 229.604 45.2277 227.195 44.3005 225.34C44.1008 224.898 43.8109 224.503 43.4493 224.179C43.0878 223.855 42.6626 223.611 42.201 223.461C41.7394 223.312 41.2516 223.261 40.769 223.311C40.2864 223.361 39.8195 223.511 39.3985 223.752C36.9437 225.272 36.7385 230.524 37.3997 233.054C37.4529 233.275 38.7373 236.588 38.7753 236.558L38.8285 236.52C38.7905 237.348 38.7525 238.238 38.7373 239.203C38.7373 240.996 38.7373 243.003 38.8741 245.237C38.8741 245.602 38.9273 245.997 38.9577 246.37C39.2313 246.78 39.3833 247.046 39.3833 247.046C39.3529 246.43 39.2769 245.807 39.2237 245.222Z" fill="#BABABA"/>
<path d="M31.3272 239.651C28.0288 240.191 27.6032 243.284 30.6812 245.26C33.288 246.932 37.7416 247.046 39.0412 247.046C39.0412 246.818 39.0412 246.59 38.988 246.369C37.7416 244.462 34.0328 239.203 31.3272 239.651Z" fill="#BABABA"/>
<path d="M96.9534 225.135C94.0426 225.044 90.9722 229.254 90.1134 231.702C90.0374 231.914 89.2926 235.365 89.3534 235.357H89.4142C88.9202 236.018 88.4034 236.733 87.8942 237.531C86.891 239.005 85.7738 240.677 84.687 242.577L84.307 243.238C84.2538 243.77 84.2082 244.09 84.2082 244.09L83.9498 243.877C83.0318 245.508 82.1972 247.185 81.4494 248.9C80.3699 251.327 79.5102 253.845 78.8806 256.424C78.8806 256.424 78.8806 256.485 78.8806 256.516C78.8198 255.664 78.5614 253.286 78.5234 253.111C77.9534 250.557 75.3694 245.944 72.4434 245.632C71.9635 245.592 71.4804 245.654 71.0265 245.815C70.5725 245.976 70.158 246.232 69.8107 246.566C69.4634 246.899 69.1911 247.303 69.0121 247.75C68.8331 248.197 68.7515 248.678 68.7726 249.159C68.7726 251.218 70.4598 253.156 72.0178 254.334C73.781 255.672 78.4246 256.744 78.7894 256.827C78.2178 259.476 77.8218 262.16 77.6038 264.86C77.467 266.434 77.3834 268.022 77.315 269.626C77.2314 268.866 77.163 268.227 77.1402 268.106C76.5702 265.56 73.9862 260.946 71.0602 260.635C70.5806 260.594 70.0979 260.657 69.6443 260.818C69.1907 260.979 68.7766 261.235 68.4299 261.568C68.0831 261.902 67.8116 262.306 67.6335 262.753C67.4554 263.2 67.3747 263.68 67.397 264.161C67.397 266.221 69.0842 268.151 70.6422 269.337C72.2002 270.522 76.1674 271.533 77.2162 271.776C77.2162 272.392 77.1706 273 77.1554 273.616C77.0718 276.557 76.9958 279.49 76.8438 282.371C76.7906 283.382 76.6994 284.377 76.6082 285.373C76.5398 284.719 76.479 284.172 76.4562 284.088C75.8938 281.542 73.3022 276.929 70.3762 276.618C69.8963 276.576 69.4131 276.637 68.9589 276.798C68.5047 276.958 68.0902 277.214 67.7431 277.548C67.3961 277.882 67.1246 278.287 66.9469 278.735C66.7693 279.182 66.6895 279.663 66.713 280.144C66.713 282.204 68.3926 284.134 69.9506 285.32C71.5086 286.505 75.0958 287.41 76.3346 287.714C76.251 288.413 76.1674 289.112 76.0686 289.796C76.5094 289.925 76.9578 290.032 77.4214 290.123C77.5886 288.8 77.7178 287.455 77.8242 286.095C78.9034 286.399 82.7642 287.425 84.6642 287.144C86.5642 286.862 88.9354 285.973 89.9006 284.164C90.1388 283.742 90.2864 283.275 90.3341 282.793C90.3818 282.311 90.3285 281.824 90.1776 281.364C90.0268 280.903 89.7816 280.479 89.4578 280.119C89.134 279.758 88.7387 279.469 88.297 279.27C85.5914 278.13 81.1986 280.934 79.5266 282.903C79.4278 283.024 78.3866 284.575 77.8318 285.434C77.9002 284.438 77.9686 283.45 77.999 282.447C78.0978 279.536 78.1054 276.587 78.1206 273.654C78.1206 272.749 78.1206 271.852 78.1206 270.956C78.5082 271.07 83.0682 272.384 85.2266 272.065C87.1494 271.784 89.4978 270.895 90.463 269.094C90.7021 268.671 90.8503 268.204 90.8981 267.721C90.9459 267.238 90.8922 266.751 90.7405 266.29C90.5888 265.829 90.3424 265.405 90.0171 265.045C89.6919 264.685 89.2949 264.397 88.8518 264.199C86.1538 263.059 81.761 265.856 80.089 267.824C79.9674 267.976 78.4778 270.203 78.1282 270.788C78.1282 268.812 78.2042 266.844 78.3258 264.906C78.4823 262.289 78.8072 259.684 79.2986 257.108C79.481 257.162 84.2386 258.552 86.4426 258.233C88.3654 257.952 90.7214 257.055 91.679 255.254C91.9172 254.832 92.0648 254.365 92.1125 253.883C92.1602 253.401 92.1069 252.914 91.956 252.453C91.8052 251.993 91.56 251.569 91.2362 251.208C90.9124 250.848 90.5171 250.559 90.0754 250.36C87.3774 249.22 82.977 252.024 81.305 253.992C81.1758 254.144 79.5798 256.546 79.3138 257.032C79.3138 256.88 79.3594 256.721 79.3898 256.576C79.9569 254.015 80.7531 251.509 81.7686 249.09C82.3082 247.745 82.901 246.499 83.509 245.29C84.3678 245.64 88.3198 247.198 90.349 247.13C92.3782 247.061 94.7342 246.438 95.8894 244.751C96.1739 244.359 96.3731 243.911 96.4739 243.437C96.5747 242.963 96.575 242.473 96.4747 241.999C96.3744 241.525 96.1758 241.077 95.8918 240.684C95.6077 240.292 95.2444 239.963 94.8254 239.72C92.2642 238.291 87.575 240.586 85.7054 242.357C85.6066 242.448 84.6794 243.55 84.0106 244.356C84.2918 243.816 84.573 243.254 84.8542 242.744C85.903 240.822 86.9822 239.127 87.9474 237.637C88.5022 236.794 89.0266 236.041 89.5206 235.357C90.5314 235.266 94.6278 234.833 96.3606 233.837C98.0934 232.842 99.8946 231.2 100.161 229.163C100.233 228.685 100.206 228.198 100.082 227.731C99.9568 227.264 99.7371 226.828 99.436 226.449C99.1349 226.071 98.759 225.759 98.3318 225.533C97.9046 225.307 97.4354 225.172 96.9534 225.135Z" fill="#BABABA"/>
<path d="M56.9999 287.881C57.1975 288.268 57.3875 288.641 57.5775 289.051L58.8771 288.625C58.3831 287.645 57.8739 286.665 57.3571 285.699C58.4135 285.357 62.1679 284.088 63.5967 282.789C65.0255 281.489 66.4771 279.437 66.2795 277.393C66.247 276.908 66.1144 276.435 65.8901 276.004C65.6658 275.573 65.3546 275.193 64.9762 274.888C64.5978 274.583 64.1603 274.36 63.6913 274.232C63.2224 274.105 62.7322 274.076 62.2515 274.147C59.3939 274.679 57.3115 279.467 57.0227 282.044C57.0227 282.211 57.0227 284.088 57.0227 285.084C56.5211 284.217 56.0347 283.343 55.5027 282.477C53.9827 279.969 52.3563 277.484 50.7451 274.999L49.2859 272.719C49.6659 272.605 54.1575 271.199 55.7611 269.732C57.1899 268.44 58.6415 266.388 58.4439 264.343C58.4125 263.858 58.2806 263.385 58.0567 262.953C57.8327 262.521 57.5215 262.141 57.1428 261.836C56.7642 261.531 56.3262 261.308 55.8568 261.181C55.3874 261.054 54.8967 261.026 54.4159 261.098C51.5583 261.63 49.4759 266.418 49.1871 268.995C49.1871 269.192 49.1871 271.89 49.1871 272.582C48.1155 270.895 47.0667 269.207 46.1015 267.505C44.7875 265.213 43.6198 262.839 42.6055 260.399C42.7803 260.346 47.4771 258.879 49.1187 257.397C50.5475 256.105 51.9991 254.053 51.8015 252.001C51.7691 251.516 51.6365 251.044 51.4121 250.613C51.1877 250.182 50.8764 249.803 50.4978 249.499C50.1192 249.194 49.6817 248.972 49.2127 248.845C48.7438 248.719 48.2537 248.691 47.7735 248.763C44.9159 249.295 42.8335 254.083 42.5447 256.66C42.5447 256.865 42.5447 259.768 42.5447 260.3C42.4915 260.156 42.4155 260.011 42.3623 259.875C41.4179 257.409 40.6906 254.866 40.1887 252.275C39.8923 250.846 39.6947 249.463 39.5275 248.11C40.4319 247.935 44.5511 247.061 46.1851 245.891C47.8191 244.72 49.4151 242.851 49.4455 240.829C49.4658 240.343 49.3852 239.858 49.2088 239.405C49.0324 238.952 48.764 238.541 48.4205 238.196C48.077 237.852 47.6659 237.583 47.2131 237.405C46.7604 237.228 46.2758 237.147 45.7899 237.166C42.8867 237.379 40.2875 241.901 39.7099 244.431C39.7099 244.568 39.5123 246.005 39.4059 247.053H39.0335C39.1779 248.741 39.3831 250.519 39.7175 252.373C40.1609 255.018 40.84 257.617 41.7467 260.141C41.7547 260.17 41.7675 260.199 41.7847 260.224C41.2603 259.54 39.7403 257.678 39.6111 257.549C37.7339 255.717 33.0599 253.255 30.4911 254.593C30.0711 254.83 29.7061 255.154 29.4201 255.542C29.1341 255.931 28.9335 256.376 28.8316 256.847C28.7297 257.319 28.7287 257.807 28.8287 258.279C28.9287 258.751 29.1274 259.196 29.4119 259.586C30.5671 261.311 33.0067 262.025 34.9447 262.155C37.1335 262.314 41.5567 260.635 41.9063 260.521C42.8901 263.07 44.0428 265.55 45.3567 267.946C46.1167 269.352 46.9147 270.743 47.7431 272.126C47.2719 271.548 46.8463 271.031 46.7779 270.971C44.9083 269.131 40.2267 266.669 37.6579 268.007C37.2367 268.244 36.8707 268.568 36.584 268.957C36.2972 269.346 36.0962 269.792 35.9942 270.264C35.8922 270.737 35.8916 271.226 35.9923 271.699C36.0931 272.171 36.2929 272.618 36.5787 273.007C37.7263 274.733 40.1735 275.439 42.1115 275.576C44.0495 275.713 47.8799 274.36 48.8907 273.98C49.2175 274.505 49.5291 275.037 49.8559 275.561C51.3759 278.084 52.9719 280.6 54.4159 283.108C54.9251 283.997 55.4039 284.886 55.8751 285.775C55.4571 285.259 55.1151 284.833 55.0467 284.772C53.1695 282.941 48.4879 280.478 45.9267 281.816C45.5061 282.053 45.1404 282.376 44.8536 282.764C44.5668 283.152 44.3655 283.597 44.2628 284.069C44.1602 284.54 44.1585 285.028 44.258 285.501C44.3574 285.973 44.5557 286.419 44.8399 286.809C45.9875 288.534 48.4347 289.249 50.3727 289.385C52.3107 289.522 55.7915 288.306 56.9999 287.881Z" fill="#BABABA"/>
<path d="M82.5813 233.237C79.6857 231.573 77.3981 233.708 78.5381 237.181C79.5109 240.153 82.9537 243.094 83.9265 243.869L84.2837 243.231C84.5269 240.921 84.9449 234.59 82.5813 233.237Z" fill="#BABABA"/>
<path d="M257.876 353.826C254.668 353.91 251.56 358.766 250.792 361.533C250.754 361.677 250.504 363.189 250.336 364.337C251.856 364.474 253.376 364.58 254.896 364.656C255.934 364.407 256.932 364.013 257.86 363.486C259.646 362.323 261.584 360.339 261.721 358.067C261.773 357.53 261.712 356.989 261.543 356.477C261.373 355.966 261.098 355.495 260.736 355.096C260.374 354.697 259.933 354.377 259.44 354.159C258.948 353.94 258.415 353.827 257.876 353.826Z" fill="#BABABA"/>
<path d="M230.196 310.84C226.503 310.84 225.5 314.154 228.517 316.844C231.063 319.124 235.904 320.028 237.318 320.256L237.386 319.496C236.36 317.178 233.229 310.794 230.196 310.84Z" fill="#BABABA"/>
<path d="M289.674 353.279C290.008 352.86 290.251 352.376 290.388 351.858C290.525 351.339 290.551 350.798 290.467 350.269C290.383 349.74 290.189 349.234 289.898 348.784C289.607 348.334 289.225 347.949 288.777 347.655C286.033 345.945 280.744 348.233 278.585 350.087C278.418 350.224 276.412 352.405 275.925 352.983C276.298 350.824 276.685 348.689 277.172 346.591C277.793 343.754 278.601 340.962 279.589 338.231C279.779 338.322 284.719 340.671 287.189 340.709C289.332 340.709 292.053 340.169 293.413 338.376C293.747 337.957 293.991 337.472 294.127 336.954C294.264 336.436 294.291 335.895 294.206 335.366C294.122 334.836 293.928 334.33 293.637 333.88C293.346 333.43 292.964 333.046 292.516 332.752C289.773 331.042 284.483 333.329 282.325 335.184C282.15 335.328 279.991 337.669 279.627 338.125C279.687 337.965 279.725 337.798 279.786 337.638C280.852 334.943 282.157 332.349 283.685 329.886C284.506 328.518 285.372 327.257 286.246 326.086C287.12 326.618 291.163 329.005 293.383 329.278C295.602 329.552 298.285 329.278 299.835 327.652C300.213 327.273 300.508 326.819 300.7 326.32C300.892 325.82 300.978 325.286 300.952 324.751C300.925 324.216 300.787 323.693 300.546 323.215C300.306 322.737 299.968 322.314 299.554 321.975C297.008 319.968 291.498 321.663 289.142 323.259C289.013 323.35 287.812 324.384 286.945 325.144C287.341 324.604 287.751 324.042 288.139 323.533C289.621 321.618 291.087 319.961 292.402 318.502C293.162 317.681 293.854 316.982 294.515 316.275C295.64 316.351 300.185 316.594 302.229 315.826C304.273 315.059 306.546 313.546 307.161 311.38C307.323 310.868 307.376 310.328 307.318 309.795C307.26 309.261 307.091 308.746 306.823 308.28C306.555 307.815 306.194 307.411 305.761 307.093C305.329 306.775 304.835 306.55 304.311 306.433C301.157 305.817 297.076 309.883 295.731 312.406C295.617 312.627 294.211 316.252 294.257 316.26H294.325C293.679 316.89 292.987 317.582 292.25 318.35C290.905 319.786 289.393 321.39 287.865 323.305L287.341 323.958C287.189 324.528 287.09 324.863 287.09 324.863C287.09 324.863 286.991 324.764 286.839 324.589C285.631 326.109 284.399 327.796 283.237 329.628C281.636 332.089 280.26 334.688 279.125 337.395C279.125 337.395 279.125 337.464 279.125 337.494C279.209 336.552 279.345 333.914 279.33 333.694C279.163 330.814 277.141 325.334 274.01 324.483C273.494 324.356 272.956 324.341 272.433 324.439C271.91 324.536 271.414 324.744 270.978 325.048C270.541 325.352 270.175 325.746 269.902 326.203C269.629 326.659 269.457 327.169 269.397 327.698C269.063 329.978 270.537 332.341 272.034 333.907C273.721 335.67 278.601 337.646 278.988 337.806C277.897 340.594 276.996 343.453 276.29 346.363C275.872 348.05 275.53 349.776 275.143 351.501C275.188 350.688 275.219 349.981 275.211 349.859C275.036 346.979 273.022 341.499 269.891 340.648C269.375 340.519 268.837 340.502 268.314 340.598C267.79 340.694 267.293 340.901 266.856 341.204C266.42 341.508 266.053 341.902 265.78 342.359C265.508 342.816 265.337 343.326 265.278 343.855C264.943 346.135 266.418 348.506 267.915 350.072C269.412 351.638 273.562 353.424 274.656 353.872L274.269 355.863C273.752 358.592 273.243 361.312 272.68 363.995L274.048 363.805C274.519 361.244 274.953 358.66 275.378 356.076C275.538 355.096 275.713 354.123 275.887 353.142C276.283 353.332 281.033 355.559 283.442 355.597C285.593 355.635 288.313 355.073 289.674 353.279Z" fill="#BABABA"/>
<path d="M287.227 312.748C284.354 310.43 281.497 312.36 282.127 316.342C282.675 319.762 285.927 323.562 286.839 324.581L287.341 323.95C288.04 321.48 289.56 314.64 287.227 312.748Z" fill="#BABABA"/>
<path d="M237.88 318.258C238.047 315.833 238.351 313.614 238.64 311.661C238.807 310.551 238.982 309.548 239.157 308.621C240.13 308.059 244.013 305.741 245.275 303.962C246.536 302.184 247.6 299.661 246.916 297.479C246.775 296.963 246.528 296.481 246.19 296.065C245.852 295.649 245.431 295.309 244.954 295.065C244.477 294.821 243.954 294.679 243.419 294.649C242.884 294.618 242.349 294.7 241.847 294.888C238.898 296.127 237.766 301.811 238.047 304.684C238.047 304.935 238.891 308.773 238.944 308.75L239.005 308.712C238.815 309.609 238.625 310.574 238.442 311.631C238.108 313.584 237.758 315.795 237.538 318.235C237.5 318.638 237.462 319.063 237.432 319.481C237.652 319.983 237.781 320.295 237.781 320.295C237.766 319.611 237.796 318.911 237.88 318.258Z" fill="#BABABA"/>
<path d="M238.792 359.351C238.154 359.566 237.589 359.958 237.165 360.481C236.741 361.005 236.475 361.638 236.398 362.307C240.327 363.067 244.256 363.698 248.178 364.116C246.43 361.76 241.802 358.348 238.792 359.351Z" fill="#BABABA"/>
<path d="M266.395 357.961C265.879 357.832 265.341 357.815 264.818 357.911C264.294 358.007 263.798 358.214 263.361 358.517C262.924 358.821 262.557 359.215 262.285 359.672C262.012 360.129 261.841 360.639 261.782 361.168C261.655 362.416 261.92 363.673 262.542 364.763C265.415 364.702 268.267 364.512 271.1 364.193C270.256 361.518 268.607 358.576 266.395 357.961Z" fill="#BABABA"/>
<path d="M249.06 361.76C247.836 358.766 246.498 355.764 245.184 352.769C244.781 351.857 244.386 350.938 243.991 350.018C244.424 349.957 249.569 349.205 251.591 347.89C253.377 346.727 255.314 344.744 255.451 342.471C255.502 341.939 255.441 341.403 255.274 340.895C255.107 340.387 254.836 339.92 254.479 339.522C254.122 339.124 253.686 338.805 253.2 338.584C252.713 338.363 252.186 338.245 251.651 338.238C248.444 338.314 245.336 343.178 244.568 345.937C244.507 346.15 244.036 349.099 243.96 349.851C243.086 347.829 242.235 345.808 241.482 343.771C240.444 341.043 239.584 338.25 238.906 335.411C239.104 335.411 244.477 334.651 246.506 333.283C248.285 332.12 250.23 330.129 250.367 327.864C250.417 327.332 250.357 326.795 250.19 326.287C250.022 325.779 249.752 325.311 249.395 324.912C249.038 324.514 248.602 324.194 248.116 323.972C247.629 323.75 247.102 323.632 246.567 323.623C243.36 323.707 240.251 328.563 239.484 331.33C239.423 331.543 238.921 334.719 238.876 335.297C238.838 335.137 238.777 334.97 238.739 334.803C238.14 331.941 237.795 329.031 237.705 326.109C237.629 324.497 237.652 322.955 237.705 321.457C238.716 321.419 243.36 321.184 245.351 320.188C247.342 319.193 249.402 317.475 249.782 315.241C249.89 314.715 249.887 314.172 249.774 313.647C249.662 313.123 249.441 312.627 249.127 312.192C248.812 311.757 248.411 311.392 247.948 311.12C247.485 310.848 246.971 310.675 246.438 310.612C243.238 310.331 239.598 314.815 238.541 317.452C238.488 317.597 238.062 319.139 237.781 320.264L237.363 320.203C237.227 322.065 237.143 324.003 237.188 326.101C237.214 329.062 237.501 332.015 238.047 334.925V335.023C237.599 334.187 236.261 331.892 236.14 331.725C234.414 329.399 229.74 325.896 226.708 326.907C226.21 327.096 225.757 327.387 225.379 327.762C225.001 328.137 224.706 328.588 224.513 329.085C224.32 329.581 224.234 330.113 224.26 330.645C224.286 331.177 224.423 331.698 224.664 332.173C225.614 334.248 228.16 335.457 230.25 335.973C232.606 336.521 237.72 335.479 238.131 335.396C238.76 338.347 239.583 341.254 240.593 344.098C241.179 345.762 241.817 347.419 242.471 349.068C242.06 348.361 241.71 347.723 241.627 347.647C239.902 345.314 235.228 341.818 232.195 342.829C231.698 343.018 231.246 343.309 230.869 343.684C230.491 344.058 230.197 344.508 230.004 345.004C229.811 345.499 229.725 346.03 229.75 346.561C229.775 347.093 229.912 347.613 230.151 348.088C231.101 350.17 233.639 351.371 235.737 351.888C237.834 352.405 242.235 351.584 243.39 351.356C243.649 351.987 243.899 352.617 244.15 353.248C245.404 356.288 246.673 359.29 247.821 362.285C248.064 362.923 248.292 363.561 248.52 364.192L250.04 364.344C249.729 363.463 249.409 362.611 249.06 361.76Z" fill="#BABABA"/>
<path d="M254.79 102.698C255.433 103.054 256.026 103.493 256.554 104.005M247.107 122.83L247.608 125.832L250.952 126.129L251.956 123.286C253.052 123.188 254.132 122.953 255.17 122.587L257.283 124.73L260.186 123.051L259.388 120.163C260.229 119.448 260.977 118.631 261.615 117.731L264.564 118.278L265.985 115.238L263.667 113.33C263.942 112.263 264.083 111.165 264.085 110.062L266.836 108.816L266.251 105.51L263.211 105.274C262.825 104.258 262.315 103.293 261.691 102.402L263.257 99.7568L260.886 97.3856L258.226 98.9664C256.692 97.9312 254.961 97.2247 253.141 96.8916L252.381 93.8516H249.022L248.262 96.8916C247.213 97.0854 246.192 97.407 245.222 97.8492L242.828 95.7744L240.077 97.6972L241.209 100.661C240.47 101.414 239.824 102.254 239.286 103.162L236.125 102.835L234.977 105.989L237.592 107.76C237.469 108.495 237.408 109.24 237.409 109.986C237.409 110.306 237.409 110.617 237.409 110.929L234.666 112.449L235.532 115.686L238.64 115.648C239.102 116.616 239.676 117.527 240.35 118.362L239.005 121.158L241.574 123.309L244.112 121.599L247.107 122.83ZM258.051 105.928C258.95 107.528 259.298 109.38 259.04 111.198C258.783 113.016 257.934 114.698 256.625 115.985C255.316 117.272 253.62 118.093 251.798 118.32C249.976 118.547 248.13 118.169 246.545 117.242C244.96 116.316 243.724 114.894 243.028 113.195C242.331 111.496 242.214 109.616 242.693 107.843C243.172 106.071 244.22 104.506 245.678 103.389C247.135 102.272 248.919 101.666 250.755 101.664C251.157 101.664 251.558 101.694 251.956 101.756L258.051 105.928Z" stroke="black" stroke-miterlimit="10"/>
<path d="M262.74 273.85C263.383 274.206 263.976 274.645 264.503 275.157M255.026 294.013L255.527 297.015L258.871 297.311L259.874 294.469C260.971 294.37 262.051 294.136 263.089 293.77L265.202 295.913L268.105 294.233L267.345 291.345C268.186 290.63 268.934 289.813 269.572 288.913L272.521 289.461L273.942 286.421L271.662 284.513C271.937 283.445 272.077 282.347 272.08 281.245L274.831 279.999L274.246 276.693L271.206 276.457C270.823 275.439 270.313 274.473 269.686 273.584L271.252 270.939L268.88 268.568L266.22 270.149C264.687 269.114 262.956 268.407 261.136 268.074L260.376 265.034H257.017L256.257 268.074C255.208 268.268 254.187 268.59 253.217 269.032L250.8 266.98L248.049 268.903L249.181 271.867C248.442 272.62 247.796 273.459 247.258 274.367L244.097 274.04L242.949 277.194L245.564 278.965C245.441 279.701 245.38 280.446 245.381 281.192C245.381 281.511 245.381 281.823 245.381 282.134L242.638 283.654L243.504 286.892L246.612 286.854C247.074 287.822 247.648 288.733 248.322 289.567L247 292.379L249.569 294.53L252.062 292.751L255.026 294.013ZM266 277.08C266.9 278.681 267.247 280.532 266.99 282.35C266.732 284.168 265.883 285.85 264.574 287.137C263.265 288.425 261.569 289.245 259.747 289.472C257.925 289.7 256.08 289.321 254.495 288.394C252.909 287.468 251.673 286.046 250.977 284.347C250.281 282.649 250.163 280.768 250.642 278.996C251.121 277.223 252.17 275.658 253.627 274.541C255.084 273.425 256.868 272.818 258.704 272.817C259.106 272.816 259.508 272.846 259.905 272.908L266 277.08Z" stroke="black" stroke-miterlimit="10"/>
<path d="M288.329 101.794C287.249 103.491 285.593 104.742 283.666 105.317C281.738 105.891 279.668 105.752 277.834 104.924C276.001 104.096 274.528 102.634 273.685 100.808C272.843 98.9814 272.687 96.9122 273.246 94.9801C273.806 93.0479 275.043 91.3822 276.731 90.2886C278.42 89.195 280.446 88.7469 282.438 89.0264C284.43 89.3058 286.254 90.2942 287.576 91.8102C288.899 93.3261 289.63 95.268 289.636 97.2795C289.636 97.4822 289.636 97.6874 289.636 97.8951M271.32 86.8219L271.761 87.9771C271.541 88.1975 271.328 88.4331 271.123 88.6687L271.32 86.8219ZM270.005 90.1887C269.945 90.2799 269.891 90.3711 269.838 90.4623L266.677 90.1431L265.529 93.2895L268.143 95.0603C268.018 95.7961 267.955 96.5409 267.953 97.2871C267.953 97.6063 267.953 97.9179 267.953 98.2295L265.202 99.7495L266.076 102.987H269.185C269.642 103.96 270.216 104.874 270.895 105.708L269.549 108.497L272.118 110.656L274.611 108.87C275.554 109.413 276.559 109.839 277.605 110.139L278.107 113.141L281.443 113.43L282.454 110.587C283.55 110.491 284.63 110.259 285.669 109.896L287.774 112.031L290.677 110.359L289.917 107.471C290.756 106.754 291.504 105.938 292.144 105.039L295.093 105.579L296.514 102.539L294.196 100.624C294.467 99.5577 294.608 98.4629 294.614 97.3631L297.365 96.1091L296.78 92.8107L293.74 92.5751C293.353 91.5566 292.842 90.5893 292.22 89.6947L293.786 87.0575L291.415 84.6863L288.755 86.2671C287.225 85.2256 285.492 84.5186 283.67 84.1923L282.91 81.1523H279.559L278.799 84.1923C277.751 84.3898 276.73 84.7113 275.759 85.1499L273.357 83.0751L270.613 84.9979L270.963 85.9099L270.005 90.1887ZM289.469 99.0123C289.356 99.5632 289.185 100.101 288.96 100.616L289.469 99.0123Z" stroke="black" stroke-miterlimit="10"/>
<path d="M90.843 158.923C94.6717 159.1 98.302 160.677 101.044 163.354C103.787 166.032 105.45 169.624 105.717 173.447C105.985 177.27 104.839 181.059 102.497 184.093C100.155 187.127 96.7801 189.194 93.0135 189.903C89.2469 190.612 85.3511 189.912 82.0665 187.937C78.7818 185.962 76.3372 182.849 75.197 179.19C74.0569 175.531 74.3007 171.58 75.8821 168.089C77.4636 164.598 80.2725 161.809 83.775 160.253M70.855 190.22L68.3394 195.441L73.1426 199.469L77.7938 196.133C79.5579 197.152 81.442 197.949 83.4026 198.504L84.3298 204.113L90.577 204.66L92.4542 199.34C94.5048 199.157 96.5244 198.718 98.4658 198.033L102.403 202.038L107.829 198.907L106.309 193.511C107.882 192.168 109.283 190.636 110.481 188.951L115.991 189.961L118.644 184.284L114.319 180.712C114.824 178.725 115.079 176.683 115.079 174.632L120.217 172.291L119.13 166.12L113.461 165.679C112.736 163.781 111.784 161.976 110.626 160.306L113.544 155.366L109.113 150.935L104.135 153.892C101.276 151.947 98.0393 150.626 94.6354 150.016L93.199 144.331H86.929L85.485 150.046C83.5431 150.418 81.6526 151.02 79.8534 151.84L75.3694 147.964L70.2394 151.559L72.3522 157.099C70.9739 158.507 69.7672 160.074 68.7574 161.765L62.8522 161.157L60.709 167.047L65.5958 170.361C65.3636 171.737 65.2467 173.13 65.2462 174.526C65.2462 175.119 65.269 175.704 65.3146 176.281L60.1694 179.154L61.7958 185.234L67.6098 185.166C68.2526 186.535 69.0156 187.845 69.8898 189.08L70.855 190.22ZM84.8922 159.805C85.575 159.565 86.2733 159.372 86.9822 159.227L84.8922 159.805Z" stroke="black" stroke-miterlimit="10"/>
<path d="M151.148 173.349L144.932 169.336" stroke="#263238" stroke-width="3" stroke-linecap="round" stroke-linejoin="round"/>
<path d="M161.948 161.28L160.337 159.935" stroke="#263238" stroke-width="3" stroke-linecap="round" stroke-linejoin="round"/>
<path d="M143.799 196.665L130.933 193.442" stroke="#263238" stroke-width="3" stroke-linecap="round" stroke-linejoin="round"/>
<path d="M213.339 275.751C213.245 275.75 213.15 275.737 213.058 275.713C212.762 275.635 212.508 275.444 212.351 275.181C211.956 274.489 211.743 274.117 214.951 270.438C208.035 274.671 207.298 274.497 206.895 274.398C206.579 274.305 206.309 274.099 206.135 273.82C205.496 272.718 205.375 272.498 218.173 262.025C216.121 263.355 213.985 264.784 212.093 266.045C200.83 273.562 197.326 275.697 195.776 275.34C195.588 275.297 195.411 275.217 195.255 275.103C195.1 274.989 194.969 274.845 194.871 274.679C194.187 273.493 194.187 273.493 209.311 262.565L212.306 260.406C210.558 261.569 208.817 262.755 207.221 263.841C195.32 271.935 189.901 275.431 187.872 274.975C187.66 274.928 187.461 274.835 187.288 274.704C187.115 274.573 186.972 274.406 186.869 274.215C186.109 272.931 185.957 272.642 207.951 257.701L179.025 274.421C178.768 274.564 178.464 274.601 178.18 274.522C177.896 274.444 177.654 274.258 177.505 274.003C176.996 273.121 177.391 272.042 179.481 270.203C176.153 272.118 174.222 272.885 173.272 272.665C173.075 272.619 172.888 272.535 172.724 272.416C172.559 272.297 172.42 272.147 172.315 271.973C171.684 270.879 171.927 269.868 179.975 264.457C171.676 269.648 168.613 271.175 167.42 270.894C167.243 270.853 167.076 270.775 166.93 270.667C166.783 270.558 166.661 270.421 166.569 270.263C166.014 269.313 166.531 268.971 168.439 267.71L172.641 264.966L179.071 260.809C171.988 264.487 170.924 264.237 170.331 264.092C170.131 264.047 169.943 263.961 169.777 263.841C169.611 263.721 169.471 263.569 169.366 263.393C169.226 263.135 169.19 262.834 169.267 262.551C169.343 262.268 169.526 262.025 169.776 261.873C192.082 248.649 226.518 227.437 234.817 220.423C226.541 224.185 201.795 239.552 187.697 248.33C169.541 259.616 169.457 259.593 168.697 259.395C168.54 259.36 168.392 259.294 168.261 259.199C168.131 259.105 168.02 258.986 167.937 258.848C167.321 257.784 167.352 257.1 174.617 252.601C171.273 254.174 169.069 254.881 168.097 254.653C167.884 254.603 167.683 254.51 167.508 254.379C167.333 254.249 167.187 254.083 167.078 253.893C166.933 253.64 166.89 253.341 166.96 253.058C167.029 252.775 167.205 252.53 167.451 252.373C189.962 238.032 221.631 217.725 234.551 209.144C230.956 210.976 226.13 213.704 220.765 216.919C216.425 219.708 211.28 222.953 205.192 226.738C197.151 231.747 189.019 236.709 182.248 240.813C165.893 251.134 165.695 251.089 164.897 250.891C164.74 250.853 164.592 250.785 164.462 250.69C164.331 250.594 164.221 250.474 164.137 250.336C163.997 250.079 163.961 249.777 164.038 249.494C164.114 249.211 164.297 248.968 164.547 248.816C169.472 245.89 174.906 242.63 180.545 239.21L183.509 237.34C171.699 244.097 165.171 247.053 163.248 246.582C163.026 246.538 162.815 246.448 162.63 246.317C162.446 246.186 162.291 246.017 162.176 245.822C161.469 244.606 162.473 243.055 170.802 237.614C165.429 240.889 163.301 241.862 162.397 241.642C162.224 241.603 162.062 241.529 161.919 241.424C161.777 241.32 161.657 241.187 161.568 241.034C161.089 240.205 160.702 239.514 166.265 235.478C163.271 236.998 161.378 237.614 160.474 237.393C160.269 237.349 160.075 237.263 159.905 237.14C159.735 237.017 159.592 236.86 159.486 236.679C159.409 236.548 159.36 236.404 159.34 236.254C159.321 236.103 159.332 235.951 159.372 235.805C159.452 235.514 159.643 235.266 159.904 235.113C184.566 221.091 221.912 198.884 233.282 189.924C220.81 196.809 186.428 216.995 162.435 231.222C162.305 231.299 162.162 231.349 162.013 231.369C161.864 231.39 161.712 231.381 161.566 231.343C161.421 231.305 161.284 231.238 161.165 231.147C161.045 231.056 160.945 230.942 160.869 230.812C160.753 230.603 160.68 230.373 160.655 230.135C160.63 229.897 160.654 229.657 160.725 229.429C161.148 228.465 161.788 227.612 162.594 226.936C160.823 227.658 159.638 227.924 158.961 227.757C158.751 227.705 158.554 227.611 158.381 227.481C158.208 227.35 158.065 227.185 157.958 226.997C157.274 225.819 158.581 224.907 160.557 223.531C162.077 222.505 164.228 221.084 167.238 219.199C172.854 215.688 180.561 211.037 188.723 206.119C197.896 200.587 208.795 194.013 217.451 188.571C198.93 199.211 169.761 216.25 155.754 224.443C155.489 224.593 155.175 224.634 154.88 224.557C154.735 224.519 154.6 224.452 154.481 224.361C154.362 224.269 154.263 224.155 154.189 224.025C153.603 223.007 153.429 222.71 163.499 216.372C159.554 218.538 157.061 219.473 155.792 219.176C155.553 219.126 155.326 219.027 155.127 218.884C154.928 218.741 154.761 218.559 154.637 218.348C153.877 217.041 153.877 217.041 172.163 206.423C180.621 201.514 190.714 195.647 200.001 190.007C207.799 184.824 213.902 180.887 218.53 178.151C220.958 176.536 223.262 174.743 225.423 172.786C215.931 177.049 178.448 199.713 154.743 214.457C154.488 214.618 154.178 214.671 153.883 214.604C153.588 214.537 153.332 214.355 153.17 214.099C153.009 213.843 152.956 213.534 153.023 213.239C153.09 212.944 153.272 212.687 153.527 212.526L160.884 207.845C154.804 210.968 152.524 211.493 151.59 211.257C151.377 211.208 151.178 211.114 151.004 210.984C150.83 210.853 150.685 210.687 150.579 210.497C150.431 210.245 150.388 209.945 150.457 209.662C150.527 209.378 150.704 209.132 150.951 208.977L167.147 198.595C153.907 206.074 152.836 205.808 152.182 205.641C152.008 205.6 151.845 205.525 151.701 205.419C151.557 205.313 151.437 205.179 151.346 205.025C151.204 204.77 151.165 204.471 151.237 204.188C151.309 203.905 151.487 203.661 151.734 203.505C168.803 192.949 193.055 177.665 207.214 168.081C195.776 174.671 179.094 184.459 167.36 191.36L154.28 198.96C151.377 200.655 149.971 201.483 149.218 201.863L149.021 201.985C148.496 202.236 148.367 202.198 148.147 202.137C147.932 202.08 147.739 201.961 147.591 201.796C147.443 201.63 147.347 201.425 147.314 201.206C147.28 200.986 147.312 200.762 147.405 200.56C147.497 200.358 147.647 200.188 147.835 200.07C165.938 188.875 192.675 172.003 204.653 163.704C198.276 167.397 188.753 173.47 181.093 178.372C159.615 192.052 153.087 195.989 151.194 195.517C151.014 195.475 150.845 195.396 150.696 195.286C150.547 195.177 150.422 195.038 150.328 194.879C149.857 194.051 149.515 193.465 156.651 188.32C154.705 189.179 153.391 189.506 152.623 189.323C152.406 189.274 152.201 189.181 152.021 189.051C151.841 188.92 151.689 188.754 151.574 188.563C151.433 188.309 151.394 188.011 151.465 187.728C151.535 187.446 151.71 187.201 151.954 187.043C165.976 178.22 187.287 164.388 194.613 158.665C188.199 161.804 174.199 170.825 165.961 176.099C152.501 184.68 152 184.893 151.141 184.68C150.984 184.643 150.835 184.575 150.704 184.48C150.574 184.385 150.464 184.264 150.381 184.125C149.773 183.084 149.241 182.157 162.42 173.097C160.793 174.131 159.129 175.203 157.426 176.297C157.286 176.411 157.121 176.491 156.944 176.532C156.768 176.573 156.584 176.573 156.408 176.533C156.258 176.497 156.117 176.43 155.994 176.337C155.871 176.245 155.769 176.127 155.693 175.993C154.88 174.587 156.051 173.379 165.3 166.288C165.13 166.252 164.97 166.18 164.83 166.078C164.69 165.976 164.573 165.846 164.487 165.695C164.346 165.433 164.312 165.126 164.393 164.84C164.474 164.553 164.663 164.31 164.92 164.16C165.133 164.043 165.377 163.992 165.619 164.015C166.821 163.317 167.986 162.556 169.107 161.735C172.816 159.129 173.865 158.505 174.769 158.695C174.946 158.734 175.113 158.809 175.259 158.914C175.406 159.02 175.529 159.155 175.621 159.311C176.274 160.451 175.765 161.135 169.541 165.953C171.273 164.882 173.059 163.772 174.861 162.678C192.432 151.931 193.792 152.251 194.621 152.448C194.803 152.487 194.975 152.564 195.126 152.674C195.276 152.784 195.402 152.925 195.495 153.087C195.638 153.341 195.678 153.64 195.607 153.922C195.537 154.205 195.36 154.45 195.115 154.607C186.542 159.927 177.635 165.687 170.164 170.665C187.507 159.592 195.844 154.705 198.193 155.298C198.396 155.344 198.589 155.43 198.757 155.553C198.926 155.676 199.067 155.833 199.173 156.013C199.895 157.267 200.419 158.179 176.426 173.971L172.976 176.251C177.809 173.211 182.704 170.019 186.656 167.435C202.046 157.449 204.539 155.982 205.701 156.256C205.861 156.298 206.01 156.371 206.141 156.471C206.271 156.572 206.38 156.698 206.461 156.841C206.607 157.094 206.649 157.393 206.58 157.676C206.511 157.959 206.335 158.204 206.089 158.361C191.208 167.846 169.472 182.005 158.726 189.612C164.502 186.207 172.687 180.986 179.816 176.441C202.411 162.001 209.783 157.631 211.865 158.133C212.051 158.178 212.227 158.259 212.381 158.373C212.535 158.486 212.664 158.63 212.762 158.794C213.317 159.759 213.719 160.443 200.503 169.267C219.024 158.521 219.381 158.627 219.967 158.764C220.116 158.802 220.255 158.869 220.378 158.962C220.501 159.055 220.604 159.171 220.681 159.303C221.441 160.618 221.981 161.583 187.036 183.912C184.497 185.539 181.951 187.157 179.436 188.738C193.268 180.561 209.752 170.498 222.239 162.701C222.37 162.621 222.515 162.568 222.666 162.544C222.818 162.521 222.972 162.527 223.121 162.564C223.42 162.64 223.676 162.831 223.835 163.096C224.375 164.038 223.577 164.616 222.733 165.193C222.216 165.551 221.456 166.067 220.453 166.713C218.614 167.937 215.893 169.753 212.382 172.033C206.469 175.887 198.208 181.229 187.826 187.917C177.825 194.355 167.747 200.837 160.839 205.253C169.966 200.427 187.72 190 221.92 168.15C226.845 165.011 226.845 165.011 227.346 165.11C227.497 165.147 227.638 165.214 227.762 165.306C227.886 165.399 227.99 165.516 228.068 165.649C228.349 166.136 228.509 166.409 227.597 167.223C226.381 168.287 223.356 170.263 216.455 174.747C226.229 169.389 227.141 169.609 227.734 169.761C227.906 169.8 228.069 169.874 228.212 169.979C228.354 170.083 228.473 170.216 228.562 170.369C228.973 171.083 229.071 171.942 227.551 173.645C228.151 173.457 228.785 173.411 229.406 173.508C229.654 173.559 229.888 173.663 230.094 173.811C230.299 173.958 230.471 174.148 230.599 174.367C231.359 175.674 231.739 176.343 209.159 190.585C233.069 176.738 233.305 176.799 233.875 176.951C234.021 176.988 234.158 177.054 234.278 177.146C234.399 177.237 234.499 177.352 234.574 177.483C235.334 178.744 233.966 180.013 230.698 182.4C228.593 183.92 225.621 185.926 221.639 188.48C234.916 180.188 238.245 178.471 239.43 178.759C239.598 178.8 239.756 178.874 239.894 178.978C240.033 179.081 240.149 179.211 240.236 179.36C240.312 179.489 240.362 179.633 240.381 179.781C240.401 179.93 240.39 180.082 240.35 180.226C240.311 180.373 240.244 180.51 240.151 180.631C240.058 180.751 239.942 180.851 239.81 180.925C232.058 185.318 224.177 189.863 216.562 194.347L208.673 199.333C193.161 209.152 181.845 216.212 173.903 220.833C171.388 222.558 169.237 224.093 167.511 225.393C174.579 221.213 186.618 214.107 198.671 207.077C236.671 184.839 237.249 184.999 237.971 185.189C238.12 185.227 238.26 185.295 238.382 185.387C238.505 185.48 238.608 185.596 238.685 185.729C238.795 185.923 238.865 186.138 238.89 186.36C238.915 186.582 238.894 186.807 238.83 187.021C238.606 187.757 238.176 188.413 237.591 188.913C240.198 187.613 241.832 187.081 242.638 187.271C242.833 187.316 243.018 187.401 243.18 187.52C243.342 187.639 243.478 187.79 243.58 187.963C244.188 189.012 243.337 189.582 241.459 190.828C240.327 191.588 238.655 192.645 236.337 194.089L235.889 194.37C239.43 192.675 241.916 191.877 243.162 192.181C243.416 192.234 243.657 192.338 243.869 192.489C244.081 192.639 244.26 192.832 244.393 193.055C245.442 194.871 244.393 196.027 207.313 217.96C191.74 227.24 171.167 239.4 165.558 243.96C168.651 242.873 176.358 239.149 195.51 227.559C211.12 218.112 228.311 207.085 236.55 201.787C242.273 198.117 242.265 198.124 242.774 198.246C243.077 198.323 243.337 198.517 243.496 198.785C243.96 199.591 244.431 200.404 238.176 205.063C239.06 204.664 240.03 204.496 240.996 204.577C241.209 204.627 241.409 204.72 241.584 204.851C241.759 204.982 241.906 205.147 242.014 205.337C242.683 206.499 242.683 206.499 230.386 214.555C224.306 218.523 215.87 224.002 205.23 230.842C194.97 237.439 184.627 244.059 177.543 248.581C191.892 240.889 218.781 223.835 230.743 216.25C241.383 209.524 241.383 209.524 241.961 209.669C242.11 209.707 242.25 209.774 242.372 209.867C242.495 209.959 242.598 210.076 242.675 210.208C243.489 211.622 242.197 213.628 237.196 217.345C237.342 217.324 237.49 217.324 237.637 217.345C237.823 217.389 237.998 217.471 238.152 217.584C238.306 217.698 238.436 217.841 238.533 218.006C239.331 219.389 240.236 220.955 206.507 242.075C216.205 236.101 226.267 229.748 234.391 224.481C234.521 224.396 234.667 224.339 234.82 224.313C234.973 224.286 235.13 224.291 235.281 224.328C235.431 224.364 235.573 224.431 235.697 224.524C235.822 224.617 235.925 224.734 236.003 224.869C236.557 225.841 235.79 226.389 234.483 227.301C233.723 227.84 232.575 228.631 231.07 229.634C229.565 230.637 227.696 231.914 225.439 233.373C228.585 231.777 230.531 231.131 231.519 231.374C231.733 231.423 231.935 231.515 232.112 231.646C232.289 231.777 232.436 231.943 232.545 232.134C233.183 233.236 233.039 233.654 225.348 238.625C226.966 237.933 228.114 237.682 228.851 237.865C229.08 237.914 229.296 238.01 229.486 238.148C229.676 238.285 229.835 238.46 229.953 238.663C230.85 240.183 230.174 240.897 209.578 253.369C203.68 256.941 196.255 261.432 190.243 265.308L230.683 241.969C230.812 241.892 230.955 241.842 231.104 241.823C231.253 241.803 231.404 241.814 231.549 241.855C231.839 241.932 232.088 242.12 232.241 242.379C232.803 243.359 232.005 243.945 230.683 244.917C229.885 245.503 228.714 246.331 227.103 247.441C224.101 249.523 219.929 252.343 215.513 255.337C210.368 258.818 203.893 263.203 198.588 266.889C201.027 265.278 203.566 263.553 205.823 262.017C217.58 254.022 222.543 250.823 224.481 251.248C224.684 251.293 224.876 251.378 225.045 251.5C225.213 251.622 225.355 251.776 225.461 251.955C226.123 253.11 226.153 253.163 212.671 262.929C222.452 256.424 225.651 254.569 227.111 254.896C227.299 254.939 227.476 255.02 227.631 255.133C227.787 255.247 227.917 255.391 228.015 255.557C228.547 256.485 228.547 256.485 221.745 262.04C219.693 263.712 216.843 266.038 214.274 268.189C216.357 266.904 218.652 265.445 220.833 264.031C220.963 263.947 221.109 263.889 221.262 263.863C221.415 263.837 221.571 263.842 221.722 263.878C221.873 263.914 222.015 263.981 222.139 264.074C222.263 264.167 222.367 264.284 222.444 264.419C222.87 265.179 222.71 265.331 221.152 267.003C219.883 268.363 218.796 269.557 217.877 270.575C224.777 266.463 225.028 266.532 225.515 266.653C225.662 266.692 225.801 266.759 225.922 266.852C226.044 266.945 226.146 267.061 226.221 267.193C226.297 267.322 226.347 267.466 226.367 267.614C226.387 267.763 226.377 267.914 226.339 268.059C226.3 268.204 226.232 268.34 226.14 268.459C226.049 268.578 225.934 268.677 225.803 268.751C225.693 268.817 225.573 268.864 225.446 268.888C224.436 269.344 218.819 272.65 213.871 275.644C213.705 275.72 213.523 275.757 213.339 275.751ZM224.306 268.28C224.427 268.484 224.607 268.646 224.823 268.743C224.609 268.643 224.43 268.482 224.306 268.28ZM196.247 256.675C189.681 260.771 183.221 264.875 179.01 267.801C183.593 265.073 190.251 260.68 196.247 256.675ZM224.511 236.436C217.056 240.57 204.995 248.337 195.829 254.258C199.204 252.153 203.049 249.774 207.419 247.083C213.438 243.382 219.921 239.4 224.511 236.436ZM224.025 241.756C219.974 243.914 213.826 247.836 207.829 251.75L208.46 251.37C214.062 247.965 220.141 244.279 224.025 241.741V241.756ZM186.656 224.686C181.64 227.825 177.08 230.781 173.28 233.32C177.217 230.804 181.883 227.787 186.656 224.686ZM240.76 194.795C238.556 195.555 233.882 197.683 223.995 203.619C214.107 209.555 202.16 217.36 191.52 224.276C186.876 227.316 182.97 229.824 179.671 231.937C186.071 228 194.666 222.855 206.15 216.06C220.126 207.769 235.752 198.527 240.76 194.795ZM233.624 217.094L232.013 218.12C226.693 221.499 221.654 224.679 216.896 227.658C223.242 223.843 229.239 220.111 233.624 217.094ZM183.221 212.04C176.251 216.25 169.48 220.4 164.981 223.235C167.261 222.072 170.004 220.514 173.105 218.675C176.153 216.6 179.565 214.358 183.221 212.04ZM201.065 191.961C198.147 193.906 195.274 195.837 192.584 197.638C187.264 201.225 182.537 204.356 178.44 207.047L182.628 204.463C198.018 194.978 220.24 181.267 226.776 176.297C224.359 177.377 222.016 178.616 219.761 180.006C217.162 181.822 213.856 184.003 209.669 186.648C206.94 188.358 204.045 190.137 201.065 191.945V191.961Z" fill="#4DC452"/>
<g opacity="0.4">
<path opacity="0.4" d="M213.339 275.751C213.245 275.75 213.15 275.737 213.058 275.713C212.762 275.635 212.508 275.444 212.351 275.181C211.956 274.489 211.743 274.117 214.951 270.438C208.035 274.671 207.298 274.497 206.895 274.398C206.579 274.305 206.309 274.099 206.135 273.82C205.496 272.718 205.375 272.498 218.173 262.025C216.121 263.355 213.985 264.784 212.093 266.045C200.83 273.562 197.326 275.697 195.776 275.34C195.588 275.297 195.411 275.217 195.255 275.103C195.1 274.989 194.969 274.845 194.871 274.679C194.187 273.493 194.187 273.493 209.311 262.565L212.306 260.406C210.558 261.569 208.817 262.755 207.221 263.841C195.32 271.935 189.901 275.431 187.872 274.975C187.66 274.928 187.461 274.835 187.288 274.704C187.115 274.573 186.972 274.406 186.869 274.215C186.109 272.931 185.957 272.642 207.951 257.701L179.025 274.421C178.768 274.564 178.464 274.601 178.18 274.522C177.896 274.444 177.654 274.258 177.505 274.003C176.996 273.121 177.391 272.042 179.481 270.203C176.153 272.118 174.222 272.885 173.272 272.665C173.075 272.619 172.888 272.535 172.724 272.416C172.559 272.297 172.42 272.147 172.315 271.973C171.684 270.879 171.927 269.868 179.975 264.457C171.676 269.648 168.613 271.175 167.42 270.894C167.243 270.853 167.076 270.775 166.93 270.667C166.783 270.558 166.661 270.421 166.569 270.263C166.014 269.313 166.531 268.971 168.439 267.71L172.641 264.966L179.071 260.809C171.988 264.487 170.924 264.237 170.331 264.092C170.131 264.047 169.943 263.961 169.777 263.841C169.611 263.721 169.471 263.569 169.366 263.393C169.226 263.135 169.19 262.834 169.267 262.551C169.343 262.268 169.526 262.025 169.776 261.873C192.082 248.649 226.518 227.437 234.817 220.423C226.541 224.185 201.795 239.552 187.697 248.33C169.541 259.616 169.457 259.593 168.697 259.395C168.54 259.36 168.392 259.294 168.261 259.199C168.131 259.105 168.02 258.986 167.937 258.848C167.321 257.784 167.352 257.1 174.617 252.601C171.273 254.174 169.069 254.881 168.097 254.653C167.884 254.603 167.683 254.51 167.508 254.379C167.333 254.249 167.187 254.083 167.078 253.893C166.933 253.64 166.89 253.341 166.96 253.058C167.029 252.775 167.205 252.53 167.451 252.373C189.962 238.032 221.631 217.725 234.551 209.144C230.956 210.976 226.13 213.704 220.765 216.919C216.425 219.708 211.28 222.953 205.192 226.738C197.151 231.747 189.019 236.709 182.248 240.813C165.893 251.134 165.695 251.089 164.897 250.891C164.74 250.853 164.592 250.785 164.462 250.69C164.331 250.594 164.221 250.474 164.137 250.336C163.997 250.079 163.961 249.777 164.038 249.494C164.114 249.211 164.297 248.968 164.547 248.816C169.472 245.89 174.906 242.63 180.545 239.21L183.509 237.34C171.699 244.097 165.171 247.053 163.248 246.582C163.026 246.538 162.815 246.448 162.63 246.317C162.446 246.186 162.291 246.017 162.176 245.822C161.469 244.606 162.473 243.055 170.802 237.614C165.429 240.889 163.301 241.862 162.397 241.642C162.224 241.603 162.062 241.529 161.919 241.424C161.777 241.32 161.657 241.187 161.568 241.034C161.089 240.205 160.702 239.514 166.265 235.478C163.271 236.998 161.378 237.614 160.474 237.393C160.269 237.349 160.075 237.263 159.905 237.14C159.735 237.017 159.592 236.86 159.486 236.679C159.409 236.548 159.36 236.404 159.34 236.254C159.321 236.103 159.332 235.951 159.372 235.805C159.452 235.514 159.643 235.266 159.904 235.113C184.566 221.091 221.912 198.884 233.282 189.924C220.81 196.809 186.428 216.995 162.435 231.222C162.305 231.299 162.162 231.349 162.013 231.369C161.864 231.39 161.712 231.381 161.566 231.343C161.421 231.305 161.284 231.238 161.165 231.147C161.045 231.056 160.945 230.942 160.869 230.812C160.753 230.603 160.68 230.373 160.655 230.135C160.63 229.897 160.654 229.657 160.725 229.429C161.148 228.465 161.788 227.612 162.594 226.936C160.823 227.658 159.638 227.924 158.961 227.757C158.751 227.705 158.554 227.611 158.381 227.481C158.208 227.35 158.065 227.185 157.958 226.997C157.274 225.819 158.581 224.907 160.557 223.531C162.077 222.505 164.228 221.084 167.238 219.199C172.854 215.688 180.561 211.037 188.723 206.119C197.896 200.587 208.795 194.013 217.451 188.571C198.93 199.211 169.761 216.25 155.754 224.443C155.489 224.593 155.175 224.634 154.88 224.557C154.735 224.519 154.6 224.452 154.481 224.361C154.362 224.269 154.263 224.155 154.189 224.025C153.603 223.007 153.429 222.71 163.499 216.372C159.554 218.538 157.061 219.473 155.792 219.176C155.553 219.126 155.326 219.027 155.127 218.884C154.928 218.741 154.761 218.559 154.637 218.348C153.877 217.041 153.877 217.041 172.163 206.423C180.621 201.514 190.714 195.647 200.001 190.007C207.799 184.824 213.902 180.887 218.53 178.151C220.958 176.536 223.262 174.743 225.423 172.786C215.931 177.049 178.448 199.713 154.743 214.457C154.488 214.618 154.178 214.671 153.883 214.604C153.588 214.537 153.332 214.355 153.17 214.099C153.009 213.843 152.956 213.534 153.023 213.239C153.09 212.944 153.272 212.687 153.527 212.526L160.884 207.845C154.804 210.968 152.524 211.493 151.59 211.257C151.377 211.208 151.178 211.114 151.004 210.984C150.83 210.853 150.685 210.687 150.579 210.497C150.431 210.245 150.388 209.945 150.457 209.662C150.527 209.378 150.704 209.132 150.951 208.977L167.147 198.595C153.907 206.074 152.836 205.808 152.182 205.641C152.008 205.6 151.845 205.525 151.701 205.419C151.557 205.313 151.437 205.179 151.346 205.025C151.204 204.77 151.165 204.471 151.237 204.188C151.309 203.905 151.487 203.661 151.734 203.505C168.803 192.949 193.055 177.665 207.214 168.081C195.776 174.671 179.094 184.459 167.36 191.36L154.28 198.96C151.377 200.655 149.971 201.483 149.218 201.863L149.021 201.985C148.496 202.236 148.367 202.198 148.147 202.137C147.932 202.08 147.739 201.961 147.591 201.796C147.443 201.63 147.347 201.425 147.314 201.206C147.28 200.986 147.312 200.762 147.405 200.56C147.497 200.358 147.647 200.188 147.835 200.07C165.938 188.875 192.675 172.003 204.653 163.704C198.276 167.397 188.753 173.47 181.093 178.372C159.615 192.052 153.087 195.989 151.194 195.517C151.014 195.475 150.845 195.396 150.696 195.286C150.547 195.177 150.422 195.038 150.328 194.879C149.857 194.051 149.515 193.465 156.651 188.32C154.705 189.179 153.391 189.506 152.623 189.323C152.406 189.274 152.201 189.181 152.021 189.051C151.841 188.92 151.689 188.754 151.574 188.563C151.433 188.309 151.394 188.011 151.465 187.728C151.535 187.446 151.71 187.201 151.954 187.043C165.976 178.22 187.287 164.388 194.613 158.665C188.199 161.804 174.199 170.825 165.961 176.099C152.501 184.68 152 184.893 151.141 184.68C150.984 184.643 150.835 184.575 150.704 184.48C150.574 184.385 150.464 184.264 150.381 184.125C149.773 183.084 149.241 182.157 162.42 173.097C160.793 174.131 159.129 175.203 157.426 176.297C157.286 176.411 157.121 176.491 156.944 176.532C156.768 176.573 156.584 176.573 156.408 176.533C156.258 176.497 156.117 176.43 155.994 176.337C155.871 176.245 155.769 176.127 155.693 175.993C154.88 174.587 156.051 173.379 165.3 166.288C165.13 166.252 164.97 166.18 164.83 166.078C164.69 165.976 164.573 165.846 164.487 165.695C164.346 165.433 164.312 165.126 164.393 164.84C164.474 164.553 164.663 164.31 164.92 164.16C165.133 164.043 165.377 163.992 165.619 164.015C166.821 163.317 167.986 162.556 169.107 161.735C172.816 159.129 173.865 158.505 174.769 158.695C174.946 158.734 175.113 158.809 175.259 158.914C175.406 159.02 175.529 159.155 175.621 159.311C176.274 160.451 175.765 161.135 169.541 165.953C171.273 164.882 173.059 163.772 174.861 162.678C192.432 151.931 193.792 152.251 194.621 152.448C194.803 152.487 194.975 152.564 195.126 152.674C195.276 152.784 195.402 152.925 195.495 153.087C195.638 153.341 195.678 153.64 195.607 153.922C195.537 154.205 195.36 154.45 195.115 154.607C186.542 159.927 177.635 165.687 170.164 170.665C187.507 159.592 195.844 154.705 198.193 155.298C198.396 155.344 198.589 155.43 198.757 155.553C198.926 155.676 199.067 155.833 199.173 156.013C199.895 157.267 200.419 158.179 176.426 173.971L172.976 176.251C177.809 173.211 182.704 170.019 186.656 167.435C202.046 157.449 204.539 155.982 205.701 156.256C205.861 156.298 206.01 156.371 206.141 156.471C206.271 156.572 206.38 156.698 206.461 156.841C206.607 157.094 206.649 157.393 206.58 157.676C206.511 157.959 206.335 158.204 206.089 158.361C191.208 167.846 169.472 182.005 158.726 189.612C164.502 186.207 172.687 180.986 179.816 176.441C202.411 162.001 209.783 157.631 211.865 158.133C212.051 158.178 212.227 158.259 212.381 158.373C212.535 158.486 212.664 158.63 212.762 158.794C213.317 159.759 213.719 160.443 200.503 169.267C219.024 158.521 219.381 158.627 219.967 158.764C220.116 158.802 220.255 158.869 220.378 158.962C220.501 159.055 220.604 159.171 220.681 159.303C221.441 160.618 221.981 161.583 187.036 183.912C184.497 185.539 181.951 187.157 179.436 188.738C193.268 180.561 209.752 170.498 222.239 162.701C222.37 162.621 222.515 162.568 222.666 162.544C222.818 162.521 222.972 162.527 223.121 162.564C223.42 162.64 223.676 162.831 223.835 163.096C224.375 164.038 223.577 164.616 222.733 165.193C222.216 165.551 221.456 166.067 220.453 166.713C218.614 167.937 215.893 169.753 212.382 172.033C206.469 175.887 198.208 181.229 187.826 187.917C177.825 194.355 167.747 200.837 160.839 205.253C169.966 200.427 187.72 190 221.92 168.15C226.845 165.011 226.845 165.011 227.346 165.11C227.497 165.147 227.638 165.214 227.762 165.306C227.886 165.399 227.99 165.516 228.068 165.649C228.349 166.136 228.509 166.409 227.597 167.223C226.381 168.287 223.356 170.263 216.455 174.747C226.229 169.389 227.141 169.609 227.734 169.761C227.906 169.8 228.069 169.874 228.212 169.979C228.354 170.083 228.473 170.216 228.562 170.369C228.973 171.083 229.071 171.942 227.551 173.645C228.151 173.457 228.785 173.411 229.406 173.508C229.654 173.559 229.888 173.663 230.094 173.811C230.299 173.958 230.471 174.148 230.599 174.367C231.359 175.674 231.739 176.343 209.159 190.585C233.069 176.738 233.305 176.799 233.875 176.951C234.021 176.988 234.158 177.054 234.278 177.146C234.399 177.237 234.499 177.352 234.574 177.483C235.334 178.744 233.966 180.013 230.698 182.4C228.593 183.92 225.621 185.926 221.639 188.48C234.916 180.188 238.245 178.471 239.43 178.759C239.598 178.8 239.756 178.874 239.894 178.978C240.033 179.081 240.149 179.211 240.236 179.36C240.312 179.489 240.362 179.633 240.381 179.781C240.401 179.93 240.39 180.082 240.35 180.226C240.311 180.373 240.244 180.51 240.151 180.631C240.058 180.751 239.942 180.851 239.81 180.925C232.058 185.318 224.177 189.863 216.562 194.347L208.673 199.333C193.161 209.152 181.845 216.212 173.903 220.833C171.388 222.558 169.237 224.093 167.511 225.393C174.579 221.213 186.618 214.107 198.671 207.077C236.671 184.839 237.249 184.999 237.971 185.189C238.12 185.227 238.26 185.295 238.382 185.387C238.505 185.48 238.608 185.596 238.685 185.729C238.795 185.923 238.865 186.138 238.89 186.36C238.915 186.582 238.894 186.807 238.83 187.021C238.606 187.757 238.176 188.413 237.591 188.913C240.198 187.613 241.832 187.081 242.638 187.271C242.833 187.316 243.018 187.401 243.18 187.52C243.342 187.639 243.478 187.79 243.58 187.963C244.188 189.012 243.337 189.582 241.459 190.828C240.327 191.588 238.655 192.645 236.337 194.089L235.889 194.37C239.43 192.675 241.916 191.877 243.162 192.181C243.416 192.234 243.657 192.338 243.869 192.489C244.081 192.639 244.26 192.832 244.393 193.055C245.442 194.871 244.393 196.027 207.313 217.96C191.74 227.24 171.167 239.4 165.558 243.96C168.651 242.873 176.358 239.149 195.51 227.559C211.12 218.112 228.311 207.085 236.55 201.787C242.273 198.117 242.265 198.124 242.774 198.246C243.077 198.323 243.337 198.517 243.496 198.785C243.96 199.591 244.431 200.404 238.176 205.063C239.06 204.664 240.03 204.496 240.996 204.577C241.209 204.627 241.409 204.72 241.584 204.851C241.759 204.982 241.906 205.147 242.014 205.337C242.683 206.499 242.683 206.499 230.386 214.555C224.306 218.523 215.87 224.002 205.23 230.842C194.97 237.439 184.627 244.059 177.543 248.581C191.892 240.889 218.781 223.835 230.743 216.25C241.383 209.524 241.383 209.524 241.961 209.669C242.11 209.707 242.25 209.774 242.372 209.867C242.495 209.959 242.598 210.076 242.675 210.208C243.489 211.622 242.197 213.628 237.196 217.345C237.342 217.324 237.49 217.324 237.637 217.345C237.823 217.389 237.998 217.471 238.152 217.584C238.306 217.698 238.436 217.841 238.533 218.006C239.331 219.389 240.236 220.955 206.507 242.075C216.205 236.101 226.267 229.748 234.391 224.481C234.521 224.396 234.667 224.339 234.82 224.313C234.973 224.286 235.13 224.291 235.281 224.328C235.431 224.364 235.573 224.431 235.697 224.524C235.822 224.617 235.925 224.734 236.003 224.869C236.557 225.841 235.79 226.389 234.483 227.301C233.723 227.84 232.575 228.631 231.07 229.634C229.565 230.637 227.696 231.914 225.439 233.373C228.585 231.777 230.531 231.131 231.519 231.374C231.733 231.423 231.935 231.515 232.112 231.646C232.289 231.777 232.436 231.943 232.545 232.134C233.183 233.236 233.039 233.654 225.348 238.625C226.966 237.933 228.114 237.682 228.851 237.865C229.08 237.914 229.296 238.01 229.486 238.148C229.676 238.285 229.835 238.46 229.953 238.663C230.85 240.183 230.174 240.897 209.578 253.369C203.68 256.941 196.255 261.432 190.243 265.308L230.683 241.969C230.812 241.892 230.955 241.842 231.104 241.823C231.253 241.803 231.404 241.814 231.549 241.855C231.839 241.932 232.088 242.12 232.241 242.379C232.803 243.359 232.005 243.945 230.683 244.917C229.885 245.503 228.714 246.331 227.103 247.441C224.101 249.523 219.929 252.343 215.513 255.337C210.368 258.818 203.893 263.203 198.588 266.889C201.027 265.278 203.566 263.553 205.823 262.017C217.58 254.022 222.543 250.823 224.481 251.248C224.684 251.293 224.876 251.378 225.045 251.5C225.213 251.622 225.355 251.776 225.461 251.955C226.123 253.11 226.153 253.163 212.671 262.929C222.452 256.424 225.651 254.569 227.111 254.896C227.299 254.939 227.476 255.02 227.631 255.133C227.787 255.247 227.917 255.391 228.015 255.557C228.547 256.485 228.547 256.485 221.745 262.04C219.693 263.712 216.843 266.038 214.274 268.189C216.357 266.904 218.652 265.445 220.833 264.031C220.963 263.947 221.109 263.889 221.262 263.863C221.415 263.837 221.571 263.842 221.722 263.878C221.873 263.914 222.015 263.981 222.139 264.074C222.263 264.167 222.367 264.284 222.444 264.419C222.87 265.179 222.71 265.331 221.152 267.003C219.883 268.363 218.796 269.557 217.877 270.575C224.777 266.463 225.028 266.532 225.515 266.653C225.662 266.692 225.801 266.759 225.922 266.852C226.044 266.945 226.146 267.061 226.221 267.193C226.297 267.322 226.347 267.466 226.367 267.614C226.387 267.763 226.377 267.914 226.339 268.059C226.3 268.204 226.232 268.34 226.14 268.459C226.049 268.578 225.934 268.677 225.803 268.751C225.693 268.817 225.573 268.864 225.446 268.888C224.436 269.344 218.819 272.65 213.871 275.644C213.705 275.72 213.523 275.757 213.339 275.751ZM224.306 268.28C224.427 268.484 224.607 268.646 224.823 268.743C224.609 268.643 224.43 268.482 224.306 268.28ZM196.247 256.675C189.681 260.771 183.221 264.875 179.01 267.801C183.593 265.073 190.251 260.68 196.247 256.675ZM224.511 236.436C217.056 240.57 204.995 248.337 195.829 254.258C199.204 252.153 203.049 249.774 207.419 247.083C213.438 243.382 219.921 239.4 224.511 236.436ZM224.025 241.756C219.974 243.914 213.826 247.836 207.829 251.75L208.46 251.37C214.062 247.965 220.141 244.279 224.025 241.741V241.756ZM186.656 224.686C181.64 227.825 177.08 230.781 173.28 233.32C177.217 230.804 181.883 227.787 186.656 224.686ZM240.76 194.795C238.556 195.555 233.882 197.683 223.995 203.619C214.107 209.555 202.16 217.36 191.52 224.276C186.876 227.316 182.97 229.824 179.671 231.937C186.071 228 194.666 222.855 206.15 216.06C220.126 207.769 235.752 198.527 240.76 194.795ZM233.624 217.094L232.013 218.12C226.693 221.499 221.654 224.679 216.896 227.658C223.242 223.843 229.239 220.111 233.624 217.094ZM183.221 212.04C176.251 216.25 169.48 220.4 164.981 223.235C167.261 222.072 170.004 220.514 173.105 218.675C176.153 216.6 179.565 214.358 183.221 212.04ZM201.065 191.961C198.147 193.906 195.274 195.837 192.584 197.638C187.264 201.225 182.537 204.356 178.44 207.047L182.628 204.463C198.018 194.978 220.24 181.267 226.776 176.297C224.359 177.377 222.016 178.616 219.761 180.006C217.162 181.822 213.856 184.003 209.669 186.648C206.94 188.358 204.045 190.137 201.065 191.945V191.961Z" fill="white"/>
</g>
<path d="M197.197 153.938H196.688C169.13 154.447 148.359 175.529 148.359 201.468C148.347 209.214 150.237 216.845 153.862 223.69C155.382 227.3 159.06 236.139 162.701 247.57C166.075 258.118 167.838 268.736 167.838 270.37C167.838 270.522 167.838 270.681 167.838 270.856C167.823 271.333 167.904 271.808 168.075 272.253C168.247 272.698 168.507 273.105 168.838 273.448C169.17 273.791 169.567 274.064 170.006 274.25C170.446 274.437 170.918 274.534 171.395 274.534H220.749C221.227 274.534 221.699 274.437 222.138 274.25C222.577 274.064 222.974 273.791 223.306 273.448C223.638 273.105 223.897 272.698 224.069 272.253C224.241 271.808 224.322 271.333 224.306 270.856C224.306 270.681 224.306 270.522 224.306 270.37C224.306 268.766 226.069 258.149 229.436 247.57C233.084 236.17 236.725 227.3 238.275 223.69C242.065 216.519 243.958 208.498 243.773 200.389C243.588 192.28 241.332 184.353 237.219 177.362C233.106 170.371 227.272 164.549 220.274 160.449C213.275 156.349 205.344 154.107 197.235 153.938H197.197Z" stroke="#263238" stroke-width="2" stroke-linecap="round" stroke-linejoin="round"/>
<path d="M213.849 161.568C212.472 160.95 211.061 160.412 209.623 159.957" stroke="#263238" stroke-width="3" stroke-linecap="round" stroke-linejoin="round"/>
<path d="M229.687 173.638C229.687 173.638 225.811 167.482 217.292 163.294" stroke="#263238" stroke-width="3" stroke-linecap="round" stroke-linejoin="round"/>
<path d="M192.918 252.981V228.57C192.918 228.57 194.795 216.684 188.616 216.684C182.438 216.684 182.909 222.87 190.038 229.52C197.167 236.17 208.11 229.999 209.539 224.77C210.968 219.541 207.161 217.17 204.782 221.441C202.403 225.712 204.782 274.223 204.782 274.223" stroke="#263238" stroke-width="3" stroke-linecap="round" stroke-linejoin="round"/>
<path d="M179.702 141.588L182.331 149.864" stroke="#263238" stroke-width="3" stroke-linecap="round" stroke-linejoin="round"/>
<path d="M244.134 159.638L235.478 166.409" stroke="#263238" stroke-width="3" stroke-linecap="round" stroke-linejoin="round"/>
<path d="M212.04 135.546L208.779 149.864" stroke="#263238" stroke-width="3" stroke-linecap="round" stroke-linejoin="round"/>
<path d="M222.125 278.092H169.996C169.329 278.092 168.788 278.633 168.788 279.3V279.901C168.788 280.568 169.329 281.109 169.996 281.109H222.125C222.792 281.109 223.333 280.568 223.333 279.901V279.3C223.333 278.633 222.792 278.092 222.125 278.092Z" fill="#263238" stroke="#263238" stroke-linecap="round" stroke-linejoin="round"/>
<path d="M222.125 284.886H169.996C169.329 284.886 168.788 285.427 168.788 286.094V286.695C168.788 287.362 169.329 287.903 169.996 287.903H222.125C222.792 287.903 223.333 287.362 223.333 286.695V286.094C223.333 285.427 222.792 284.886 222.125 284.886Z" fill="#263238" stroke="#263238" stroke-linecap="round" stroke-linejoin="round"/>
<path d="M222.125 291.681H169.996C169.329 291.681 168.788 292.222 168.788 292.889V293.489C168.788 294.157 169.329 294.698 169.996 294.698H222.125C222.792 294.698 223.333 294.157 223.333 293.489V292.889C223.333 292.222 222.792 291.681 222.125 291.681Z" fill="#263238" stroke="#263238" stroke-linecap="round" stroke-linejoin="round"/>
<path d="M197.661 298.315H170.894L178.6 308.955C179.261 309.869 180.129 310.613 181.133 311.126C182.137 311.638 183.249 311.905 184.376 311.904H207.936C209.066 311.903 210.179 311.634 211.185 311.119C212.19 310.604 213.059 309.857 213.72 308.94L221.365 298.353L197.661 298.315Z" fill="#263238" stroke="#263238" stroke-linecap="round" stroke-linejoin="round"/>
<path d="M255.125 184.68C255.125 184.68 250.261 190 246.278 192.645C242.296 195.289 239.522 198.808 243.177 200.609C245.374 201.689 248.497 200.169 248.497 200.169C248.497 200.169 243.626 201.491 242.744 205.922C241.863 210.353 251.56 208.559 251.56 208.559C251.56 208.559 244.485 213.423 246.696 215.194C248.908 216.965 253.331 215.635 255.543 215.635C257.754 215.635 268.82 208.559 271.503 208.559C274.185 208.559 279.467 214.312 279.467 218.735C279.467 223.159 286.52 222.718 287.425 209C288.329 195.282 284.772 183.783 279.019 180.241C273.266 176.7 255.125 184.68 255.125 184.68Z" fill="white" stroke="#263238" stroke-miterlimit="10" stroke-linecap="round"/>
<path d="M252.472 199.705L270.127 193.108C270.127 193.108 277.879 191.429 283.442 200.594" stroke="#263238" stroke-miterlimit="10" stroke-linecap="round"/>
<path d="M255.565 205.018L271.525 202.365C271.525 202.365 278.609 201.925 283.032 210.33" stroke="#263238" stroke-miterlimit="10" stroke-linecap="round"/>
<path d="M275.037 215.635L263.09 218.295L270.165 246.605C270.165 246.605 276.367 258.993 278.13 264.305C279.893 269.618 298.042 287.28 298.042 287.28L319.276 266.927C319.276 266.927 309.548 255.429 309.108 252.769C308.667 250.109 306.888 219.146 306.888 214.723C306.888 210.3 298.042 199.675 298.042 199.675C298.042 199.675 294.409 194.469 292.638 185.623C290.868 176.776 282.758 173.136 278.32 173.577C273.882 174.017 261.76 175.347 256.896 178.897C252.032 182.446 247.601 186.861 252.032 188.191C259.381 190.395 271.404 180.591 277.203 187.371C279.863 190.464 283.002 204.091 283.442 205.892C283.442 205.892 281.231 214.297 275.037 215.62" fill="white"/>
<path d="M275.037 215.635L263.09 218.295L270.165 246.605C270.165 246.605 276.367 258.993 278.13 264.305C279.893 269.618 298.042 287.28 298.042 287.28L319.276 266.927C319.276 266.927 309.548 255.429 309.108 252.769C308.667 250.109 306.888 219.146 306.888 214.723C306.888 210.3 298.042 199.675 298.042 199.675C298.042 199.675 294.409 194.469 292.638 185.623C290.868 176.776 282.758 173.136 278.32 173.577C273.882 174.017 261.76 175.347 256.896 178.897C252.032 182.446 247.601 186.861 252.032 188.191C259.381 190.395 271.404 180.591 277.203 187.371C279.863 190.464 283.002 204.091 283.442 205.892C283.442 205.892 281.231 214.297 275.037 215.62" stroke="#263238" stroke-miterlimit="10" stroke-linecap="round"/>
<path d="M230.485 174.511C230.621 174.369 230.803 174.28 230.998 174.261C231.193 174.241 231.389 174.292 231.549 174.405L233.358 175.659C233.537 175.784 233.658 175.975 233.697 176.19C233.735 176.405 233.687 176.627 233.563 176.806C233.439 176.984 233.249 177.106 233.036 177.144C232.822 177.183 232.602 177.135 232.423 177.012L230.615 175.75C230.437 175.626 230.315 175.436 230.277 175.222C230.238 175.009 230.286 174.788 230.409 174.61C230.43 174.574 230.456 174.541 230.485 174.511Z" fill="#263238" stroke="#263238" stroke-miterlimit="10" stroke-linecap="round"/>
<path d="M232.56 175.97C232.867 175.642 233.283 175.436 233.73 175.39C234.176 175.344 234.625 175.461 234.992 175.719L240.662 178.638L296.324 215.255C296.799 215.584 297.204 216.005 297.516 216.491C297.828 216.977 298.042 217.52 298.144 218.089C298.246 218.658 298.236 219.241 298.113 219.806C297.989 220.371 297.756 220.906 297.426 221.38C297.097 221.855 296.677 222.26 296.19 222.572C295.704 222.884 295.161 223.098 294.592 223.2C294.023 223.302 293.44 223.291 292.875 223.168C292.31 223.045 291.775 222.812 291.301 222.482L237.28 182.628L232.864 178.828C232.662 178.687 232.489 178.508 232.355 178.3C232.222 178.093 232.131 177.861 232.087 177.618C232.043 177.375 232.048 177.126 232.1 176.885C232.153 176.644 232.252 176.416 232.393 176.213C232.441 176.127 232.497 176.046 232.56 175.97Z" fill="#4DC452" stroke="#263238" stroke-miterlimit="10" stroke-linecap="round"/>
<path d="M296.332 215.255L280.266 204.691C279.026 205.051 277.933 205.795 277.144 206.817C276.356 207.839 275.913 209.086 275.88 210.376C275.882 210.631 275.902 210.885 275.941 211.136L291.308 222.475C292.267 223.142 293.451 223.4 294.599 223.193C295.748 222.986 296.768 222.332 297.434 221.373C298.1 220.415 298.358 219.231 298.152 218.082C297.945 216.934 297.29 215.914 296.332 215.248V215.255Z" fill="#263238" stroke="#263238" stroke-miterlimit="10" stroke-linecap="round"/>
<path d="M278.16 264.306C273.296 257.23 267.102 239.089 264.48 235.547C261.858 232.006 254.707 224.147 252.054 216.213C249.402 208.278 247.662 201.925 247.662 195.282C247.662 188.64 253.369 187.5 257.792 194.583C262.216 201.666 267.52 212.542 267.52 212.542C267.52 212.542 271.062 216.965 278.16 215.635" fill="white"/>
<path d="M278.16 264.306C273.296 257.23 267.102 239.089 264.48 235.547C261.858 232.006 254.707 224.147 252.054 216.213C249.402 208.278 247.662 201.925 247.662 195.282C247.662 188.64 253.369 187.5 257.792 194.583C262.216 201.666 267.52 212.542 267.52 212.542C267.52 212.542 271.062 216.965 278.16 215.635" stroke="#263238" stroke-miterlimit="10" stroke-linecap="round"/>
<path d="M253.148 192.515L254.668 195.472C254.668 195.472 254.334 195.472 251.97 196.817C250.56 197.621 249.376 198.769 248.528 200.153C248.528 200.153 246.248 193.785 248.262 191.793C248.751 191.276 249.398 190.937 250.101 190.828C250.721 190.763 251.345 190.89 251.89 191.192C252.435 191.494 252.875 191.956 253.148 192.515Z" fill="white" stroke="#263238" stroke-miterlimit="10" stroke-linecap="round"/>
<path d="M314.64 257.914C314.64 257.914 302.929 261.38 296.849 267.46C292.822 271.563 289.053 275.911 285.562 280.478L296.415 293.064C296.415 293.064 305.535 282.644 311.615 277.864C315.756 274.684 320.106 271.784 324.634 269.185L314.64 257.914Z" fill="white" stroke="#263238" stroke-miterlimit="10" stroke-linecap="round"/>
<path d="M325.516 349.478L291.232 294.363C291.232 294.363 299.912 281.344 307.291 274.839C314.671 268.333 324.216 266.593 324.216 266.593L367.08 307.732" fill="#263238"/>
<path d="M325.516 349.478L291.232 294.363C291.232 294.363 299.912 281.344 307.291 274.839C314.671 268.333 324.216 266.593 324.216 266.593L367.08 307.732" stroke="#263238" stroke-miterlimit="10" stroke-linecap="round"/>
<path d="M259.464 208.612L260.224 208.536" stroke="#263238" stroke-miterlimit="10" stroke-linecap="round"/>
<path d="M252.845 212.29C252.845 212.29 253.248 209.866 258.119 208.848" stroke="#263238" stroke-miterlimit="10" stroke-linecap="round"/>
<path d="M258.134 210.581C258.134 210.581 257.792 211.607 254.38 212.975" stroke="#263238" stroke-miterlimit="10" stroke-linecap="round"/>
<path d="M257.997 207.336C256.29 207.604 254.667 208.262 253.255 209.259" stroke="#263238" stroke-miterlimit="10" stroke-linecap="round"/>
<path d="M151.057 131.746C151.057 131.746 158.232 132.331 162.776 133.844C167.321 135.356 171.79 135.364 170.962 131.396C170.468 129.002 167.352 127.475 167.352 127.475C167.352 127.475 171.387 130.515 175.423 128.486C179.458 126.456 172.086 119.875 172.086 119.875C172.086 119.875 180.279 122.474 180.317 119.639C180.355 116.804 176.593 114.129 175.233 112.381C173.872 110.633 161.5 106.248 159.866 104.158C158.232 102.068 159.516 94.3388 163.012 91.618C166.508 88.8972 161.811 83.6 150.48 91.3064C139.148 99.0128 132.24 108.885 132.931 115.626C133.623 122.368 151.057 131.746 151.057 131.746Z" fill="white" stroke="#263238" stroke-miterlimit="10" stroke-linecap="round"/>
<path d="M164.563 124.639L148.511 114.759C148.511 114.759 142.431 109.675 146.231 99.6582" stroke="#263238" stroke-miterlimit="10" stroke-linecap="round"/>
<path d="M166.85 118.902L154.979 107.958C154.979 107.958 150.282 102.638 154.219 93.9893" stroke="#263238" stroke-miterlimit="10" stroke-linecap="round"/>
<path d="M163.286 97.014L172.71 104.819L190.76 81.8444C190.76 81.8444 202.388 76.6232 205.451 71.9644C208.513 67.3056 211.12 42.0736 211.12 42.0736L181.944 38C181.944 38 178.972 52.7744 177.163 54.7732C175.355 56.772 146.52 69.692 143.032 72.4128C139.543 75.1336 136.587 88.6312 136.587 88.6312C135.031 94.1189 132.997 99.4594 130.507 104.591C123.857 118.058 125.043 117.025 128.105 120.247C131.168 123.47 138.624 130.021 144.407 131.693C150.191 133.365 157.381 139.338 155.769 132.035C154.113 124.549 137.879 121.395 139.665 112.67C140.478 108.672 149.332 97.812 150.457 96.3756C150.457 96.3756 158.445 92.9632 163.301 97.0368" fill="white"/>
<path d="M163.286 97.014L172.71 104.819L190.76 81.8444C190.76 81.8444 202.388 76.6232 205.451 71.9644C208.513 67.3056 211.12 42.0736 211.12 42.0736L181.944 38C181.944 38 178.972 52.7744 177.163 54.7732C175.355 56.772 146.52 69.692 143.032 72.4128C139.543 75.1336 136.587 88.6312 136.587 88.6312C135.031 94.1189 132.997 99.4594 130.507 104.591C123.857 118.058 125.043 117.025 128.105 120.247C131.168 123.47 138.624 130.021 144.407 131.693C150.191 133.365 157.381 139.338 155.769 132.035C154.113 124.549 137.879 121.395 139.665 112.67C140.478 108.672 149.332 97.812 150.457 96.3756C150.457 96.3756 158.445 92.9632 163.301 97.0368" stroke="#263238" stroke-miterlimit="10" stroke-linecap="round"/>
<path d="M158.171 157.434C157.974 157.42 157.789 157.335 157.649 157.195C157.51 157.056 157.425 156.871 157.411 156.674L157.297 154.47C157.282 154.358 157.29 154.243 157.321 154.135C157.352 154.026 157.405 153.924 157.478 153.837C157.55 153.75 157.639 153.678 157.74 153.627C157.841 153.576 157.952 153.547 158.065 153.54C158.178 153.534 158.291 153.551 158.397 153.591C158.503 153.63 158.6 153.691 158.681 153.77C158.762 153.849 158.827 153.943 158.87 154.048C158.913 154.153 158.934 154.265 158.931 154.379L159.053 156.583C159.065 156.798 158.992 157.009 158.85 157.172C158.708 157.334 158.508 157.433 158.293 157.449L158.171 157.434Z" fill="#263238" stroke="#263238" stroke-miterlimit="10" stroke-linecap="round"/>
<path d="M158.08 154.888C157.632 154.848 157.214 154.648 156.902 154.324C156.591 154 156.407 153.574 156.385 153.125L155.215 146.855L149.948 80.4383C149.885 79.2723 150.289 78.1292 151.069 77.2604C151.849 76.3917 152.943 75.8686 154.109 75.8061C155.275 75.7436 156.418 76.1469 157.287 76.9273C158.155 77.7076 158.678 78.8011 158.741 79.9671L160.443 147.083L160.124 152.927C160.137 153.173 160.102 153.419 160.02 153.65C159.938 153.882 159.812 154.096 159.647 154.279C159.483 154.462 159.284 154.61 159.062 154.716C158.84 154.822 158.599 154.883 158.353 154.896C158.262 154.901 158.171 154.898 158.08 154.888Z" fill="#4DC452" stroke="#263238" stroke-miterlimit="10" stroke-linecap="round"/>
<path d="M149.91 80.4382L151.43 99.6054C152.472 100.368 153.729 100.779 155.021 100.779C156.312 100.779 157.57 100.368 158.612 99.6054C158.814 99.4471 159.004 99.2744 159.182 99.0886L158.703 79.9974C158.64 78.8313 158.117 77.7379 157.249 76.9575C156.38 76.1772 155.237 75.7739 154.071 75.8364C152.905 75.8989 151.811 76.422 151.031 77.2907C150.25 78.1594 149.847 79.3025 149.91 80.4686V80.4382Z" fill="#263238" stroke="#263238" stroke-miterlimit="10" stroke-linecap="round"/>
<path d="M205.413 71.9336C202.92 80.1492 191.915 91.4428 190 95.4252C185.705 104.448 180.736 113.134 175.134 121.41C173.242 124.244 171.197 124.647 169.951 125.666C168.127 127.186 167.192 128.744 164.076 131.16C158.84 135.234 154.432 131.442 157.305 123.606C160.177 115.77 165.452 104.88 165.452 104.88C165.452 104.88 166.774 99.3696 161.386 94.5968" fill="white"/>
<path d="M205.413 71.9336C202.92 80.1492 191.915 91.4428 190 95.4252C185.705 104.448 180.736 113.134 175.134 121.41C173.242 124.244 171.197 124.647 169.951 125.666C168.127 127.186 167.192 128.744 164.076 131.16C158.84 135.234 154.432 131.442 157.305 123.606C160.177 115.77 165.452 104.88 165.452 104.88C165.452 104.88 166.774 99.3696 161.386 94.5968" stroke="#263238" stroke-miterlimit="10" stroke-linecap="round"/>
<path d="M158.46 128.485L159.889 125.506C159.889 125.506 160.094 125.772 162.609 126.805C164.108 127.425 165.74 127.655 167.352 127.474C167.352 127.474 163.727 133.189 160.892 132.832C160.185 132.765 159.521 132.463 159.007 131.973C158.564 131.521 158.273 130.942 158.175 130.317C158.077 129.691 158.176 129.051 158.46 128.485Z" fill="white" stroke="#263238" stroke-miterlimit="10" stroke-linecap="round"/>
<path d="M179.481 14.189L173.439 53.4278C173.439 53.4278 180.728 59.8346 190.41 61.5598C200.093 63.285 217.77 65.8994 217.77 65.8994L233.244 14.1738" fill="#263238"/>
<path d="M179.481 14.189L173.439 53.4278C173.439 53.4278 180.728 59.8346 190.41 61.5598C200.093 63.285 217.77 65.8994 217.77 65.8994L233.244 14.1738" stroke="#263238" stroke-miterlimit="10" stroke-linecap="round"/>
<path d="M214.654 57.1294C214.654 57.7201 214.479 58.2976 214.151 58.7888C213.823 59.2799 213.356 59.6628 212.81 59.8888C212.265 60.1149 211.664 60.174 211.085 60.0588C210.505 59.9435 209.973 59.6591 209.555 59.2414C209.138 58.8237 208.853 58.2915 208.738 57.7121C208.623 57.1327 208.682 56.5321 208.908 55.9864C209.134 55.4406 209.517 54.9741 210.008 54.6459C210.499 54.3177 211.077 54.1426 211.667 54.1426C212.46 54.1426 213.219 54.4573 213.779 55.0174C214.34 55.5775 214.654 56.3372 214.654 57.1294Z" fill="white" stroke="#263238" stroke-width="2" stroke-linecap="round" stroke-linejoin="round"/>
<path d="M165.08 118.795L164.57 118.278" stroke="#263238" stroke-miterlimit="10" stroke-linecap="round"/>
<path d="M172.041 121.767C172.041 121.767 169.883 122.937 166.09 119.723" stroke="#263238" stroke-miterlimit="10" stroke-linecap="round"/>
<path d="M167.443 118.636C167.443 118.636 168.461 118.278 171.638 120.156" stroke="#263238" stroke-miterlimit="10" stroke-linecap="round"/>
<path d="M164.973 120.749C166.233 121.927 167.746 122.801 169.396 123.303" stroke="#263238" stroke-miterlimit="10" stroke-linecap="round"/>
<path d="M167.154 248.649C167.154 248.649 167.846 255.816 169.434 260.338C171.022 264.86 171.114 269.329 167.108 268.561C164.707 268.098 163.134 265.012 163.134 265.012C163.134 265.012 166.227 269.002 164.266 273.06C162.305 277.119 155.602 269.853 155.602 269.853C155.602 269.853 158.323 278 155.496 278.084C152.668 278.168 149.925 274.444 148.162 273.114C146.398 271.784 141.823 259.434 139.703 257.868C137.582 256.302 129.884 257.663 127.224 261.197C124.564 264.731 119.168 260.118 126.722 248.634C134.276 237.15 144.027 230.09 150.746 230.728C157.464 231.367 167.154 248.649 167.154 248.649Z" fill="white" stroke="#263238" stroke-miterlimit="10" stroke-linecap="round"/>
<path d="M160.216 262.261L150.092 246.354C150.092 246.354 144.917 240.343 134.953 244.318" stroke="#263238" stroke-miterlimit="10" stroke-linecap="round"/>
<path d="M154.546 264.633L143.427 252.921C143.427 252.921 138.039 248.308 129.451 252.359" stroke="#263238" stroke-miterlimit="10" stroke-linecap="round"/>
<path d="M132.612 261.387L140.547 270.705L117.845 289.051C117.845 289.051 105.442 295.207 100.837 298.384C96.2309 301.561 71.0825 304.76 71.0825 304.76L66.3857 275.728C66.3857 275.728 81.0841 272.407 83.0297 270.553C84.9753 268.698 105.07 245.04 107.707 241.506C110.344 237.972 123.834 234.818 123.834 234.818C123.834 234.818 129.869 232.849 136.61 226.853C143.351 220.856 152.023 222.84 155.291 225.857C158.559 228.874 167.451 237.257 169.206 242.988C170.962 248.718 171.828 254.942 167.496 253.339C160.299 250.671 156.598 235.616 147.888 237.523C143.906 238.397 133.175 247.403 131.761 248.558C131.761 248.558 128.463 256.599 132.612 261.387Z" fill="white"/>
<path d="M132.612 261.387L140.547 270.705L117.845 289.051C117.845 289.051 105.442 295.207 100.837 298.384C96.2309 301.561 71.0825 304.76 71.0825 304.76L66.3857 275.728C66.3857 275.728 81.0841 272.407 83.0297 270.553C84.9753 268.698 105.07 245.04 107.707 241.506C110.344 237.972 123.834 234.818 123.834 234.818C123.834 234.818 129.869 232.849 136.61 226.853C143.351 220.856 152.023 222.84 155.291 225.857C158.559 228.874 167.451 237.257 169.206 242.988C170.962 248.718 171.828 254.942 167.496 253.339C160.299 250.671 156.598 235.616 147.888 237.523C143.906 238.397 133.175 247.403 131.761 248.558C131.761 248.558 128.463 256.599 132.612 261.387" stroke="#263238" stroke-miterlimit="10" stroke-linecap="round"/>
<path d="M192.941 255.361C192.927 255.164 192.843 254.979 192.703 254.839C192.563 254.699 192.378 254.615 192.181 254.601L189.977 254.517C189.869 254.513 189.762 254.53 189.661 254.568C189.56 254.606 189.467 254.663 189.388 254.736C189.309 254.809 189.245 254.898 189.2 254.996C189.155 255.094 189.13 255.2 189.126 255.308C189.122 255.415 189.139 255.523 189.177 255.624C189.214 255.725 189.272 255.818 189.345 255.897C189.418 255.976 189.507 256.04 189.605 256.085C189.703 256.13 189.809 256.155 189.916 256.159L192.12 256.242C192.333 256.249 192.539 256.174 192.698 256.032C192.856 255.891 192.954 255.694 192.972 255.482C192.966 255.441 192.956 255.4 192.941 255.361Z" fill="#263238" stroke="#263238" stroke-miterlimit="10" stroke-linecap="round"/>
<path d="M190.402 255.292C190.354 254.845 190.146 254.43 189.816 254.123C189.487 253.816 189.059 253.637 188.609 253.62L182.324 252.541L115.839 248.262C115.261 248.24 114.684 248.331 114.142 248.532C113.599 248.732 113.102 249.037 112.677 249.43C112.253 249.823 111.91 250.295 111.668 250.821C111.426 251.346 111.29 251.914 111.267 252.492C111.245 253.069 111.337 253.646 111.537 254.188C111.737 254.731 112.043 255.229 112.435 255.653C112.828 256.078 113.301 256.421 113.826 256.663C114.351 256.904 114.919 257.04 115.497 257.063L182.628 257.762L188.464 257.367C188.961 257.385 189.445 257.206 189.81 256.869C190.174 256.531 190.39 256.062 190.41 255.566C190.415 255.474 190.413 255.383 190.402 255.292Z" fill="#4DC452" stroke="#263238" stroke-miterlimit="10" stroke-linecap="round"/>
<path d="M115.839 248.262L135.021 249.501C135.796 250.534 136.222 251.787 136.237 253.078C136.252 254.37 135.856 255.632 135.105 256.683C134.945 256.884 134.775 257.077 134.596 257.261L115.52 257.063C114.942 257.04 114.374 256.904 113.849 256.663C113.324 256.421 112.851 256.078 112.458 255.653C112.066 255.229 111.76 254.731 111.56 254.188C111.36 253.646 111.268 253.069 111.29 252.492C111.313 251.914 111.449 251.346 111.691 250.821C111.933 250.295 112.276 249.823 112.7 249.43C113.125 249.037 113.622 248.732 114.165 248.532C114.707 248.331 115.284 248.24 115.862 248.262H115.839Z" fill="#263238" stroke="#263238" stroke-miterlimit="10" stroke-linecap="round"/>
<path d="M100.837 298.384C108.984 295.663 124.853 284.909 129.101 283.678C133.35 282.447 143.747 280.486 150.663 275.728C157.579 270.971 162.769 266.958 166.767 261.653C170.765 256.348 166.904 252.009 159.106 254.995C151.309 257.982 140.479 263.447 140.479 263.447C140.479 263.447 134.991 264.845 130.135 259.525" fill="white"/>
<path d="M100.837 298.384C108.984 295.663 124.853 284.909 129.101 283.678C133.35 282.447 143.747 280.486 150.663 275.728C157.579 270.971 162.769 266.958 166.767 261.653C170.765 256.348 166.904 252.009 159.106 254.995C151.309 257.982 140.479 263.447 140.479 263.447C140.479 263.447 134.991 264.845 130.135 259.525" stroke="#263238" stroke-miterlimit="10" stroke-linecap="round"/>
<path d="M164.008 256.12L161.044 257.587C161.044 257.587 161.318 257.792 162.389 260.285C163.039 261.776 163.3 263.408 163.149 265.028C163.149 265.028 168.811 261.319 168.408 258.484C168.33 257.778 168.02 257.118 167.527 256.607C167.065 256.167 166.477 255.884 165.846 255.796C165.214 255.709 164.571 255.822 164.008 256.12Z" fill="white" stroke="#263238" stroke-miterlimit="10" stroke-linecap="round"/>
<path d="M81.4568 269.474C81.4568 269.474 88.7224 279.3 89.9156 287.812C90.6602 293.511 91.0511 299.249 91.086 304.996L68.9016 310.316C68.9016 310.316 67.8984 296.514 65.9224 289.036C64.531 284.004 62.8045 279.071 60.7544 274.269L81.4568 269.474Z" fill="white" stroke="#263238" stroke-miterlimit="10" stroke-linecap="round"/>
<path d="M82.4675 286.619C80.4915 276.982 73.9175 269.846 73.9175 269.846L21.4243 278.206V337.486L83.5315 311.866C83.5315 311.866 84.4359 296.256 82.4675 286.619Z" fill="#263238" stroke="#263238" stroke-miterlimit="10" stroke-linecap="round"/>
<path d="M68.3998 312.361C68.4088 312.824 68.2789 313.28 68.0269 313.669C67.7749 314.059 67.4122 314.364 66.9854 314.546C66.5587 314.727 66.0873 314.777 65.632 314.689C65.1767 314.6 64.7581 314.378 64.4302 314.05C64.1022 313.722 63.8798 313.304 63.7915 312.848C63.7033 312.393 63.7532 311.922 63.9348 311.495C64.1164 311.068 64.4215 310.705 64.8109 310.453C65.2002 310.201 65.6561 310.072 66.1198 310.081C66.7208 310.092 67.294 310.336 67.7191 310.761C68.1442 311.186 68.3881 311.759 68.3998 312.361Z" fill="white"/>
<path d="M74.9207 309.594C74.9192 310.054 74.7815 310.502 74.5251 310.884C74.2686 311.265 73.9049 311.562 73.4798 311.737C73.0548 311.912 72.5874 311.957 72.1368 311.866C71.6862 311.776 71.2725 311.554 70.948 311.228C70.6235 310.903 70.4028 310.488 70.3137 310.037C70.2245 309.586 70.271 309.119 70.4473 308.695C70.6235 308.27 70.9216 307.907 71.3039 307.652C71.6862 307.397 72.1355 307.261 72.5951 307.261C72.9012 307.261 73.2042 307.321 73.4868 307.438C73.7695 307.556 74.0262 307.728 74.2423 307.945C74.4583 308.161 74.6295 308.419 74.7459 308.702C74.8623 308.985 74.9217 309.288 74.9207 309.594Z" fill="white"/>
<path d="M149.264 265.157L148.747 264.655" stroke="#263238" stroke-miterlimit="10" stroke-linecap="round"/>
<path d="M152.342 272.08C152.342 272.08 153.482 269.899 150.207 266.152" stroke="#263238" stroke-miterlimit="10" stroke-linecap="round"/>
<path d="M149.15 267.521C149.15 267.521 148.801 268.547 150.708 271.693" stroke="#263238" stroke-miterlimit="10" stroke-linecap="round"/>
<path d="M151.24 265.02C152.44 266.262 153.338 267.766 153.862 269.412" stroke="#263238" stroke-miterlimit="10" stroke-linecap="round"/>
</svg>
