<svg width="670" height="364" viewBox="0 0 670 364" fill="none" xmlns="http://www.w3.org/2000/svg">
<path fill-rule="evenodd" clip-rule="evenodd" d="M116 112C116 91.5655 132.565 75 153 75H633C653.435 75 670 91.5655 670 112C670 132.435 653.435 149 633 149H561.031C575.559 153.993 586 167.777 586 184C586 204.435 569.435 221 549 221H525.58C541.877 224.87 554 239.519 554 257H592C612.435 257 629 273.565 629 294C629 314.435 612.435 331 592 331H112C91.5655 331 75 314.435 75 294H37C16.5655 294 0 277.435 0 257C0 236.565 16.5655 220 37 220H60.4196C44.1226 216.13 32 201.481 32 184C32 163.565 48.5655 147 69 147H140.969C126.441 142.007 116 128.223 116 112Z" fill="#788B5B" fill-opacity="0.75"/>
<g clip-path="url(#clip0_1125_6778)">
<path d="M131.213 346.853C137.247 358.07 150.053 362.885 150.053 362.885C150.053 362.885 153.076 349.514 147.042 338.298C141.008 327.081 128.202 322.266 128.202 322.266C128.202 322.266 125.179 335.637 131.213 346.853Z" fill="#2F2E41"/>
<path d="M135.36 343.163C146.254 349.733 150.449 362.782 150.449 362.782C150.449 362.782 136.983 365.18 126.089 358.61C115.195 352.04 111 338.991 111 338.991C111 338.991 124.467 336.594 135.36 343.163Z" fill="#3E5915"/>
<path d="M379.597 17.4746H311.628V18.4479H379.597V17.4746Z" fill="#F2F2F2"/>
<path d="M361.149 18.2041H360.178V27.2071H361.149V18.2041Z" fill="#F2F2F2"/>
<path d="M331.533 18.2041H330.562V27.2071H331.533V18.2041Z" fill="#F2F2F2"/>
<path d="M414.067 64.1934H346.098V65.1667H414.067V64.1934Z" fill="#F2F2F2"/>
<path d="M365.518 55.4336H364.547V64.4366H365.518V55.4336Z" fill="#F2F2F2"/>
<path d="M395.133 55.4336H394.162V64.4366H395.133V55.4336Z" fill="#F2F2F2"/>
<path d="M504.368 86.0918H436.399V87.0651H504.368V86.0918Z" fill="#F2F2F2"/>
<path d="M455.819 77.332H454.848V86.335H455.819V77.332Z" fill="#F2F2F2"/>
<path d="M485.434 77.332H484.463V86.335H485.434V77.332Z" fill="#F2F2F2"/>
<path d="M497.571 311.897H429.603V312.871H497.571V311.897Z" fill="#F2F2F2"/>
<path d="M449.022 303.138H448.051V312.141H449.022V303.138Z" fill="#F2F2F2"/>
<path d="M478.637 303.138H477.667V312.141H478.637V303.138Z" fill="#F2F2F2"/>
<path d="M381.539 155.683H313.57V156.656H381.539V155.683Z" fill="#F2F2F2"/>
<path d="M332.99 146.923H332.019V155.926H332.99V146.923Z" fill="#F2F2F2"/>
<path d="M362.605 146.923H361.634V155.926H362.605V146.923Z" fill="#F2F2F2"/>
<path d="M402.901 272.966H334.932V273.939H402.901V272.966Z" fill="#F2F2F2"/>
<path d="M354.352 264.206H353.381V273.209H354.352V264.206Z" fill="#F2F2F2"/>
<path d="M383.967 264.206H382.996V273.209H383.967V264.206Z" fill="#F2F2F2"/>
<path d="M511.651 237.44H443.682V238.414H511.651V237.44Z" fill="#F2F2F2"/>
<path d="M463.102 228.681H462.131V237.684H463.102V228.681Z" fill="#F2F2F2"/>
<path d="M492.717 228.681H491.746V237.684H492.717V228.681Z" fill="#F2F2F2"/>
<path d="M286.777 341.718H171.819V340.889H285.95V300.682H181.484L176.409 290.084L177.154 289.726L182.004 299.853H286.777V341.718Z" fill="#2F2E41"/>
<path d="M187.119 362.028C191.915 362.028 195.803 358.131 195.803 353.324C195.803 348.516 191.915 344.619 187.119 344.619C182.323 344.619 178.436 348.516 178.436 353.324C178.436 358.131 182.323 362.028 187.119 362.028Z" fill="#3F3D56"/>
<path d="M272.718 362.028C277.513 362.028 281.401 358.131 281.401 353.324C281.401 348.516 277.513 344.619 272.718 344.619C267.922 344.619 264.034 348.516 264.034 353.324C264.034 358.131 267.922 362.028 272.718 362.028Z" fill="#3F3D56"/>
<path d="M373.615 173.843C376.584 173.843 378.991 171.431 378.991 168.455C378.991 165.479 376.584 163.066 373.615 163.066C370.647 163.066 368.24 165.479 368.24 168.455C368.24 171.431 370.647 173.843 373.615 173.843Z" fill="#3F3D56"/>
<path d="M299.072 287.004H169.859L141.901 195.398H327.865L327.696 195.937L299.072 287.004ZM170.471 286.175H298.466L326.738 196.227H143.019L170.471 286.175Z" fill="#2F2E41"/>
<path d="M330.182 187.214L329.383 187.002L334.84 166.383H366.586V167.212H335.477L330.182 187.214Z" fill="#2F2E41"/>
<path d="M318.572 223.17H150.936V223.999H318.572V223.17Z" fill="#2F2E41"/>
<path d="M308.972 253.712H160.257V254.541H308.972V253.712Z" fill="#2F2E41"/>
<path d="M235.294 195.812H234.467V286.589H235.294V195.812Z" fill="#2F2E41"/>
<path d="M272.322 195.787L266.385 286.561L267.211 286.615L273.147 195.841L272.322 195.787Z" fill="#2F2E41"/>
<path d="M197.457 195.786L196.631 195.84L202.534 286.616L203.359 286.562L197.457 195.786Z" fill="#2F2E41"/>
<path d="M546 362.554H111V363.527H546V362.554Z" fill="#2F2E41"/>
<path d="M400.066 30.112C400.066 30.112 407.164 50.3597 402.796 53.4747C398.429 56.5897 417.536 82.0291 417.536 82.0291L440.465 75.7991L427.909 54.513C427.909 54.513 426.271 33.227 426.271 30.112C426.271 26.997 400.066 30.112 400.066 30.112Z" fill="#A0616A"/>
<path opacity="0.1" d="M400.066 30.112C400.066 30.112 407.164 50.3597 402.796 53.4747C398.429 56.5897 417.536 82.0291 417.536 82.0291L440.465 75.7991L427.909 54.513C427.909 54.513 426.271 33.227 426.271 30.112C426.271 26.997 400.066 30.112 400.066 30.112Z" fill="black"/>
<path d="M388.154 174.441C388.154 174.441 386.082 200.4 388.154 213.898C390.226 227.397 393.334 264.777 393.334 264.777C393.334 264.777 393.334 335.384 404.728 336.422C416.123 337.461 424.41 338.499 425.446 334.346C426.481 330.192 420.266 328.116 423.374 326.039C426.481 323.962 427.517 316.694 423.374 308.387C419.23 300.081 423.374 215.975 423.374 215.975L443.055 268.93C443.055 268.93 445.127 312.541 447.199 318.771C449.271 325.001 445.127 336.422 452.378 337.461C459.629 338.499 467.916 332.269 472.06 330.192C476.203 328.116 465.844 328.116 467.916 327.077C469.988 326.039 476.203 322.924 474.131 321.886C472.06 320.847 469.988 271.007 469.988 271.007C469.988 271.007 464.291 164.577 457.04 160.423C449.788 156.27 445.127 163.424 445.127 163.424L388.154 174.441Z" fill="#2F2E41"/>
<path d="M406.8 332.27V340.576C406.8 340.576 397.477 363.157 406.8 363.157C416.123 363.157 423.374 365.496 423.374 362.381V334.346L406.8 332.27Z" fill="#2F2E41"/>
<path d="M467.916 332.255V340.562C467.916 340.562 477.239 363.142 467.916 363.142C458.593 363.142 451.342 365.482 451.342 362.367V334.332L467.916 332.255Z" fill="#2F2E41"/>
<path d="M414.569 45.1674C424.866 45.1674 433.214 36.7996 433.214 26.4773C433.214 16.155 424.866 7.78711 414.569 7.78711C404.271 7.78711 395.923 16.155 395.923 26.4773C395.923 36.7996 404.271 45.1674 414.569 45.1674Z" fill="#A0616A"/>
<path d="M408.872 61.2617C408.872 61.2617 414.051 76.8368 422.338 73.7218L430.625 70.6068L445.127 170.288C445.127 170.288 433.732 186.901 417.159 176.518C400.585 166.134 408.872 61.2617 408.872 61.2617Z" fill="#3E5915"/>
<path d="M423.374 58.1475L428.035 48.2832C428.035 48.2832 455.486 61.2625 459.629 65.4159C463.772 69.5692 463.772 75.7993 463.772 75.7993L456.521 101.758C456.521 101.758 458.593 158.867 458.593 160.943C458.593 163.02 465.844 174.442 460.665 170.288C455.486 166.135 454.45 161.982 450.306 168.212C446.163 174.442 436.84 181.71 436.84 181.71L423.374 58.1475Z" fill="#3F3D56"/>
<path d="M459.629 132.908L456.521 161.982C456.521 161.982 437.876 178.595 442.019 179.634C446.163 180.672 448.234 176.519 448.234 176.519C448.234 176.519 455.486 183.787 459.629 179.634C463.773 175.48 474.131 136.023 474.131 136.023L459.629 132.908Z" fill="#A0616A"/>
<path d="M414.966 0.0632017C410.832 -0.0849198 406.409 -0.15819 402.924 2.07463C401.32 3.19518 399.914 4.57526 398.762 6.15836C395.368 10.4596 392.435 15.8715 393.696 21.2082L395.16 20.6357C395.16 22.0602 394.844 23.4669 394.235 24.754C394.441 24.153 395.132 25.1246 394.947 25.7326L393.334 31.0374C395.986 30.0629 399.284 32.0359 399.688 34.838C399.873 28.6764 400.51 21.611 405.497 18.0032C408.011 16.1837 411.194 15.6283 414.256 15.1351C417.08 14.6801 420.042 14.2462 422.747 15.1783C425.453 16.1105 427.757 18.8842 427.144 21.6853C428.391 21.2545 429.786 22.126 430.403 23.2954C431.019 24.4648 431.052 25.8442 431.07 27.1667C432.4 28.1088 433.914 26.2381 434.455 24.6989C435.728 21.0858 436.858 17.2398 436.173 13.4704C435.488 9.70101 432.423 6.09877 428.601 6.08598C429.065 5.57516 429.313 4.90348 429.291 4.213L426.141 3.94617C426.941 3.83265 427.676 3.44392 428.222 2.84656C426.957 4.24175 417.011 0.136496 414.966 0.0632017Z" fill="#2F2E41"/>
<path d="M414.051 55.0326C414.051 55.0326 405.618 46.7494 402.584 47.2568C399.549 47.7642 395.405 55.0326 395.405 55.0326C395.405 55.0326 370.544 63.3393 371.58 71.646C372.616 79.9528 384.011 120.448 384.011 120.448C384.011 120.448 393.334 169.25 385.047 174.442C376.76 179.634 424.41 193.132 425.446 186.902C426.481 180.672 428.553 118.371 425.446 109.026C422.338 99.6813 414.051 55.0326 414.051 55.0326Z" fill="#3F3D56"/>
<path d="M450.306 71.6455H463.115C463.115 71.6455 472.059 111.103 473.095 115.256C474.131 119.409 476.203 139.138 475.167 139.138C474.131 139.138 453.414 134.984 453.414 138.099L450.306 71.6455Z" fill="#3F3D56"/>
<path d="M449.873 169.354H400.838C396.053 147.289 395.654 125.971 400.838 105.603H449.873C441.96 125.604 441.465 146.777 449.873 169.354Z" fill="#F2F2F2"/>
<path d="M380.903 142.253L395.405 148.483C395.405 148.483 423.374 152.637 423.374 141.215C423.374 129.793 395.405 136.023 395.405 136.023L386.082 133.035L380.903 142.253Z" fill="#A0616A"/>
<path d="M384.01 65.416L371.58 68.5311L362.257 123.563C362.257 123.563 359.149 138.1 364.329 139.138C369.508 140.177 384.01 148.483 384.01 148.483C384.01 148.483 386.082 132.908 390.226 132.908L379.867 124.602L386.082 88.2596L384.01 65.416Z" fill="#3F3D56"/>
<path d="M208.219 171.742H140.25V172.715H208.219V171.742Z" fill="#F2F2F2"/>
<path d="M159.67 162.982H158.699V171.985H159.67V162.982Z" fill="#F2F2F2"/>
<path d="M189.285 162.982H188.314V171.985H189.285V162.982Z" fill="#F2F2F2"/>
<path d="M232.008 27.6943H164.039V28.6676H232.008V27.6943Z" fill="#F2F2F2"/>
<path d="M213.559 28.4238H212.588V37.4268H213.559V28.4238Z" fill="#F2F2F2"/>
<path d="M183.944 28.4238H182.973V37.4268H183.944V28.4238Z" fill="#F2F2F2"/>
<path d="M300.462 123.564H232.493V124.538H300.462V123.564Z" fill="#F2F2F2"/>
<path d="M282.013 124.294H281.042V133.297H282.013V124.294Z" fill="#F2F2F2"/>
<path d="M252.399 124.294H251.428V133.297H252.399V124.294Z" fill="#F2F2F2"/>
<path d="M184.916 123.077H116.947V124.05H184.916V123.077Z" fill="#F2F2F2"/>
<path d="M166.467 123.808H165.496V132.811H166.467V123.808Z" fill="#F2F2F2"/>
<path d="M136.852 123.808H135.881V132.811H136.852V123.808Z" fill="#F2F2F2"/>
<path d="M266.478 74.4121H198.509V75.3854H266.478V74.4121Z" fill="#F2F2F2"/>
<path d="M217.929 65.6523H216.958V74.6554H217.929V65.6523Z" fill="#F2F2F2"/>
<path d="M247.544 65.6523H246.573V74.6554H247.544V65.6523Z" fill="#F2F2F2"/>
</g>
<defs>
<clipPath id="clip0_1125_6778">
<rect width="435" height="364" fill="white" transform="translate(111)"/>
</clipPath>
</defs>
</svg>
