<svg width="839" height="477" viewBox="0 0 839 477" fill="none" xmlns="http://www.w3.org/2000/svg">
<path fill-rule="evenodd" clip-rule="evenodd" d="M190.178 92.1698C186.917 92.3101 183.727 93.1671 180.834 94.6798C164.348 103.302 165.994 124.91 179.112 133.245L138.454 133.586C111.074 133.815 88.9996 156.075 88.9996 183.456C88.9996 195.302 93.1086 206.116 99.9325 214.623L79.2502 213.092C52.4978 211.111 31.9876 236.437 39.4863 262.194C42.076 271.089 47.6958 278.512 55.0592 283.429L37.2731 282.672C16.2253 281.776 -1.01277 299.215 0.127477 320.251C1.15343 339.178 16.8 354 35.7552 354H99.3992C84.4078 359.36 74.4264 374.785 76.9501 391.568C79.3239 407.354 92.2321 419.44 108.139 420.772L772.487 476.394C803.658 479.004 831.688 457.444 837.163 426.647L837.783 423.159C844.38 386.054 815.846 352 778.16 352H720.155C727.191 348.69 731.587 341.702 732.216 334.316L775.004 337.208C803.014 339.102 822.425 309.773 809.736 284.731C804.004 273.416 792.768 265.928 780.119 264.991L738.309 261.895C756.488 254.887 767.054 233.638 758.679 213.824C753.45 201.451 741.818 192.974 728.438 191.787L659.781 185.692C659.993 185.614 660.204 185.533 660.414 185.45C688.765 174.224 682.51 133.738 654.456 129.641L661.286 129.538C680.277 129.253 693.795 110.984 688.516 92.7393C684.824 79.9806 672.885 71.4017 659.615 71.9727L190.178 92.1698Z" fill="#788B5B" fill-opacity="0.9"/>
<g clip-path="url(#clip0_1130_7694)">
<path d="M529.214 314.11H358.749C344.42 314.11 332.763 302.453 332.763 288.125V117.659C332.763 103.331 344.42 91.6738 358.749 91.6738H529.214C543.543 91.6738 555.2 103.331 555.2 117.659V288.125C555.2 302.453 543.543 314.11 529.214 314.11V314.11ZM358.749 95.8315C346.694 95.8315 336.921 105.604 336.921 117.659V288.125C336.921 300.18 346.694 309.953 358.749 309.953H478.156C518.41 309.953 551.042 277.32 551.042 237.066V117.659C551.042 105.604 541.269 95.8315 529.214 95.8315H358.749V95.8315Z" fill="#F2F2F2"/>
<path d="M377.126 113.558C369.058 113.558 362.495 120.121 362.495 128.189V151.091C362.495 159.159 369.058 165.722 377.126 165.722H400.028C408.096 165.722 414.659 159.159 414.659 151.091V128.189C414.659 120.121 408.096 113.558 400.028 113.558H377.126Z" fill="#F2F2F2"/>
<path d="M377.126 178.028C369.058 178.028 362.495 184.592 362.495 192.66V215.561C362.495 223.629 369.058 230.192 377.126 230.192H400.028C408.096 230.192 414.659 223.629 414.659 215.561V192.66C414.659 184.592 408.096 178.028 400.028 178.028H377.126V178.028Z" fill="#F2F2F2"/>
<path d="M272.528 150.43C264.46 150.43 257.896 156.993 257.896 165.061V187.962C257.896 196.03 264.46 202.594 272.528 202.594H295.429C303.497 202.594 310.06 196.03 310.06 187.962V165.061C310.06 156.993 303.497 150.43 295.429 150.43H272.528V150.43Z" fill="#F2F2F2"/>
<path d="M377.126 242.498C369.058 242.498 362.495 249.061 362.495 257.129V280.031C362.495 288.099 369.058 294.662 377.126 294.662H400.028C408.096 294.662 414.659 288.099 414.659 280.031V257.129C414.659 249.061 408.096 242.498 400.028 242.498H377.126Z" fill="#F2F2F2"/>
<path d="M246.74 226.074C238.672 226.074 232.109 232.638 232.109 240.706V263.607C232.109 271.675 238.672 278.238 246.74 278.238H269.641C277.709 278.238 284.273 271.675 284.273 263.607V240.706C284.273 232.638 277.709 226.074 269.641 226.074H246.74Z" fill="#F2F2F2"/>
<path d="M298.316 306.877C290.248 306.877 283.685 313.44 283.685 321.508V344.41C283.685 352.477 290.248 359.041 298.316 359.041H321.217C329.285 359.041 335.848 352.477 335.848 344.41V321.508C335.848 313.44 329.285 306.877 321.217 306.877H298.316Z" fill="#F2F2F2"/>
<path d="M392.313 57.6846C382.147 57.6846 373.877 65.9546 373.877 76.1205V104.977C373.877 115.143 382.147 123.413 392.313 123.413H421.17C431.335 123.413 439.605 115.143 439.605 104.977V76.1205C439.605 65.9546 431.335 57.6846 421.17 57.6846H392.313V57.6846Z" fill="#3E5915"/>
<path d="M487.315 138.326C477.149 138.326 468.879 146.596 468.879 156.762V185.618C468.879 195.784 477.149 204.054 487.315 204.054H516.171C526.337 204.054 534.607 195.784 534.607 185.618V156.762C534.607 146.596 526.337 138.326 516.171 138.326H487.315Z" fill="#3E5915"/>
<path d="M446.013 428.775L440.151 428.725L437.556 405.587L446.208 405.66L446.013 428.775Z" fill="#A0616A"/>
<path d="M427.235 438.097C427.223 439.54 428.386 440.727 429.834 440.741L441.489 440.838L443.53 436.702L444.279 440.859L448.677 440.899L447.567 426.072L446.036 425.97L439.796 425.54L437.782 425.405L437.747 429.6L428.384 435.951C427.672 436.435 427.243 437.236 427.235 438.097H427.235Z" fill="#2F2E41"/>
<path d="M475.839 428.775L469.977 428.725L467.382 405.587L476.034 405.66L475.839 428.775Z" fill="#A0616A"/>
<path d="M457.062 438.097C457.049 439.54 458.212 440.727 459.66 440.741L471.316 440.838L473.356 436.702L474.105 440.859L478.503 440.899L477.393 426.072L475.863 425.97L469.622 425.54L467.608 425.405L467.573 429.6L458.21 435.951C457.498 436.435 457.069 437.236 457.062 438.097V438.097Z" fill="#2F2E41"/>
<path d="M423.009 241.701L446.771 242.452L469.283 247.454C469.283 247.454 467.032 250.206 474.536 257.709C474.536 257.709 484.541 275.218 477.537 292.227L474.536 360.262C474.536 360.262 483.287 408.223 476.601 423.487L467.763 424.039L452.809 360.816L445.521 292.728L442.019 359.762C442.019 359.762 455.416 405.774 446.956 424.039L437.385 423.487L421.008 359.762C421.008 359.762 414.005 286.224 415.005 272.217C416.006 258.21 423.009 241.701 423.009 241.701H423.009Z" fill="#2F2E41"/>
<path d="M502.808 134.194C499.56 135.036 497.608 138.351 498.449 141.599C498.835 143.088 499.743 144.299 500.923 145.098L500.922 145.107L500.462 156.268L509.003 160.221L509.685 143.045L509.626 143.047C510.366 141.728 510.622 140.134 510.213 138.553C509.372 135.305 506.057 133.353 502.808 134.194V134.194Z" fill="#A0616A"/>
<path d="M455.069 174.03C453.275 172.252 452.234 169.84 452.195 167.218C452.143 163.7 453.906 160.508 456.91 158.678C460.371 156.57 464.698 156.783 467.935 159.22L494.757 179.415L499.536 150.323L509.797 153.626L507.349 191.508C507.177 194.158 505.68 196.493 503.342 197.753C501.005 199.013 498.232 198.981 495.924 197.668L457.162 175.615C456.383 175.172 455.682 174.638 455.069 174.03V174.03Z" fill="#3F3D56"/>
<path d="M414.17 117.922C415.885 120.806 414.937 124.534 412.053 126.249C410.731 127.035 409.233 127.255 407.832 126.993L407.827 126.999L400.296 135.25L391.447 132.043L403.055 119.365L403.096 119.409C403.499 117.95 404.44 116.638 405.843 115.804C408.728 114.089 412.456 115.037 414.17 117.922V117.922Z" fill="#A0616A"/>
<path d="M417.424 179.474L374.371 167.844C371.807 167.152 369.816 165.222 369.043 162.681C368.27 160.141 368.851 157.429 370.594 155.426L395.527 126.8L405.139 131.679L388.051 155.704L421.317 160.246C425.331 160.795 428.554 163.69 429.527 167.623C430.373 171.038 429.377 174.546 426.863 177.008C424.989 178.842 422.552 179.822 420.026 179.822C419.163 179.822 418.289 179.707 417.424 179.474H417.424Z" fill="#3F3D56"/>
<path d="M478.804 251.71L418.599 254.472C416.946 251.961 417.394 248.185 419.709 243.457C428.452 225.606 421.812 191.834 417.345 174.249C416.092 169.315 419.457 164.41 424.522 163.904L430.198 163.336L435.446 147.318H453.823L461.447 156.028L474.385 163.888C472.03 188.147 461.995 222.402 476.291 239.58C479.418 243.338 480.304 247.401 478.804 251.71V251.71Z" fill="#3F3D56"/>
<path d="M442.296 147.688C452.182 147.688 460.196 139.674 460.196 129.788C460.196 119.902 452.182 111.888 442.296 111.888C432.411 111.888 424.396 119.902 424.396 129.788C424.396 139.674 432.411 147.688 442.296 147.688Z" fill="#A0616A"/>
<path d="M462.551 118.331C465.042 109.251 437.899 101.465 432.624 108.777C431.891 107.737 429.18 107.106 427.936 107.425C426.693 107.743 425.647 108.541 424.626 109.312C423.223 110.39 421.769 111.506 420.908 113.056C420.041 114.6 419.907 116.704 421.074 118.044C421.999 119.109 423.624 124.768 425.014 125.049C425.984 125.247 426.8 125.406 427.501 125.521C428.126 124.609 429.72 123.463 429.606 122.36C430.549 122.985 430.205 124.085 430.014 125.209C429.381 128.951 415.103 157.921 423.281 149.384C424.091 149.862 425.092 150.309 426.246 150.717C428.204 147.764 429.812 144.282 430.87 140.64L430.878 140.707C431.242 143.872 433.555 146.469 436.615 147.355C448.889 150.911 458.818 145.693 462.234 136.284C460.983 133.745 460.439 134.021 460.551 133.946C462.112 132.894 464.257 133.582 464.928 135.34C465.125 135.859 465.305 136.301 465.461 136.635C467.24 130.269 469.357 131.188 462.552 118.331H462.551Z" fill="#2F2E41"/>
<path d="M454.084 111.743L452.83 105.333C452.725 104.794 452.625 104.21 452.868 103.717C453.18 103.085 453.982 102.822 454.681 102.923C455.379 103.024 455.901 103.662 456.596 103.785C459.011 104.212 462.203 101.826 463.069 107.861C463.43 110.378 467.445 110.643 468.786 112.803C470.127 114.963 470.291 118.08 468.461 119.844C467 121.253 464.653 121.416 462.754 120.696C460.856 119.976 459.332 118.522 458.002 116.989C456.671 115.456 455.466 113.797 453.931 112.468" fill="#2F2E41"/>
<path d="M463.508 121.493C458.61 120.808 455.271 119.027 453.585 116.199C451.378 112.496 452.856 108.419 452.92 108.247L453.956 108.632C453.942 108.669 452.601 112.401 454.54 115.642C456.048 118.164 459.117 119.764 463.661 120.399L463.508 121.493V121.493Z" fill="#3E5915"/>
<path d="M486.493 52.2312C472.094 52.2312 460.377 40.5149 460.377 26.1156C460.377 11.7163 472.094 0 486.493 0C500.892 0 512.609 11.7163 512.609 26.1156C512.609 40.5149 500.892 52.2312 486.493 52.2312ZM486.493 10.4462C477.852 10.4462 470.824 17.475 470.824 26.1156C470.824 34.7562 477.852 41.785 486.493 41.785C495.134 41.785 502.162 34.7562 502.162 26.1156C502.162 17.475 495.134 10.4462 486.493 10.4462V10.4462Z" fill="#3E5915"/>
<path d="M526.674 69.9789C525.393 69.9789 524.111 69.5122 523.103 68.566L498.592 45.595C496.485 43.6236 496.378 40.3183 498.352 38.2143C500.321 36.1026 503.626 35.998 505.733 37.9745L530.244 60.9455C532.351 62.917 532.458 66.2222 530.484 68.3263C529.456 69.4255 528.066 69.9789 526.674 69.9789V69.9789Z" fill="#3E5915"/>
<path d="M637.453 428.189C639.229 428.3 640.211 426.094 638.867 424.808L638.734 424.276C638.751 424.234 638.769 424.191 638.787 424.149C640.583 419.866 646.669 419.896 648.45 424.185C650.03 427.991 652.042 431.804 652.538 435.829C652.76 437.605 652.66 439.415 652.266 441.159C655.969 433.069 657.918 424.236 657.918 415.353C657.918 413.121 657.796 410.889 657.546 408.663C657.34 406.841 657.057 405.031 656.691 403.238C654.709 393.544 650.417 384.311 644.226 376.6C641.251 374.973 638.769 372.43 637.27 369.382C636.731 368.283 636.309 367.1 636.109 365.895C636.448 365.94 637.386 360.782 637.131 360.465C637.603 359.749 638.448 359.393 638.963 358.694C641.527 355.219 645.059 355.825 646.903 360.549C650.841 362.537 650.88 365.833 648.463 369.004C646.925 371.022 646.714 373.751 645.365 375.911C645.503 376.089 645.648 376.261 645.787 376.439C648.332 379.703 650.533 383.212 652.389 386.899C651.865 382.802 652.639 377.866 653.959 374.684C655.462 371.059 658.279 368.006 660.759 364.872C663.738 361.107 669.848 362.75 670.373 367.522C670.378 367.568 670.383 367.615 670.388 367.661C670.019 367.869 669.658 368.089 669.306 368.323C667.295 369.653 667.99 372.77 670.373 373.138L670.426 373.146C670.293 374.473 670.066 375.789 669.732 377.083C672.915 389.388 666.045 393.87 656.236 394.072C656.019 394.183 655.808 394.294 655.591 394.399C656.585 397.198 657.379 400.068 657.968 402.977C658.495 405.548 658.862 408.146 659.067 410.756C659.322 414.048 659.3 417.357 659.023 420.644L659.039 420.527C659.744 416.907 661.71 413.526 664.564 411.183C668.815 407.691 674.821 406.405 679.407 403.598C681.615 402.247 684.444 403.993 684.059 406.552L684.04 406.675C683.357 406.952 682.691 407.275 682.047 407.635C681.678 407.843 681.318 408.064 680.965 408.297C678.954 409.627 679.649 412.745 682.032 413.112L682.086 413.121C682.125 413.126 682.158 413.132 682.197 413.137C681.025 415.919 679.393 418.501 677.35 420.727C675.36 431.47 666.815 432.489 657.673 429.361H657.668C656.669 433.713 655.208 437.966 653.332 442.019H637.842C637.786 441.847 637.736 441.669 637.686 441.497C639.119 441.586 640.562 441.503 641.972 441.242C640.823 439.832 639.674 438.41 638.525 437C638.497 436.972 638.475 436.945 638.452 436.917C637.869 436.195 637.281 435.479 636.698 434.757L636.698 434.756C636.661 432.541 636.927 430.332 637.453 428.189L637.453 428.189V428.189Z" fill="#F2F2F2"/>
<path d="M582.45 427.585C584.225 427.696 585.207 425.49 583.863 424.204L583.73 423.673C583.747 423.63 583.765 423.588 583.783 423.545C585.579 419.263 591.665 419.292 593.446 423.581C595.026 427.388 597.038 431.2 597.534 435.225C597.756 437.002 597.656 438.812 597.262 440.555C600.965 432.466 602.914 423.632 602.914 414.749C602.914 412.517 602.792 410.285 602.542 408.059C602.336 406.238 602.053 404.428 601.687 402.635C599.705 392.941 595.413 383.708 589.223 375.996C586.247 374.369 583.765 371.826 582.266 368.778C581.727 367.679 581.305 366.496 581.105 365.292C581.444 365.336 582.382 360.178 582.127 359.862C582.599 359.146 583.444 358.79 583.959 358.091C586.523 354.615 590.055 355.222 591.899 359.945C595.838 361.933 595.876 365.23 593.459 368.401C591.921 370.418 591.71 373.148 590.361 375.308C590.5 375.485 590.644 375.657 590.783 375.835C593.328 379.1 595.529 382.609 597.385 386.295C596.861 382.198 597.635 377.262 598.955 374.081C600.458 370.455 603.275 367.402 605.755 364.268C608.734 360.504 614.844 362.147 615.369 366.919C615.374 366.965 615.379 367.011 615.384 367.057C615.015 367.265 614.654 367.486 614.302 367.719C612.291 369.049 612.986 372.167 615.369 372.534L615.423 372.543C615.289 373.87 615.062 375.185 614.729 376.479C617.911 388.785 611.041 393.267 601.232 393.468C601.015 393.579 600.804 393.69 600.588 393.796C601.581 396.594 602.375 399.464 602.964 402.374C603.491 404.944 603.858 407.543 604.063 410.152C604.319 413.444 604.296 416.753 604.019 420.04L604.035 419.924C604.74 416.304 606.706 412.923 609.56 410.58C613.811 407.087 619.817 405.801 624.403 402.994C626.611 401.643 629.44 403.389 629.055 405.949L629.036 406.071C628.353 406.349 627.687 406.671 627.043 407.032C626.675 407.24 626.314 407.46 625.961 407.694C623.95 409.024 624.645 412.141 627.028 412.509L627.082 412.517C627.121 412.523 627.154 412.528 627.193 412.534C626.021 415.315 624.389 417.897 622.346 420.124C620.356 430.866 611.811 431.885 602.67 428.757H602.664C601.665 433.11 600.204 437.363 598.328 441.416H582.838C582.782 441.244 582.732 441.066 582.682 440.894C584.115 440.983 585.558 440.899 586.968 440.638C585.819 439.228 584.67 437.807 583.521 436.397C583.493 436.369 583.471 436.341 583.448 436.313C582.865 435.592 582.277 434.875 581.694 434.154L581.694 434.153C581.657 431.937 581.923 429.729 582.449 427.586L582.45 427.585V427.585Z" fill="#F2F2F2"/>
<path d="M208.899 442.065C208.899 442.632 209.355 443.088 209.922 443.088H682.951C683.518 443.088 683.974 442.632 683.974 442.065C683.974 441.498 683.518 441.042 682.951 441.042H209.922C209.355 441.042 208.899 441.498 208.899 442.065Z" fill="#CCCCCC"/>
</g>
<defs>
<clipPath id="clip0_1130_7694">
<rect width="475.195" height="443.088" fill="white" transform="translate(208.899)"/>
</clipPath>
</defs>
</svg>
