<svg width="280" height="280" viewBox="0 0 280 280" fill="none" xmlns="http://www.w3.org/2000/svg">
<g clip-path="url(#clip0_372_3921)">
<path d="M277.565 179.307C277.565 179.307 291.147 107.485 254.153 66.7669C221.497 30.7985 169.815 16.839 127.66 46.5258C112.675 57.1186 101.711 77.697 84.1686 84.0527C64.5011 91.1843 39.22 93.7549 20.9558 124.292C2.69166 154.829 9.24977 194.076 33.5997 214.965C57.9497 235.854 100.564 215.471 138.961 213.946C177.358 212.421 257.432 267.936 277.565 179.307Z" fill="#017706"/>
<path opacity="0.8" d="M277.565 179.307C277.565 179.307 291.147 107.485 254.153 66.7669C221.497 30.7985 169.815 16.839 127.66 46.5258C112.675 57.1186 101.711 77.697 84.1686 84.0527C64.5011 91.1843 39.22 93.7549 20.9558 124.292C2.69166 154.829 9.24977 194.076 33.5997 214.965C57.9497 235.854 100.564 215.471 138.961 213.946C177.358 212.421 257.432 267.936 277.565 179.307Z" fill="white"/>
<path d="M145.331 70.8164H188.175V83.0015H145.331C144.413 83.0015 143.533 82.6369 142.884 81.9878C142.235 81.3386 141.87 80.4583 141.87 79.5403V74.2709C141.872 73.3541 142.237 72.4754 142.886 71.8278C143.535 71.1801 144.415 70.8164 145.331 70.8164Z" fill="#017706"/>
<path d="M188.174 55.6152H147.962C146.351 55.6152 144.807 56.255 143.668 57.3938C142.529 58.5325 141.89 60.0771 141.89 61.6875C141.89 63.298 142.529 64.8425 143.668 65.9813C144.807 67.1201 146.351 67.7599 147.962 67.7599H188.174V55.6152Z" fill="#017706"/>
<path d="M206.452 41.6016H191.831V82.421H206.452V41.6016Z" fill="#017706"/>
<path d="M224.729 41.6016H210.108V82.421H224.729V41.6016Z" fill="#017706"/>
<path d="M243.008 41.6016H228.387V82.421H243.008V41.6016Z" fill="#017706"/>
<path opacity="0.4" d="M145.331 70.8164H188.175V83.0015H145.331C144.413 83.0015 143.533 82.6369 142.884 81.9878C142.235 81.3386 141.87 80.4583 141.87 79.5403V74.2709C141.872 73.3541 142.237 72.4754 142.886 71.8278C143.535 71.1801 144.415 70.8164 145.331 70.8164Z" fill="white"/>
<path opacity="0.4" d="M188.174 55.6152H147.962C146.351 55.6152 144.807 56.255 143.668 57.3938C142.529 58.5325 141.89 60.0771 141.89 61.6875C141.89 63.298 142.529 64.8425 143.668 65.9813C144.807 67.1201 146.351 67.7599 147.962 67.7599H188.174V55.6152Z" fill="white"/>
<path opacity="0.4" d="M206.452 41.6016H191.831V82.421H206.452V41.6016Z" fill="white"/>
<path opacity="0.4" d="M224.729 41.6016H210.108V82.421H224.729V41.6016Z" fill="white"/>
<path opacity="0.4" d="M243.008 41.6016H228.387V82.421H243.008V41.6016Z" fill="white"/>
<path d="M251.839 83.5146H137.019V90.3156H146.336V107.183H151.882V90.3156H234.27V107.183H239.816V90.3156H251.839V83.5146Z" fill="#017706"/>
<path opacity="0.1" d="M251.839 83.5146H137.019V90.3156H146.336V107.183H151.882V90.3156H234.27V107.183H239.816V90.3156H251.839V83.5146Z" fill="black"/>
<path d="M114.699 103.755C113.392 104.179 112.111 104.677 110.86 105.246C111.535 104.74 112.21 104.227 112.884 103.694C115.935 101.251 118.834 98.6265 121.568 95.8337C118.351 98.9548 114.915 101.841 111.285 104.47C111.783 103.6 112.222 102.699 112.601 101.771C113.276 100.071 113.404 98.3976 111.778 97.4462C109.754 96.3262 107.358 98.0062 107.999 100.887C108.382 102.486 109.135 103.972 110.199 105.226C107.841 106.861 105.377 108.34 102.824 109.652L102.582 109.773C103.121 108.839 103.597 107.87 104.005 106.872C104.68 105.172 104.815 103.465 103.189 102.547C101.165 101.42 98.7627 103.1 99.4104 105.988C99.7874 107.566 100.527 109.036 101.569 110.279C98.4996 111.79 95.3285 113.072 92.1709 114.469L91.7121 114.678C92.3287 114.015 92.9012 113.311 93.4258 112.573C94.4514 111.068 95.0046 109.442 93.635 108.174C91.955 106.615 89.2022 107.688 89.155 110.643C89.1581 112.282 89.539 113.899 90.2682 115.366C87.3181 116.733 84.5149 118.397 81.9019 120.332L81.8209 120.393C82.178 119.835 82.5003 119.256 82.7858 118.659C83.5617 117.013 83.8451 115.285 82.2932 114.287C81.9769 114.067 81.6146 113.922 81.2339 113.863C80.8532 113.804 80.4641 113.832 80.096 113.946C79.728 114.06 79.3906 114.256 79.1097 114.52C78.8287 114.783 78.6115 115.107 78.4744 115.468C78.2721 115.144 77.9913 114.877 77.658 114.692C76.0927 113.788 74.5544 114.766 73.2387 116.149C72.8946 116.507 72.564 116.891 72.2604 117.282C73.2801 114.455 74.5609 111.729 76.086 109.139C77.5338 109.779 79.0978 110.114 80.6807 110.124C83.7978 110.124 85.1135 107.526 83.5819 105.914C82.3405 104.605 80.5862 105.104 78.9332 106.055C78.3867 106.373 77.8537 106.73 77.3544 107.094C78.9452 104.707 80.752 102.471 82.752 100.415C84.0552 101.468 85.5691 102.23 87.1916 102.648C90.221 103.397 92.1236 101.198 91.0239 99.2747C90.1333 97.7026 88.3251 97.7633 86.4764 98.2896C85.6127 98.5509 84.7655 98.8641 83.9395 99.2274C84.7626 98.4245 85.6195 97.6486 86.4831 96.8862C87.6234 95.9147 88.7974 94.9768 89.9916 94.066C91.2798 95.0913 92.7695 95.8338 94.3637 96.2453C97.3863 96.9942 99.289 94.7947 98.196 92.8718C97.3054 91.2997 95.4972 91.3672 93.6485 91.8934C93.2234 92.0149 92.7916 92.1633 92.3733 92.3185C93.9521 91.1917 95.5579 90.092 97.1637 88.9922L98.648 87.9802C99.9886 89.0975 101.56 89.904 103.249 90.3416C106.279 91.0905 108.175 88.891 107.082 86.9681C106.191 85.3893 104.383 85.4568 102.534 85.983C101.816 86.1943 101.111 86.4467 100.422 86.7387C100.733 86.5228 101.036 86.3002 101.34 86.064C101.907 85.6592 102.46 85.2476 103.013 84.8226C103.688 84.3098 104.363 83.7363 105.037 83.1965C105.415 82.8929 105.78 82.569 106.144 82.2384C107.483 83.3761 109.063 84.193 110.766 84.6269C113.795 85.3758 115.698 83.183 114.605 81.2534C113.714 79.6813 111.906 79.7421 110.05 80.2683C109.036 80.5813 108.042 80.9576 107.075 81.3951C108.31 80.2481 109.504 79.0539 110.637 77.8057C110.718 77.7179 110.786 77.6302 110.86 77.5425C111.353 77.0028 111.832 76.4563 112.297 75.8963C112.763 75.3363 113.357 74.5469 113.869 73.8721C115.947 71.1473 117.656 68.1594 118.95 64.9863C117.599 68.1325 115.831 71.0827 113.694 73.7575C111.589 76.4424 109.24 78.9269 106.677 81.1792L106.4 81.4153C106.987 80.4054 107.506 79.3572 107.952 78.278C108.627 76.5777 108.762 74.8707 107.136 73.9531C105.112 72.8331 102.71 74.5064 103.357 77.3941C103.77 79.0919 104.592 80.6626 105.753 81.9686L105.152 82.4813C104.916 82.677 104.673 82.8794 104.43 83.0683C104.032 83.3922 103.627 83.7026 103.222 84.0062L102.548 84.5054C101.968 84.9305 101.374 85.3556 100.78 85.7671L99.8557 86.3339L98.8842 87.0086C99.4494 86.0385 99.9476 85.0308 100.375 83.9927C101.05 82.2924 101.185 80.5854 99.5589 79.6678C97.5348 78.5411 95.1328 80.2211 95.7738 83.1088C96.1737 84.7524 96.9601 86.2767 98.0678 87.5551L97.3458 88.0206L94.647 89.7614L94.1275 90.1055C93.6282 90.4293 93.1357 90.7802 92.6432 91.0973C92.4273 91.239 92.2114 91.3807 92.0022 91.5291C91.3275 92.0014 90.6191 92.4804 89.9376 92.973C90.5105 91.9864 91.0176 90.9632 91.4557 89.9098C92.1304 88.2096 92.2653 86.4958 90.6393 85.585C88.6152 84.4582 86.2133 86.1382 86.8542 89.0192C87.2586 90.6888 88.062 92.2353 89.1954 93.5262C88.035 94.3763 86.888 95.2535 85.768 96.1643C84.9583 96.839 84.1554 97.5542 83.3728 98.2694C83.7142 97.6377 84.0183 96.9867 84.2836 96.3195C84.9583 94.6192 85.0933 92.946 83.4672 91.9946C81.4431 90.8746 79.0412 92.5479 79.6821 95.4356C80.0657 97.0151 80.8066 98.4855 81.8479 99.7335C79.6329 101.934 77.6376 104.345 75.8903 106.933C76.0901 106.188 76.2412 105.43 76.3424 104.666C76.565 102.857 76.3019 101.157 74.5072 100.665C72.2942 100.057 70.3443 102.27 71.6667 104.915C72.4256 106.367 73.5111 107.624 74.8378 108.586C73.1187 111.392 71.6813 114.362 70.5467 117.451C70.5182 116.805 70.4529 116.16 70.351 115.521C70.0474 113.727 69.3187 112.148 67.4565 112.209C65.1626 112.249 63.9211 114.908 65.9385 117.087C67.0157 118.208 68.3296 119.075 69.7843 119.624C69.0074 122.015 68.372 124.451 67.8816 126.917C67.8074 127.309 67.7399 127.7 67.6725 128.091C67.5851 128.161 67.5038 128.237 67.4296 128.321C67.3486 127.983 67.2541 127.646 67.1462 127.315C66.5659 125.588 65.6079 124.164 63.7727 124.488C61.5124 124.886 60.7028 127.72 63.0238 129.542C64.2066 130.447 65.5716 131.084 67.0247 131.411C67.0459 131.478 67.073 131.544 67.1057 131.606C66.8561 133.462 66.6671 135.324 66.5524 137.2C66.467 138.594 66.4108 139.995 66.3838 141.403C64.4271 141.403 63.0103 143.542 64.4001 145.87C64.9655 146.833 65.6911 147.694 66.5457 148.413C66.7144 151.045 66.9708 153.676 67.3216 156.287C67.045 156.032 66.7064 155.853 66.3395 155.769C65.9727 155.685 65.5902 155.699 65.23 155.808C63.9953 156.139 63.4421 157.157 63.2464 158.352C62.8164 158.806 62.5751 159.406 62.5717 160.032C61.6541 158.682 60.7905 157.272 59.9539 155.855C61.2351 154.871 62.2967 153.63 63.071 152.212C64.5418 149.466 62.8888 147.077 60.7433 147.664C58.9958 148.137 58.6112 149.918 58.6652 151.827C58.6946 152.55 58.7621 153.271 58.8676 153.986L58.0242 152.347C57.2686 150.997 56.6276 149.648 55.9191 148.245C55.737 147.914 55.5818 147.57 55.4334 147.226C56.8755 146.5 58.1507 145.482 59.178 144.237C61.1346 141.815 59.9539 139.156 57.7408 139.332C55.9326 139.467 55.2242 141.147 54.9206 143.029C54.798 143.852 54.7237 144.681 54.6979 145.512L54.0232 144.028C52.6526 140.665 51.5252 137.208 50.6497 133.684C52.2737 133.113 53.7524 132.191 54.9813 130.986C57.1741 128.766 56.27 126.006 54.0435 125.952C52.2353 125.912 51.3447 127.511 50.8656 129.326C50.6242 130.317 50.444 131.322 50.3259 132.335C49.8468 130.311 49.4353 128.287 49.0979 126.216C48.8618 124.94 48.7133 123.652 48.5514 122.363C50.307 122.023 51.9602 121.281 53.3823 120.197C55.8449 118.288 55.2984 115.434 53.0989 115.09C51.3177 114.813 50.2382 116.284 49.5095 118.052C49.0831 119.173 48.727 120.32 48.4435 121.486C48.3018 119.988 48.1466 118.497 48.0791 116.999C47.8834 113.907 47.897 110.805 48.1196 107.715C47.8025 110.804 47.6943 113.91 47.7957 117.013C47.7957 118.443 47.9172 119.867 48.0049 121.297C47.622 120.324 47.1711 119.379 46.6555 118.47C45.7244 116.905 44.4762 115.724 42.7557 116.446C40.6304 117.316 40.4482 120.265 43.1066 121.547C44.6737 122.264 46.3917 122.591 48.1128 122.498C48.2343 123.773 48.3422 125.048 48.5312 126.31C48.801 128.334 49.1451 130.358 49.5432 132.322C49.1087 131.559 48.6241 130.827 48.0926 130.129C46.9591 128.698 45.576 127.686 43.9567 128.611C41.9326 129.751 42.162 132.693 44.9687 133.617C46.5592 134.114 48.2447 134.227 49.8873 133.948C50.6612 137.513 51.6871 141.019 52.9572 144.439L53.362 145.465C52.9977 144.999 52.6064 144.52 52.1948 144.115C50.9264 142.806 49.4488 141.943 47.9307 143.022C46.0618 144.372 46.5813 147.266 49.4353 147.907C51.0327 148.233 52.6838 148.184 54.2594 147.765C54.4011 148.116 54.5428 148.44 54.7114 148.811C55.3861 150.215 56.0069 151.659 56.7355 153.042C56.9379 153.44 57.1471 153.831 57.3563 154.222C56.9987 153.919 56.6276 153.622 56.243 153.352C54.7587 152.299 53.1394 151.726 51.8507 153.075C50.2719 154.735 51.2974 157.501 54.2526 157.589C55.7744 157.61 57.2823 157.299 58.6719 156.678C59.5153 158.21 60.3924 159.721 61.3303 161.206C61.6811 161.772 62.0454 162.332 62.4098 162.892C61.8744 162.393 61.3088 161.926 60.7163 161.496C59.2252 160.443 57.6059 159.87 56.324 161.219C54.7384 162.879 55.764 165.645 58.7192 165.733C60.409 165.753 62.0791 165.369 63.5905 164.613C64.0763 165.287 64.5823 165.962 65.1086 166.637C64.0088 167.912 64.3664 170.078 66.5997 171.036C67.6953 171.489 68.8626 171.745 70.0474 171.792C70.1823 171.906 70.324 172.014 70.4657 172.115L70.5399 172.169C71.0595 174.113 71.6262 176.042 72.2199 177.958H62.2074V209.744H87.2793V177.938H75.6002C74.5949 174.504 73.7515 171.515 73.5761 171.434L73.2252 171.265C74.5412 170.815 75.7644 170.129 76.8349 169.241C79.2099 167.217 78.5352 164.39 76.3289 164.154C74.5274 163.952 73.5154 165.47 72.8744 167.271C72.6896 167.784 72.5319 168.307 72.4021 168.836C72.2739 168.357 72.1457 167.878 72.0243 167.399C71.6599 165.982 71.3496 164.552 71.0122 163.128C72.4415 162.671 73.7682 161.94 74.9187 160.976C77.2937 158.952 76.619 156.132 74.4127 155.889C72.6113 155.693 71.606 157.238 70.9582 159.006C70.7721 159.528 70.6122 160.06 70.4792 160.598C70.2701 159.559 70.0744 158.52 69.8922 157.474C69.7573 156.692 69.6358 155.916 69.5211 155.14C69.4739 154.033 69.4604 152.92 69.4739 151.814C69.4739 151.2 69.4739 150.592 69.5279 149.979C70.8661 150.411 72.2731 150.592 73.6773 150.512C76.7944 150.309 77.9414 147.644 76.3154 146.126C74.966 144.898 73.2725 145.505 71.6802 146.558C70.9757 147.045 70.2999 147.572 69.6561 148.137C69.8473 145.527 70.2444 142.938 70.8435 140.391C71.1987 138.897 71.6356 137.424 72.1525 135.978C73.5823 136.473 75.0949 136.684 76.6055 136.599C79.7159 136.404 80.8696 133.732 79.2436 132.22C77.8942 130.986 76.2007 131.6 74.6084 132.652C74.0433 133.035 73.4983 133.448 72.9756 133.887C73.5752 132.474 74.2741 131.105 75.0672 129.791C76.6567 127.147 78.6458 124.764 80.9641 122.727C82.1582 123.821 83.5666 124.655 85.1 125.176C88.0687 126.148 90.1265 124.097 89.1482 122.086C88.3791 120.454 86.5574 120.379 84.6817 120.737C83.9728 120.895 83.2725 121.088 82.5834 121.317H82.6306C85.1749 119.327 87.9174 117.604 90.8147 116.176C91.8402 117.516 93.1428 118.618 94.6335 119.408C97.4066 120.838 99.768 119.151 99.154 117.013C98.6548 115.272 96.8668 114.914 94.9574 114.988C94.2089 115.03 93.4633 115.113 92.7241 115.238C95.8075 113.781 98.9516 112.404 101.988 110.799L102.055 110.765C103.42 111.937 105.036 112.78 106.778 113.228C109.808 113.976 111.71 111.777 110.61 109.854C109.727 108.275 107.912 108.343 106.063 108.869C105.55 109.011 105.044 109.2 104.545 109.388C106.57 108.209 108.533 106.928 110.428 105.549L110.59 105.718C110.587 105.693 110.587 105.668 110.59 105.644C111.953 106.826 113.569 107.68 115.313 108.14C118.343 108.882 120.245 106.69 119.152 104.767C118.329 103.201 116.507 103.201 114.699 103.755ZM66.8965 165.699C66.2826 164.977 65.6888 164.221 65.1153 163.459C65.257 163.331 65.4055 163.189 65.5539 163.041C66.4075 163.309 67.2916 163.468 68.1852 163.513V163.655L68.6035 163.574C68.8194 164.647 69.0488 165.726 69.2782 166.799C68.997 166.433 68.6305 166.141 68.2106 165.95C67.7907 165.758 67.3303 165.672 66.8696 165.699H66.8965ZM69.1298 139.966C68.9207 140.769 68.7385 141.578 68.5698 142.388L68.4686 142.246C68.4686 140.582 68.4933 138.92 68.5428 137.26C68.59 136.093 68.6778 134.933 68.779 133.779C69.3361 134.354 69.9536 134.868 70.6209 135.31C70.0308 136.834 69.524 138.388 69.1028 139.966H69.1298ZM71.9366 132.308C71.9366 132.004 72.004 131.694 72.0243 131.397C72.0243 131.242 72.0243 131.087 72.0243 130.938C72.2672 130.864 72.5168 130.776 72.7665 130.675C72.4561 131.215 72.193 131.755 71.9096 132.308H71.9366ZM75.4922 126.526C75.3737 126.256 75.202 126.014 74.9876 125.812C74.7731 125.61 74.5203 125.454 74.244 125.352C72.5573 124.677 71.1876 125.905 70.1014 127.47L70.0474 127.551L69.9395 127.518L69.5886 127.47C69.5886 127.376 69.6223 127.282 69.6358 127.187C70.0698 124.72 70.6533 122.283 71.3833 119.887C72.9527 120.083 74.5455 119.959 76.0657 119.522C76.9958 119.286 77.81 118.723 78.3597 117.937C78.6655 119.313 79.2386 120.615 80.0465 121.769C78.361 123.194 76.8259 124.788 75.4653 126.526H75.4922Z" fill="#017706"/>
<path d="M128.638 114.847H248.58C250.011 114.847 251.384 115.415 252.397 116.428C253.409 117.44 253.977 118.813 253.977 120.244V204.407H123.261V120.224C123.266 118.8 123.834 117.435 124.842 116.428C125.849 115.42 127.214 114.852 128.638 114.847Z" fill="#263238" stroke="#263238" stroke-linecap="round" stroke-linejoin="round"/>
<path d="M273.564 243.992H103.654L123.261 204.4H253.958L273.564 243.992Z" fill="white" stroke="#263238" stroke-linecap="round" stroke-linejoin="round"/>
<path d="M246.043 121.938H131.175V197.309H246.043V121.938Z" fill="#017706" stroke="#263238" stroke-linecap="round" stroke-linejoin="round"/>
<path d="M183.154 216.93L183.383 212.105H176.474L176.016 216.93H183.154Z" fill="#263238" stroke="white" stroke-linecap="round" stroke-linejoin="round"/>
<path d="M197.431 216.93L197.195 212.105H190.286L190.293 216.93H197.431Z" fill="#263238" stroke="white" stroke-linecap="round" stroke-linejoin="round"/>
<path d="M234.6 222.09H241.981L240.247 216.929H233.115L234.6 222.09Z" fill="#263238" stroke="white" stroke-linecap="round" stroke-linejoin="round"/>
<path d="M176.015 216.93L176.474 212.105H169.572L168.884 216.93H176.015Z" fill="#263238" stroke="white" stroke-linecap="round" stroke-linejoin="round"/>
<path d="M161.746 216.93L162.663 212.105H155.761L154.607 216.93H161.746Z" fill="#263238" stroke="white" stroke-linecap="round" stroke-linejoin="round"/>
<path d="M225.978 216.93L224.817 212.105H217.915L218.839 216.93H225.978Z" fill="#263238" stroke="white" stroke-linecap="round" stroke-linejoin="round"/>
<path d="M233.115 216.93L231.725 212.105H224.816L225.977 216.93H233.115Z" fill="#263238" stroke="white" stroke-linecap="round" stroke-linejoin="round"/>
<path d="M154.608 216.93L155.762 212.105H148.853L147.47 216.93H154.608Z" fill="#263238" stroke="white" stroke-linecap="round" stroke-linejoin="round"/>
<path d="M204.563 216.93L204.098 212.105H197.195L197.431 216.93H204.563Z" fill="#263238" stroke="white" stroke-linecap="round" stroke-linejoin="round"/>
<path d="M240.248 216.93L238.629 212.105H231.727L233.116 216.93H240.248Z" fill="#263238" stroke="white" stroke-linecap="round" stroke-linejoin="round"/>
<path d="M218.839 216.93L217.915 212.105H211.006L211.701 216.93H218.839Z" fill="#263238" stroke="white" stroke-linecap="round" stroke-linejoin="round"/>
<path d="M211.701 216.93L211.006 212.105H204.097L204.562 216.93H211.701Z" fill="#263238" stroke="white" stroke-linecap="round" stroke-linejoin="round"/>
<path d="M190.293 216.93L190.286 212.105H183.384L183.154 216.93H190.293Z" fill="#263238" stroke="white" stroke-linecap="round" stroke-linejoin="round"/>
<path d="M140.338 216.929H133.2L131.229 222.09H138.611L140.338 216.929Z" fill="#263238" stroke="white" stroke-linecap="round" stroke-linejoin="round"/>
<path d="M141.943 212.105H135.041L133.199 216.93H140.338L141.943 212.105Z" fill="#263238" stroke="white" stroke-linecap="round" stroke-linejoin="round"/>
<path d="M147.469 216.93L148.853 212.105H141.944L140.338 216.93H147.469Z" fill="#263238" stroke="white" stroke-linecap="round" stroke-linejoin="round"/>
<path d="M129.117 227.616L126.844 233.554H134.778L136.762 227.616H129.117Z" fill="#263238" stroke="white" stroke-linecap="round" stroke-linejoin="round"/>
<path d="M138.609 222.09H131.228L129.116 227.616H136.761L138.609 222.09Z" fill="#263238" stroke="white" stroke-linecap="round" stroke-linejoin="round"/>
<path d="M136.762 227.616L134.778 233.554H142.713L144.413 227.616H136.762Z" fill="#263238" stroke="white" stroke-linecap="round" stroke-linejoin="round"/>
<path d="M168.884 216.93L169.573 212.105H162.664L161.746 216.93H168.884Z" fill="#263238" stroke="white" stroke-linecap="round" stroke-linejoin="round"/>
<path d="M168.142 222.09L168.884 216.929H161.746L160.761 222.09H168.142Z" fill="#263238" stroke="white" stroke-linecap="round" stroke-linejoin="round"/>
<path d="M160.761 222.09L161.746 216.929H154.608L153.38 222.09H160.761Z" fill="#263238" stroke="white" stroke-linecap="round" stroke-linejoin="round"/>
<path d="M175.531 222.09L176.016 216.929H168.885L168.143 222.09H175.531Z" fill="#263238" stroke="white" stroke-linecap="round" stroke-linejoin="round"/>
<path d="M147.47 216.929H140.339L138.611 222.09H145.993L147.47 216.929Z" fill="#263238" stroke="white" stroke-linecap="round" stroke-linejoin="round"/>
<path d="M236.192 227.616H243.843L241.981 222.09H234.6L236.192 227.616Z" fill="#263238" stroke="white" stroke-linecap="round" stroke-linejoin="round"/>
<path d="M153.38 222.09L154.608 216.929H147.47L145.992 222.09H153.38Z" fill="#263238" stroke="white" stroke-linecap="round" stroke-linejoin="round"/>
<path d="M138.61 222.09L136.762 227.616H144.413L145.992 222.09H138.61Z" fill="#263238" stroke="white" stroke-linecap="round" stroke-linejoin="round"/>
<path d="M219.831 222.09L218.84 216.929H211.701L212.45 222.09H219.831Z" fill="#263238" stroke="white" stroke-linecap="round" stroke-linejoin="round"/>
<path d="M212.45 222.09L211.701 216.929H204.562L205.062 222.09H212.45Z" fill="#263238" stroke="white" stroke-linecap="round" stroke-linejoin="round"/>
<path d="M234.6 222.09L233.116 216.929H225.978L227.212 222.09H234.6Z" fill="#263238" stroke="white" stroke-linecap="round" stroke-linejoin="round"/>
<path d="M190.3 222.09L190.293 216.929H183.155L182.912 222.09H190.3Z" fill="#263238" stroke="white" stroke-linecap="round" stroke-linejoin="round"/>
<path d="M205.062 222.09L204.562 216.929H197.431L197.68 222.09H205.062Z" fill="#263238" stroke="white" stroke-linecap="round" stroke-linejoin="round"/>
<path d="M197.681 222.09L197.431 216.929H190.293L190.3 222.09H197.681Z" fill="#263238" stroke="white" stroke-linecap="round" stroke-linejoin="round"/>
<path d="M182.912 222.09L183.154 216.929H176.016L175.53 222.09H182.912Z" fill="#263238" stroke="white" stroke-linecap="round" stroke-linejoin="round"/>
<path d="M205.062 222.09L205.601 227.616H213.246L212.45 222.09H205.062Z" fill="#263238" stroke="white" stroke-linecap="round" stroke-linejoin="round"/>
<path d="M212.449 222.09L213.245 227.616H220.896L219.83 222.09H212.449Z" fill="#263238" stroke="white" stroke-linecap="round" stroke-linejoin="round"/>
<path d="M145.992 222.09L144.413 227.616H152.064L153.38 222.09H145.992Z" fill="#263238" stroke="white" stroke-linecap="round" stroke-linejoin="round"/>
<path d="M219.83 222.09L220.896 227.616H228.54L227.211 222.09H219.83Z" fill="#263238" stroke="white" stroke-linecap="round" stroke-linejoin="round"/>
<path d="M190.299 222.09V227.616H197.95L197.68 222.09H190.299Z" fill="#263238" stroke="white" stroke-linecap="round" stroke-linejoin="round"/>
<path d="M227.212 222.09L228.541 227.616H236.192L234.6 222.09H227.212Z" fill="#263238" stroke="white" stroke-linecap="round" stroke-linejoin="round"/>
<path d="M197.681 222.09L197.951 227.616H205.602L205.062 222.09H197.681Z" fill="#263238" stroke="white" stroke-linecap="round" stroke-linejoin="round"/>
<path d="M160.761 222.09L159.708 227.616H167.359L168.142 222.09H160.761Z" fill="#263238" stroke="white" stroke-linecap="round" stroke-linejoin="round"/>
<path d="M153.379 222.09L152.063 227.616H159.708L160.76 222.09H153.379Z" fill="#263238" stroke="white" stroke-linecap="round" stroke-linejoin="round"/>
<path d="M182.912 222.09L182.655 227.616H190.3V222.09H182.912Z" fill="#263238" stroke="white" stroke-linecap="round" stroke-linejoin="round"/>
<path d="M175.53 222.09L175.004 227.616H182.655L182.911 222.09H175.53Z" fill="#263238" stroke="white" stroke-linecap="round" stroke-linejoin="round"/>
<path d="M168.143 222.09L167.36 227.616H175.005L175.531 222.09H168.143Z" fill="#263238" stroke="white" stroke-linecap="round" stroke-linejoin="round"/>
<path d="M227.212 222.09L225.977 216.929H218.839L219.831 222.09H227.212Z" fill="#263238" stroke="white" stroke-linecap="round" stroke-linejoin="round"/>
<path d="M141.943 212.105L143.596 207.166H136.923L135.041 212.105H141.943Z" fill="#263238" stroke="white" stroke-linecap="round" stroke-linejoin="round"/>
<path d="M135.041 212.105H128.665L126.607 216.93H133.199L135.041 212.105Z" fill="#263238" stroke="white" stroke-linecap="round" stroke-linejoin="round"/>
<path d="M136.923 207.166H130.77L128.665 212.105H135.041L136.923 207.166Z" fill="#263238" stroke="white" stroke-linecap="round" stroke-linejoin="round"/>
<path d="M133.2 216.929H126.608L124.415 222.09H131.23L133.2 216.929Z" fill="#263238" stroke="white" stroke-linecap="round" stroke-linejoin="round"/>
<path d="M131.229 222.09H124.414L122.053 227.616H129.117L131.229 222.09Z" fill="#263238" stroke="white" stroke-linecap="round" stroke-linejoin="round"/>
<path d="M129.118 227.616H122.054L119.523 233.554H126.844L129.118 227.616Z" fill="#263238" stroke="white" stroke-linecap="round" stroke-linejoin="round"/>
<path d="M247.387 216.929L249.37 222.09H255.901L253.702 216.929H247.387Z" fill="#263238" stroke="white" stroke-linecap="round" stroke-linejoin="round"/>
<path d="M251.488 227.616H258.255L255.9 222.09H249.369L251.488 227.616Z" fill="#263238" stroke="white" stroke-linecap="round" stroke-linejoin="round"/>
<path d="M253.769 233.554H260.786L258.256 227.616H251.488L253.769 233.554Z" fill="#263238" stroke="white" stroke-linecap="round" stroke-linejoin="round"/>
<path d="M197.195 212.105L196.952 207.166H190.286V212.105H197.195Z" fill="#263238" stroke="white" stroke-linecap="round" stroke-linejoin="round"/>
<path d="M247.386 216.93H253.701L251.643 212.105H245.537L247.386 216.93Z" fill="#263238" stroke="white" stroke-linecap="round" stroke-linejoin="round"/>
<path d="M243.844 227.616H251.488L249.369 222.09H241.981L243.844 227.616Z" fill="#263238" stroke="white" stroke-linecap="round" stroke-linejoin="round"/>
<path d="M148.852 212.105L150.262 207.166H143.596L141.943 212.105H148.852Z" fill="#263238" stroke="white" stroke-linecap="round" stroke-linejoin="round"/>
<path d="M238.629 212.105L240.248 216.93H247.387L245.538 212.105H238.629Z" fill="#263238" stroke="white" stroke-linecap="round" stroke-linejoin="round"/>
<path d="M251.644 212.105L249.539 207.166H243.642L245.538 212.105H251.644Z" fill="#263238" stroke="white" stroke-linecap="round" stroke-linejoin="round"/>
<path d="M245.537 212.105L243.642 207.166H236.969L238.629 212.105H245.537Z" fill="#263238" stroke="white" stroke-linecap="round" stroke-linejoin="round"/>
<path d="M220.897 227.616L222.038 233.554H229.972L228.542 227.616H220.897Z" fill="#263238" stroke="white" stroke-linecap="round" stroke-linejoin="round"/>
<path d="M245.834 233.554H253.769L251.488 227.616H243.844L245.834 233.554Z" fill="#263238" stroke="white" stroke-linecap="round" stroke-linejoin="round"/>
<path d="M238.629 212.105L236.969 207.166H230.303L231.726 212.105H238.629Z" fill="#263238" stroke="white" stroke-linecap="round" stroke-linejoin="round"/>
<path d="M236.192 227.616L237.906 233.554H245.834L243.843 227.616H236.192Z" fill="#263238" stroke="white" stroke-linecap="round" stroke-linejoin="round"/>
<path d="M228.542 227.616L229.972 233.554H237.907L236.193 227.616H228.542Z" fill="#263238" stroke="white" stroke-linecap="round" stroke-linejoin="round"/>
<path d="M241.981 222.09H249.369L247.385 216.929H240.247L241.981 222.09Z" fill="#263238" stroke="white" stroke-linecap="round" stroke-linejoin="round"/>
<path d="M176.474 212.105L176.947 207.166H170.274L169.572 212.105H176.474Z" fill="#263238" stroke="white" stroke-linecap="round" stroke-linejoin="round"/>
<path d="M231.726 212.105L230.303 207.166H223.63L224.817 212.105H231.726Z" fill="#263238" stroke="white" stroke-linecap="round" stroke-linejoin="round"/>
<path d="M169.572 212.105L170.274 207.166H163.608L162.663 212.105H169.572Z" fill="#263238" stroke="white" stroke-linecap="round" stroke-linejoin="round"/>
<path d="M190.285 212.105V207.166H183.612L183.383 212.105H190.285Z" fill="#263238" stroke="white" stroke-linecap="round" stroke-linejoin="round"/>
<path d="M162.664 212.105L163.609 207.166H156.936L155.762 212.105H162.664Z" fill="#263238" stroke="white" stroke-linecap="round" stroke-linejoin="round"/>
<path d="M155.761 212.105L156.935 207.166H150.263L148.853 212.105H155.761Z" fill="#263238" stroke="white" stroke-linecap="round" stroke-linejoin="round"/>
<path d="M183.384 212.105L183.613 207.166H176.947L176.475 212.105H183.384Z" fill="#263238" stroke="white" stroke-linecap="round" stroke-linejoin="round"/>
<path d="M224.817 212.105L223.63 207.166H216.964L217.915 212.105H224.817Z" fill="#263238" stroke="white" stroke-linecap="round" stroke-linejoin="round"/>
<path d="M217.914 212.105L216.963 207.166H210.29L211.005 212.105H217.914Z" fill="#263238" stroke="white" stroke-linecap="round" stroke-linejoin="round"/>
<path d="M204.097 212.105L203.625 207.166H196.952L197.195 212.105H204.097Z" fill="#263238" stroke="white" stroke-linecap="round" stroke-linejoin="round"/>
<path d="M220.897 227.616H213.246H205.602H197.951H190.3H182.655H175.004H167.36H159.709H152.064H144.413L142.713 233.554H150.647H158.575H166.51H174.444H182.379H190.306H198.241H206.175H214.103H222.038L220.897 227.616Z" fill="#263238" stroke="white" stroke-linecap="round" stroke-linejoin="round"/>
<path d="M211.006 212.105L210.291 207.166H203.625L204.097 212.105H211.006Z" fill="#263238" stroke="white" stroke-linecap="round" stroke-linejoin="round"/>
<path d="M273.639 243.984H103.654V246.393H273.639V243.984Z" fill="#263238" stroke="#263238" stroke-linecap="round" stroke-linejoin="round"/>
<path opacity="0.15" d="M234.061 139.129V203.961L215.217 228.527L212.045 229.714L115.374 243.977V247.148L79.9658 249.051V214.263H140.338V138.818L234.061 139.129Z" fill="black"/>
<path d="M58.2537 207.307C53.9019 207.523 49.1858 210.842 49.1858 210.842L0 249.051H79.9657C79.9657 249.051 130.454 210.95 131.965 209.857C134.36 208.13 139.11 207.253 139.11 207.253L136.863 207.307H58.2537Z" fill="white" stroke="#263238" stroke-linecap="round" stroke-linejoin="round"/>
<path d="M242.218 139.189H135.203" stroke="#263238" stroke-linecap="round" stroke-linejoin="round"/>
<path d="M226.078 116.128C225.029 116.127 223.99 116.333 223.021 116.734C222.052 117.136 221.171 117.724 220.43 118.466C219.688 119.208 219.101 120.089 218.7 121.059C218.3 122.028 218.095 123.067 218.096 124.116V222.225C218.094 223.519 217.781 224.793 217.185 225.941C216.588 227.09 215.725 228.078 214.668 228.824C213.611 229.57 212.39 230.052 211.108 230.229C209.827 230.406 208.521 230.273 207.301 229.842L146.76 208.339C143.585 207.209 140.151 207.016 136.869 207.786V124.116C136.869 122 137.71 119.969 139.207 118.472C140.704 116.976 142.734 116.135 144.851 116.135L226.078 116.128Z" fill="white"/>
<path d="M154.196 210.985L207.295 229.843C208.515 230.275 209.821 230.407 211.102 230.23C212.384 230.053 213.605 229.571 214.662 228.825C215.719 228.079 216.582 227.091 217.179 225.942C217.775 224.794 218.088 223.52 218.091 222.226V210.985H154.196Z" fill="#017706"/>
<path opacity="0.6" d="M154.196 210.985L207.295 229.843C208.515 230.275 209.821 230.407 211.102 230.23C212.384 230.053 213.605 229.571 214.662 228.825C215.719 228.079 216.582 227.091 217.179 225.942C217.775 224.794 218.088 223.52 218.091 222.226V210.985H154.196Z" fill="white"/>
<path d="M154.196 223.906L207.295 242.798C208.516 243.229 209.822 243.362 211.104 243.184C212.386 243.007 213.607 242.525 214.665 241.778C215.722 241.031 216.585 240.042 217.181 238.893C217.777 237.744 218.089 236.468 218.091 235.174V223.906H154.196Z" fill="#017706"/>
<path d="M226.078 116.128C225.029 116.127 223.99 116.333 223.021 116.734C222.052 117.136 221.171 117.724 220.43 118.466C219.688 119.208 219.101 120.089 218.7 121.059C218.3 122.028 218.095 123.067 218.096 124.116V222.225C218.094 223.519 217.781 224.793 217.185 225.941C216.588 227.09 215.725 228.078 214.668 228.824C213.611 229.57 212.39 230.052 211.108 230.229C209.827 230.406 208.521 230.273 207.301 229.842L146.76 208.339C143.585 207.209 140.151 207.016 136.869 207.786V124.116C136.869 122 137.71 119.969 139.207 118.472C140.704 116.976 142.734 116.135 144.851 116.135L226.078 116.128Z" stroke="#263238" stroke-linecap="round" stroke-linejoin="round"/>
<path d="M140.304 207.307H136.863" stroke="#263238" stroke-linecap="round" stroke-linejoin="round"/>
<path d="M210.015 230.321H128.781C127.86 230.317 126.947 230.155 126.082 229.842L112.055 224.91L129.496 211.483C131.851 209.499 134.684 208.164 137.713 207.613C140.743 207.061 143.865 207.312 146.768 208.339L207.309 229.842C208.177 230.156 209.092 230.318 210.015 230.321Z" fill="white"/>
<path d="M210.015 230.321H128.781C127.86 230.317 126.948 230.155 126.082 229.842L111.185 224.647L129.482 211.483C131.837 209.499 134.67 208.164 137.7 207.613C140.73 207.061 143.852 207.312 146.755 208.339L207.296 229.842C208.168 230.157 209.088 230.319 210.015 230.321Z" fill="#017706"/>
<path opacity="0.2" d="M210.015 230.321H128.781C127.86 230.317 126.948 230.155 126.082 229.842L111.185 224.647L129.482 211.483C131.837 209.499 134.67 208.164 137.7 207.613C140.73 207.061 143.852 207.312 146.755 208.339L207.296 229.842C208.168 230.157 209.088 230.319 210.015 230.321Z" fill="black"/>
<path d="M210.015 230.321H128.781C127.86 230.317 126.947 230.155 126.082 229.842L112.055 224.91L129.496 211.483C131.851 209.499 134.684 208.164 137.713 207.613C140.743 207.061 143.865 207.312 146.768 208.339L207.309 229.842C208.177 230.156 209.092 230.318 210.015 230.321V230.321Z" stroke="#263238" stroke-linecap="round" stroke-linejoin="round"/>
<path d="M128.781 230.321H128.605" stroke="#263238" stroke-linecap="round" stroke-linejoin="round"/>
<path d="M210.17 230.321H210.015" stroke="#263238" stroke-linecap="round" stroke-linejoin="round"/>
<path d="M231.72 118.469C230.981 117.725 230.102 117.135 229.134 116.733C228.166 116.331 227.128 116.126 226.079 116.128C217.767 116.128 218.097 124.11 218.097 124.11V139.129H234.061V124.116C234.064 123.067 233.858 122.028 233.456 121.058C233.054 120.089 232.464 119.209 231.72 118.469Z" fill="white"/>
<path d="M231.719 118.469C230.98 117.725 230.101 117.135 229.133 116.733C228.165 116.331 227.127 116.126 226.078 116.128C217.766 116.128 218.097 124.11 218.097 124.11V139.129H234.06V124.116C234.063 123.067 233.857 122.028 233.455 121.058C233.053 120.089 232.463 119.209 231.719 118.469Z" fill="#017706"/>
<path opacity="0.2" d="M231.719 118.469C230.98 117.725 230.101 117.135 229.133 116.733C228.165 116.331 227.127 116.126 226.078 116.128C217.766 116.128 218.097 124.11 218.097 124.11V139.129H234.06V124.116C234.063 123.067 233.857 122.028 233.455 121.058C233.053 120.089 232.463 119.209 231.719 118.469Z" fill="black"/>
<path d="M231.72 118.469C230.981 117.725 230.102 117.135 229.134 116.733C228.166 116.331 227.128 116.126 226.079 116.128C217.767 116.128 218.097 124.11 218.097 124.11V139.129H234.061V124.116C234.064 123.067 233.858 122.028 233.456 121.058C233.054 120.089 232.464 119.209 231.72 118.469V118.469Z" stroke="#263238" stroke-linecap="round" stroke-linejoin="round"/>
<g opacity="0.15">
<path opacity="0.15" d="M144.318 129.879V130.021V133.428V133.57V136.977V137.119V140.519V140.661V144.068V144.21V147.617V147.759V151.159V151.301V154.708V154.85V158.257V158.399V161.799V161.941V165.348V165.49V169.039H152.03V165.49V165.348V161.941V161.799V158.399V158.257V154.85V154.708V151.301V151.159V147.759V147.617V144.21V144.068V140.661V140.519V137.119V136.977V133.57V133.428V130.021V129.879V126.337H144.318V129.879Z" fill="black"/>
<path opacity="0.15" d="M205.123 126.337H204.961H197.58H197.411H190.03H189.861H182.487H182.318H174.937H174.768H167.394H167.225H159.844H159.675H152.132V130.021H159.675H159.844H167.225H167.394H174.768H174.937H182.318H182.487H189.861H190.03H197.411H197.58H204.961H205.123H212.673V126.337H205.123Z" fill="black"/>
</g>
<path d="M152.031 126.336H144.319V130.027H152.031V126.336Z" stroke="#263238" stroke-width="0.25" stroke-linecap="round" stroke-linejoin="round"/>
<path d="M152.031 129.878H144.319V133.569H152.031V129.878Z" stroke="#263238" stroke-width="0.25" stroke-linecap="round" stroke-linejoin="round"/>
<path d="M152.031 133.428H144.319V137.118H152.031V133.428Z" stroke="#263238" stroke-width="0.25" stroke-linecap="round" stroke-linejoin="round"/>
<path d="M152.031 136.977H144.319V140.667H152.031V136.977Z" stroke="#263238" stroke-width="0.25" stroke-linecap="round" stroke-linejoin="round"/>
<path d="M152.031 140.519H144.319V144.209H152.031V140.519Z" stroke="#263238" stroke-width="0.25" stroke-linecap="round" stroke-linejoin="round"/>
<path d="M152.031 144.067H144.319V147.758H152.031V144.067Z" stroke="#263238" stroke-width="0.25" stroke-linecap="round" stroke-linejoin="round"/>
<path d="M152.031 147.617H144.319V151.308H152.031V147.617Z" stroke="#263238" stroke-width="0.25" stroke-linecap="round" stroke-linejoin="round"/>
<path d="M152.031 151.159H144.319V154.85H152.031V151.159Z" stroke="#263238" stroke-width="0.25" stroke-linecap="round" stroke-linejoin="round"/>
<path d="M152.031 154.708H144.319V158.399H152.031V154.708Z" stroke="#263238" stroke-width="0.25" stroke-linecap="round" stroke-linejoin="round"/>
<path d="M152.031 158.257H144.319V161.947H152.031V158.257Z" stroke="#263238" stroke-width="0.25" stroke-linecap="round" stroke-linejoin="round"/>
<path d="M152.031 161.799H144.319V165.489H152.031V161.799Z" stroke="#263238" stroke-width="0.25" stroke-linecap="round" stroke-linejoin="round"/>
<path d="M152.031 165.348H144.319V169.038H152.031V165.348Z" stroke="#263238" stroke-width="0.25" stroke-linecap="round" stroke-linejoin="round"/>
<path d="M159.844 126.336H152.132V130.027H159.844V126.336Z" stroke="#263238" stroke-width="0.25" stroke-linecap="round" stroke-linejoin="round"/>
<path d="M167.387 126.336H159.675V130.027H167.387V126.336Z" stroke="#263238" stroke-width="0.25" stroke-linecap="round" stroke-linejoin="round"/>
<path d="M174.937 126.336H167.226V130.027H174.937V126.336Z" stroke="#263238" stroke-width="0.25" stroke-linecap="round" stroke-linejoin="round"/>
<path d="M182.479 126.336H174.768V130.027H182.479V126.336Z" stroke="#263238" stroke-width="0.25" stroke-linecap="round" stroke-linejoin="round"/>
<path d="M190.029 126.336H182.317V130.027H190.029V126.336Z" stroke="#263238" stroke-width="0.25" stroke-linecap="round" stroke-linejoin="round"/>
<path d="M197.572 126.336H189.86V130.027H197.572V126.336Z" stroke="#263238" stroke-width="0.25" stroke-linecap="round" stroke-linejoin="round"/>
<path d="M205.123 126.336H197.411V130.027H205.123V126.336Z" stroke="#263238" stroke-width="0.25" stroke-linecap="round" stroke-linejoin="round"/>
<path d="M212.672 126.336H204.96V130.027H212.672V126.336Z" stroke="#263238" stroke-width="0.25" stroke-linecap="round" stroke-linejoin="round"/>
<path d="M212.666 130.021H152.03V169.032H212.666V130.021Z" stroke="#263238" stroke-width="0.25" stroke-linecap="round" stroke-linejoin="round"/>
<path d="M159.743 130.021V169.025" stroke="#263238" stroke-width="0.25" stroke-linecap="round" stroke-linejoin="round"/>
<path d="M167.292 130.021V169.025" stroke="#263238" stroke-width="0.25" stroke-linecap="round" stroke-linejoin="round"/>
<path d="M174.843 130.021V169.025" stroke="#263238" stroke-width="0.25" stroke-linecap="round" stroke-linejoin="round"/>
<path d="M182.392 130.021V169.025" stroke="#263238" stroke-width="0.25" stroke-linecap="round" stroke-linejoin="round"/>
<path d="M189.936 130.021V169.025" stroke="#263238" stroke-width="0.25" stroke-linecap="round" stroke-linejoin="round"/>
<path d="M197.485 130.021V169.025" stroke="#263238" stroke-width="0.25" stroke-linecap="round" stroke-linejoin="round"/>
<path d="M205.036 130.021V169.025" stroke="#263238" stroke-width="0.25" stroke-linecap="round" stroke-linejoin="round"/>
<path d="M152.03 133.569H212.625" stroke="#263238" stroke-width="0.25" stroke-linecap="round" stroke-linejoin="round"/>
<path d="M152.03 137.104H212.625" stroke="#263238" stroke-width="0.25" stroke-linecap="round" stroke-linejoin="round"/>
<path d="M152.03 140.64H212.625" stroke="#263238" stroke-width="0.25" stroke-linecap="round" stroke-linejoin="round"/>
<path d="M152.03 144.176H212.625" stroke="#263238" stroke-width="0.25" stroke-linecap="round" stroke-linejoin="round"/>
<path d="M152.03 147.711H212.625" stroke="#263238" stroke-width="0.25" stroke-linecap="round" stroke-linejoin="round"/>
<path d="M152.03 151.24H212.625" stroke="#263238" stroke-width="0.25" stroke-linecap="round" stroke-linejoin="round"/>
<path d="M152.03 154.775H212.625" stroke="#263238" stroke-width="0.25" stroke-linecap="round" stroke-linejoin="round"/>
<path d="M152.03 158.312H212.625" stroke="#263238" stroke-width="0.25" stroke-linecap="round" stroke-linejoin="round"/>
<path d="M152.03 161.846H212.625" stroke="#263238" stroke-width="0.25" stroke-linecap="round" stroke-linejoin="round"/>
<path d="M152.03 165.381H212.625" stroke="#263238" stroke-width="0.25" stroke-linecap="round" stroke-linejoin="round"/>
<path d="M113.378 216.807H48.3701L52.8569 213.399H117.864L113.378 216.807Z" fill="#017706"/>
<path d="M13.9663 244.159H12.374L52.8561 213.399H54.4552L13.9663 244.159Z" fill="#017706"/>
<path d="M99.0535 227.671H34.0527L39.1332 223.865H104.134L99.0535 227.671Z" fill="#263238"/>
<path d="M77.1726 244.314H12.165L52.8563 213.399H117.864L77.1726 244.314Z" stroke="#263238" stroke-width="0.25" stroke-linecap="round" stroke-linejoin="round"/>
<path d="M59.5559 213.515L19.04 244.295" stroke="#263238" stroke-width="0.25" stroke-linecap="round" stroke-linejoin="round"/>
<path d="M66.0871 213.515L25.5713 244.295" stroke="#263238" stroke-width="0.25" stroke-linecap="round" stroke-linejoin="round"/>
<path d="M72.6115 213.515L32.0957 244.295" stroke="#263238" stroke-width="0.25" stroke-linecap="round" stroke-linejoin="round"/>
<path d="M79.1428 213.515L38.627 244.295" stroke="#263238" stroke-width="0.25" stroke-linecap="round" stroke-linejoin="round"/>
<path d="M85.6731 213.515L45.1572 244.295" stroke="#263238" stroke-width="0.25" stroke-linecap="round" stroke-linejoin="round"/>
<path d="M92.2042 213.515L51.6816 244.295" stroke="#263238" stroke-width="0.25" stroke-linecap="round" stroke-linejoin="round"/>
<path d="M98.7297 213.515L58.2139 244.295" stroke="#263238" stroke-width="0.25" stroke-linecap="round" stroke-linejoin="round"/>
<path d="M105.261 213.515L64.7451 244.295" stroke="#263238" stroke-width="0.25" stroke-linecap="round" stroke-linejoin="round"/>
<path d="M111.791 213.515L71.2686 244.295" stroke="#263238" stroke-width="0.25" stroke-linecap="round" stroke-linejoin="round"/>
<path d="M44.3887 219.918H109.201" stroke="#263238" stroke-width="0.25" stroke-linecap="round" stroke-linejoin="round"/>
<path d="M39.2139 223.851H104.026" stroke="#263238" stroke-width="0.25" stroke-linecap="round" stroke-linejoin="round"/>
<path d="M34.0381 227.784H98.8499" stroke="#263238" stroke-width="0.25" stroke-linecap="round" stroke-linejoin="round"/>
<path d="M28.8643 231.712H93.6761" stroke="#263238" stroke-width="0.25" stroke-linecap="round" stroke-linejoin="round"/>
<path d="M23.6885 235.645H88.5003" stroke="#263238" stroke-width="0.25" stroke-linecap="round" stroke-linejoin="round"/>
<path d="M18.5137 239.579H83.3255" stroke="#263238" stroke-width="0.25" stroke-linecap="round" stroke-linejoin="round"/>
<path d="M212.774 172.015H144.258V174.531H212.774V172.015Z" fill="#017706"/>
<path d="M145.938 172.015H144.258V204.427H145.938V172.015Z" fill="#017706"/>
<path d="M212.774 172.015H144.258V204.596H212.774V172.015Z" stroke="#263238" stroke-width="0.25" stroke-linecap="round" stroke-linejoin="round"/>
<path d="M151.478 172.136V204.575" stroke="#263238" stroke-width="0.25" stroke-linecap="round" stroke-linejoin="round"/>
<path d="M158.359 172.136V204.575" stroke="#263238" stroke-width="0.25" stroke-linecap="round" stroke-linejoin="round"/>
<path d="M165.241 172.136V204.575" stroke="#263238" stroke-width="0.25" stroke-linecap="round" stroke-linejoin="round"/>
<path d="M172.124 172.136V204.575" stroke="#263238" stroke-width="0.25" stroke-linecap="round" stroke-linejoin="round"/>
<path d="M179.006 172.136V204.575" stroke="#263238" stroke-width="0.25" stroke-linecap="round" stroke-linejoin="round"/>
<path d="M185.887 172.136V204.575" stroke="#263238" stroke-width="0.25" stroke-linecap="round" stroke-linejoin="round"/>
<path d="M192.769 172.136V204.575" stroke="#263238" stroke-width="0.25" stroke-linecap="round" stroke-linejoin="round"/>
<path d="M199.644 172.136V204.575" stroke="#263238" stroke-width="0.25" stroke-linecap="round" stroke-linejoin="round"/>
<path d="M206.526 172.136V204.575" stroke="#263238" stroke-width="0.25" stroke-linecap="round" stroke-linejoin="round"/>
<path d="M144.373 178.882H212.687" stroke="#263238" stroke-width="0.25" stroke-linecap="round" stroke-linejoin="round"/>
<path d="M144.373 183.031H212.687" stroke="#263238" stroke-width="0.25" stroke-linecap="round" stroke-linejoin="round"/>
<path d="M144.373 187.174H212.687" stroke="#263238" stroke-width="0.25" stroke-linecap="round" stroke-linejoin="round"/>
<path d="M144.373 191.317H212.687" stroke="#263238" stroke-width="0.25" stroke-linecap="round" stroke-linejoin="round"/>
<path d="M144.373 195.459H212.687" stroke="#263238" stroke-width="0.25" stroke-linecap="round" stroke-linejoin="round"/>
<path d="M144.373 199.603H212.687" stroke="#263238" stroke-width="0.25" stroke-linecap="round" stroke-linejoin="round"/>
<path d="M190.089 192.808H187.235V199.474H190.089V192.808Z" fill="#263238" stroke="#263238" stroke-width="0.5" stroke-miterlimit="10"/>
<path d="M194.665 188.813H191.811V199.481H194.665V188.813Z" fill="#017706" stroke="#263238" stroke-width="0.5" stroke-miterlimit="10"/>
<path d="M199.233 182.147H196.379V199.481H199.233V182.147Z" fill="#263238" stroke="#263238" stroke-width="0.5" stroke-miterlimit="10"/>
<path d="M203.807 188.618H200.953V199.474H203.807V188.618Z" fill="#017706" stroke="#263238" stroke-width="0.5" stroke-miterlimit="10"/>
<path d="M208.375 182.147H205.521V199.481H208.375V182.147Z" fill="#263238" stroke="#263238" stroke-width="0.5" stroke-miterlimit="10"/>
<path d="M160.707 191.466V199.387C158.606 199.387 156.592 198.552 155.106 197.067C153.621 195.581 152.786 193.567 152.786 191.466C152.786 189.365 153.621 187.35 155.106 185.865C156.592 184.379 158.606 183.545 160.707 183.545V191.466Z" fill="#017706" stroke="#263238" stroke-width="0.5" stroke-miterlimit="10"/>
<path d="M160.707 191.466L168.237 189.017C168.561 190.006 168.687 191.05 168.607 192.088C168.527 193.127 168.242 194.139 167.77 195.067C167.298 195.996 166.648 196.822 165.856 197.498C165.064 198.174 164.147 198.688 163.156 199.009C162.367 199.273 161.539 199.405 160.707 199.4V191.466Z" fill="white" stroke="#263238" stroke-width="0.5" stroke-miterlimit="10"/>
<path d="M160.707 191.465V183.544C162.384 183.525 164.022 184.047 165.379 185.033C166.735 186.019 167.737 187.416 168.237 189.016L160.707 191.465Z" fill="#263238" stroke="#263238" stroke-width="0.5" stroke-miterlimit="10"/>
</g>
<defs>
<clipPath id="clip0_372_3921">
<rect width="280" height="280" fill="white"/>
</clipPath>
</defs>
</svg>
