<svg width="218" height="118" viewBox="0 0 218 118" fill="none" xmlns="http://www.w3.org/2000/svg">
<path d="M23.2772 110.39C24.5347 111.837 27.2977 114.019 29.4634 115.59C32.6702 116.982 34.7022 117.281 38.8404 116.76C39.1448 117.658 77.5699 106.23 83.0556 102.785C88.5412 99.3404 89.0241 98.3266 90.0232 95.5056C91.0223 92.6846 91 89.0059 91 89.0059C91 89.0059 89.0435 94.9712 60.8137 104.452C32.5839 113.933 23.2772 110.39 23.2772 110.39Z" fill="#2B3E0F"/>
<path d="M57.5292 2.16995C56.3339 1.29606 55.5667 1.0126 53.9478 1C27.4081 1.84075 0.510376 16.4276 1.00677 19.3291C1.50316 22.2307 2.50971 24.7486 3.80685 28.1037C3.80685 28.1037 6.0366 22.059 31.1722 14.9743C56.3078 7.88968 59.8562 9.6446 59.8562 9.6446L57.5292 2.16995Z" fill="#2B3E0F"/>
<path d="M23.2772 110.39C24.5347 111.837 27.2977 114.019 29.4634 115.59C32.6702 116.982 34.7022 117.281 38.8404 116.76C39.1448 117.658 77.5699 106.23 83.0556 102.785C88.5412 99.3404 89.0241 98.3266 90.0232 95.5056C91.0223 92.6846 91 89.0059 91 89.0059M23.2772 110.39C22.0196 108.943 3.80685 45.7179 3.80685 45.7179C3.82919 40.4656 4.60728 37.8091 7.84416 33.7585M23.2772 110.39C23.2772 110.39 32.5839 113.933 60.8137 104.452C89.0435 94.9712 91 89.0059 91 89.0059M91 89.0059C91 89.0059 70.4227 24.5939 69.7063 23.359C68.99 22.124 64.0507 18.8964 60.134 17.5742M60.134 17.5742C60.134 17.5742 60.1306 17.5428 60.0893 17.4973M60.134 17.5742C60.134 17.5742 60.1176 17.5467 60.0893 17.4973M61.1107 13.6744C60.6371 14.4252 59.6782 14.4544 59.2874 14.9743C59.1714 15.1287 59.1989 15.4206 59.2949 15.7547M61.1107 13.6744L59.8562 9.6446M61.1107 13.6744C61.1107 13.6744 56.9006 10.4808 32.4094 17.5742C7.91823 24.6677 5.04409 30.4436 5.04409 30.4436M3.80685 28.1037C2.50971 24.7486 1.50316 22.2307 1.00677 19.3291C0.510376 16.4276 27.4081 1.84075 53.9478 1C55.5667 1.0126 56.3339 1.29606 57.5292 2.16995L59.8562 9.6446M3.80685 28.1037C4.17237 29.0492 4.38397 29.6737 5.04409 30.4436M3.80685 28.1037C3.80685 28.1037 6.0366 22.059 31.1722 14.9743C56.3078 7.88968 59.8562 9.6446 59.8562 9.6446M5.04409 30.4436C5.66802 31.1714 6.23364 31.0893 6.86739 31.8086M6.86739 31.8086C6.86739 31.8086 10.8786 26.1475 33.1908 20.1741C55.5031 14.2007 58.5617 15.1246 59.2949 15.7547M6.86739 31.8086C7.40379 32.4173 7.80432 33.6348 7.84136 33.7497M7.84416 33.7585C7.84416 33.7585 7.84296 33.7556 7.84136 33.7497M7.84416 33.7585L7.84136 33.7497M59.4282 16.1443C59.4282 16.1443 59.5229 15.9506 59.2949 15.7547M59.4282 16.1443C59.3768 16.0118 59.331 15.8803 59.2949 15.7547M59.4282 16.1443C59.648 16.71 59.9718 17.2924 60.0893 17.4973M7.84136 33.7497C7.79004 33.5619 14.5409 28.1575 33.9814 22.4712C53.4218 16.7848 59.7544 17.1285 60.0893 17.4973" stroke="#2B3E0F" stroke-linejoin="round"/>
<g filter="url(#filter0_d_792_7154)">
<path d="M60.8175 76.336C58.4815 76.336 56.3695 75.936 54.4815 75.136C52.6255 74.336 51.1535 73.184 50.0655 71.68C48.9775 70.176 48.4175 68.4 48.3855 66.352H55.5855C55.6815 67.728 56.1615 68.816 57.0255 69.616C57.9215 70.416 59.1375 70.816 60.6735 70.816C62.2415 70.816 63.4735 70.448 64.3695 69.712C65.2655 68.944 65.7135 67.952 65.7135 66.736C65.7135 65.744 65.4095 64.928 64.8015 64.288C64.1935 63.648 63.4255 63.152 62.4975 62.8C61.6015 62.416 60.3535 62 58.7535 61.552C56.5775 60.912 54.8015 60.288 53.4255 59.68C52.0815 59.04 50.9135 58.096 49.9215 56.848C48.9615 55.568 48.4815 53.872 48.4815 51.76C48.4815 49.776 48.9775 48.048 49.9695 46.576C50.9615 45.104 52.3535 43.984 54.1455 43.216C55.9375 42.416 57.9855 42.016 60.2895 42.016C63.7455 42.016 66.5455 42.864 68.6895 44.56C70.8655 46.224 72.0655 48.56 72.2895 51.568H64.8975C64.8335 50.416 64.3375 49.472 63.4095 48.736C62.5135 47.968 61.3135 47.584 59.8095 47.584C58.4975 47.584 57.4415 47.92 56.6415 48.592C55.8735 49.264 55.4895 50.24 55.4895 51.52C55.4895 52.416 55.7775 53.168 56.3535 53.776C56.9615 54.352 57.6975 54.832 58.5615 55.216C59.4575 55.568 60.7055 55.984 62.3055 56.464C64.4815 57.104 66.2575 57.744 67.6335 58.384C69.0095 59.024 70.1935 59.984 71.1855 61.264C72.1775 62.544 72.6735 64.224 72.6735 66.304C72.6735 68.096 72.2095 69.76 71.2815 71.296C70.3535 72.832 68.9935 74.064 67.2015 74.992C65.4095 75.888 63.2815 76.336 60.8175 76.336ZM103.604 49.408V76H96.8355V72.64C95.9715 73.792 94.8355 74.704 93.4275 75.376C92.0515 76.016 90.5475 76.336 88.9155 76.336C86.8355 76.336 84.9955 75.904 83.3955 75.04C81.7955 74.144 80.5315 72.848 79.6035 71.152C78.7075 69.424 78.2595 67.376 78.2595 65.008V49.408H84.9795V64.048C84.9795 66.16 85.5075 67.792 86.5635 68.944C87.6195 70.064 89.0595 70.624 90.8835 70.624C92.7395 70.624 94.1955 70.064 95.2515 68.944C96.3075 67.792 96.8355 66.16 96.8355 64.048V49.408H103.604ZM116.954 53.248C117.818 52.032 119.002 51.024 120.506 50.224C122.042 49.392 123.786 48.976 125.738 48.976C128.01 48.976 130.058 49.536 131.882 50.656C133.738 51.776 135.194 53.376 136.25 55.456C137.338 57.504 137.882 59.888 137.882 62.608C137.882 65.328 137.338 67.744 136.25 69.856C135.194 71.936 133.738 73.552 131.882 74.704C130.058 75.856 128.01 76.432 125.738 76.432C123.786 76.432 122.058 76.032 120.554 75.232C119.082 74.432 117.882 73.424 116.954 72.208V88.672H110.234V49.408H116.954V53.248ZM131.018 62.608C131.018 61.008 130.682 59.632 130.01 58.48C129.37 57.296 128.506 56.4 127.418 55.792C126.362 55.184 125.21 54.88 123.962 54.88C122.746 54.88 121.594 55.2 120.506 55.84C119.45 56.448 118.586 57.344 117.914 58.528C117.274 59.712 116.954 61.104 116.954 62.704C116.954 64.304 117.274 65.696 117.914 66.88C118.586 68.064 119.45 68.976 120.506 69.616C121.594 70.224 122.746 70.528 123.962 70.528C125.21 70.528 126.362 70.208 127.418 69.568C128.506 68.928 129.37 68.016 130.01 66.832C130.682 65.648 131.018 64.24 131.018 62.608ZM149.485 40.48V76H142.765V40.48H149.485ZM180.845 62.128C180.845 63.088 180.781 63.952 180.653 64.72H161.213C161.373 66.64 162.045 68.144 163.229 69.232C164.413 70.32 165.869 70.864 167.597 70.864C170.093 70.864 171.869 69.792 172.925 67.648H180.173C179.405 70.208 177.933 72.32 175.757 73.984C173.581 75.616 170.909 76.432 167.741 76.432C165.181 76.432 162.877 75.872 160.829 74.752C158.813 73.6 157.229 71.984 156.077 69.904C154.957 67.824 154.396 65.424 154.396 62.704C154.396 59.952 154.957 57.536 156.077 55.456C157.197 53.376 158.765 51.776 160.781 50.656C162.797 49.536 165.117 48.976 167.741 48.976C170.269 48.976 172.525 49.52 174.509 50.608C176.525 51.696 178.077 53.248 179.165 55.264C180.285 57.248 180.845 59.536 180.845 62.128ZM173.885 60.208C173.853 58.48 173.229 57.104 172.013 56.08C170.797 55.024 169.309 54.496 167.549 54.496C165.885 54.496 164.477 55.008 163.325 56.032C162.205 57.024 161.517 58.416 161.261 60.208H173.885ZM210.47 62.128C210.47 63.088 210.406 63.952 210.278 64.72H190.838C190.998 66.64 191.67 68.144 192.854 69.232C194.038 70.32 195.494 70.864 197.222 70.864C199.718 70.864 201.494 69.792 202.55 67.648H209.798C209.03 70.208 207.558 72.32 205.382 73.984C203.206 75.616 200.534 76.432 197.366 76.432C194.806 76.432 192.502 75.872 190.454 74.752C188.438 73.6 186.854 71.984 185.702 69.904C184.582 67.824 184.021 65.424 184.021 62.704C184.021 59.952 184.582 57.536 185.702 55.456C186.822 53.376 188.39 51.776 190.406 50.656C192.422 49.536 194.742 48.976 197.366 48.976C199.894 48.976 202.15 49.52 204.134 50.608C206.15 51.696 207.702 53.248 208.79 55.264C209.91 57.248 210.47 59.536 210.47 62.128ZM203.51 60.208C203.478 58.48 202.854 57.104 201.638 56.08C200.422 55.024 198.934 54.496 197.174 54.496C195.51 54.496 194.102 55.008 192.95 56.032C191.83 57.024 191.142 58.416 190.886 60.208H203.51Z" fill="#3E5915"/>
</g>
<defs>
<filter id="filter0_d_792_7154" x="46.3857" y="40.4805" width="166.084" height="52.1914" filterUnits="userSpaceOnUse" color-interpolation-filters="sRGB">
<feFlood flood-opacity="0" result="BackgroundImageFix"/>
<feColorMatrix in="SourceAlpha" type="matrix" values="0 0 0 0 0 0 0 0 0 0 0 0 0 0 0 0 0 0 127 0" result="hardAlpha"/>
<feOffset dy="2"/>
<feGaussianBlur stdDeviation="1"/>
<feComposite in2="hardAlpha" operator="out"/>
<feColorMatrix type="matrix" values="0 0 0 0 0 0 0 0 0 0 0 0 0 0 0 0 0 0 0.25 0"/>
<feBlend mode="normal" in2="BackgroundImageFix" result="effect1_dropShadow_792_7154"/>
<feBlend mode="normal" in="SourceGraphic" in2="effect1_dropShadow_792_7154" result="shape"/>
</filter>
</defs>
</svg>
